900-italic.ufo
<glyph name="exclam" format="2">
  <advance width="359"/>
  <unicode hex="0021"/>
  <outline>
    <contour>
      <point x="155" y="700" type="line"/>
      <point x="390" y="700" type="line"/>
      <point x="275" y="250" type="line"/>
      <point x="115" y="250" type="line"/>
    </contour>
    <contour>
      <point x="48" y="75" type="curve" smooth="yes"/>
      <point x="48" y="138"/>
      <point x="96" y="180"/>
      <point x="166" y="180" type="curve" smooth="yes"/>
      <point x="236" y="180"/>
      <point x="284" y="138"/>
      <point x="284" y="75" type="curve" smooth="yes"/>
      <point x="284" y="12"/>
      <point x="236" y="-30"/>
      <point x="166" y="-30" type="curve" smooth="yes"/>
      <point x="96" y="-30"/>
      <point x="48" y="12"/>
    </contour>
  </outline>
</glyph>
<glyph name="quotedbl" format="2">
  <advance width="533"/>
  <unicode hex="0022"/>
  <outline>
    <contour>
      <point x="176" y="700" type="line"/>
      <point x="376" y="700" type="line"/>
      <point x="212" y="370" type="line"/>
      <point x="86" y="370" type="line"/>
    </contour>
    <contour>
      <point x="400" y="700" type="line"/>
      <point x="599" y="700" type="line"/>
      <point x="436" y="370" type="line"/>
      <point x="309" y="370" type="line"/>
    </contour>
  </outline>
</glyph>
<glyph name="numbersign" format="2">
  <advance width="684"/>
  <unicode hex="0023"/>
  <outline>
    <contour>
      <point x="114" y="396" type="line"/>
      <point x="138" y="550" type="line"/>
      <point x="719" y="550" type="line"/>
      <point x="692" y="395" type="line"/>
      <point x="537" y="395" type="line"/>
      <point x="502" y="405" type="line"/>
      <point x="296" y="405" type="line"/>
      <point x="262" y="395" type="line"/>
    </contour>
    <contour>
      <point x="31" y="155" type="line"/>
      <point x="58" y="310" type="line"/>
      <point x="196" y="310" type="line"/>
      <point x="236" y="300" type="line"/>
      <point x="476" y="300" type="line"/>
      <point x="512" y="310" type="line"/>
      <point x="640" y="310" type="line"/>
      <point x="612" y="155" type="line"/>
    </contour>
    <contour>
      <point x="558" y="700" type="line"/>
      <point x="727" y="700" type="line"/>
      <point x="442" y="0" type="line"/>
      <point x="275" y="0" type="line"/>
      <point x="366" y="222" type="line"/>
      <point x="388" y="252" type="line"/>
      <point x="470" y="452" type="line"/>
      <point x="475" y="492" type="line"/>
    </contour>
    <contour>
      <point x="308" y="700" type="line"/>
      <point x="474" y="700" type="line"/>
      <point x="389" y="492" type="line"/>
      <point x="362" y="450" type="line"/>
      <point x="283" y="256" type="line"/>
      <point x="281" y="226" type="line"/>
      <point x="189" y="0" type="line"/>
      <point x="23" y="0" type="line"/>
    </contour>
  </outline>
</glyph>
<glyph name="dollar" format="2">
  <advance width="627"/>
  <unicode hex="0024"/>
  <outline>
    <contour>
      <point x="364" y="818" type="line"/>
      <point x="517" y="818" type="line"/>
      <point x="475" y="618" type="line"/>
      <point x="342" y="618" type="line"/>
    </contour>
    <contour>
      <point x="258" y="70" type="line"/>
      <point x="390" y="70" type="line"/>
      <point x="371" y="-112" type="line"/>
      <point x="220" y="-112" type="line"/>
    </contour>
    <contour>
      <point x="500" y="474" type="line"/>
      <point x="478" y="522"/>
      <point x="451" y="558"/>
      <point x="409" y="558" type="curve" smooth="yes"/>
      <point x="375" y="558"/>
      <point x="349" y="536"/>
      <point x="343" y="513" type="curve" smooth="yes"/>
      <point x="331" y="460"/>
      <point x="420" y="446"/>
      <point x="479" y="424" type="curve" smooth="yes"/>
      <point x="579" y="384"/>
      <point x="638" y="307"/>
      <point x="624" y="200" type="curve" smooth="yes"/>
      <point x="604" y="57"/>
      <point x="462" y="-11"/>
      <point x="302" y="-10" type="curve" smooth="yes"/>
      <point x="177" y="-9"/>
      <point x="69" y="64"/>
      <point x="26" y="160" type="curve"/>
      <point x="182" y="266" type="line"/>
      <point x="220" y="201"/>
      <point x="256" y="158"/>
      <point x="323" y="158" type="curve" smooth="yes"/>
      <point x="361" y="158"/>
      <point x="390" y="171"/>
      <point x="396" y="202" type="curve" smooth="yes"/>
      <point x="404" y="242"/>
      <point x="340" y="258"/>
      <point x="284" y="281" type="curve" smooth="yes"/>
      <point x="204" y="316"/>
      <point x="108" y="388"/>
      <point x="122" y="510" type="curve" smooth="yes"/>
      <point x="140" y="628"/>
      <point x="270" y="710"/>
      <point x="414" y="710" type="curve" smooth="yes"/>
      <point x="550" y="710"/>
      <point x="622" y="650"/>
      <point x="670" y="562" type="curve"/>
    </contour>
  </outline>
</glyph>
<glyph name="percent" format="2">
  <advance width="990"/>
  <unicode hex="0025"/>
  <outline>
    <contour>
      <point x="76" y="526" type="curve" smooth="yes"/>
      <point x="91" y="634"/>
      <point x="193" y="724"/>
      <point x="307" y="724" type="curve" smooth="yes"/>
      <point x="419" y="724"/>
      <point x="496" y="630"/>
      <point x="482" y="524" type="curve" smooth="yes"/>
      <point x="467" y="416"/>
      <point x="364" y="326"/>
      <point x="250" y="326" type="curve" smooth="yes"/>
      <point x="138" y="326"/>
      <point x="62" y="420"/>
    </contour>
    <contour>
      <point x="229" y="524" type="curve" smooth="yes"/>
      <point x="227" y="502"/>
      <point x="242" y="476"/>
      <point x="272" y="476" type="curve" smooth="yes"/>
      <point x="298" y="476"/>
      <point x="325" y="502"/>
      <point x="328" y="526" type="curve" smooth="yes"/>
      <point x="330" y="548"/>
      <point x="316" y="574"/>
      <point x="286" y="574" type="curve" smooth="yes"/>
      <point x="260" y="574"/>
      <point x="232" y="548"/>
    </contour>
    <contour>
      <point x="574" y="176" type="curve" smooth="yes"/>
      <point x="589" y="284"/>
      <point x="692" y="376"/>
      <point x="806" y="376" type="curve" smooth="yes"/>
      <point x="918" y="376"/>
      <point x="994" y="282"/>
      <point x="980" y="176" type="curve" smooth="yes"/>
      <point x="965" y="68"/>
      <point x="863" y="-24"/>
      <point x="749" y="-24" type="curve" smooth="yes"/>
      <point x="637" y="-24"/>
      <point x="560" y="70"/>
    </contour>
    <contour>
      <point x="728" y="174" type="curve" smooth="yes"/>
      <point x="725" y="152"/>
      <point x="744" y="128"/>
      <point x="768" y="128" type="curve" smooth="yes"/>
      <point x="794" y="128"/>
      <point x="821" y="148"/>
      <point x="827" y="178" type="curve" smooth="yes"/>
      <point x="830" y="200"/>
      <point x="810" y="224"/>
      <point x="786" y="224" type="curve" smooth="yes"/>
      <point x="760" y="224"/>
      <point x="734" y="204"/>
    </contour>
    <contour>
      <point x="770" y="700" type="line"/>
      <point x="978" y="700" type="line"/>
      <point x="286" y="0" type="line"/>
      <point x="78" y="0" type="line"/>
    </contour>
  </outline>
</glyph>
<glyph name="ampersand" format="2">
  <advance width="775"/>
  <unicode hex="0026"/>
  <outline>
    <contour>
      <point x="258" y="364" type="line" smooth="yes"/>
      <point x="215" y="420"/>
      <point x="184" y="471"/>
      <point x="192" y="536" type="curve" smooth="yes"/>
      <point x="207" y="636"/>
      <point x="318" y="720"/>
      <point x="452" y="720" type="curve" smooth="yes"/>
      <point x="575" y="720"/>
      <point x="659" y="640"/>
      <point x="646" y="544" type="curve" smooth="yes"/>
      <point x="633" y="436"/>
      <point x="543" y="394"/>
      <point x="436" y="328" type="curve" smooth="yes"/>
      <point x="371" y="289"/>
      <point x="264" y="280"/>
      <point x="252" y="208" type="curve" smooth="yes"/>
      <point x="246" y="174"/>
      <point x="268" y="148"/>
      <point x="316" y="146" type="curve" smooth="yes"/>
      <point x="434" y="139"/>
      <point x="551" y="254"/>
      <point x="626" y="356" type="curve"/>
      <point x="738" y="254" type="line"/>
      <point x="638" y="126"/>
      <point x="472" y="-16"/>
      <point x="272" y="-15" type="curve" smooth="yes"/>
      <point x="140" y="-15"/>
      <point x="32" y="61"/>
      <point x="50" y="190" type="curve" smooth="yes"/>
      <point x="70" y="347"/>
      <point x="250" y="382"/>
      <point x="348" y="422" type="curve" smooth="yes"/>
      <point x="407" y="446"/>
      <point x="472" y="481"/>
      <point x="476" y="523" type="curve" smooth="yes"/>
      <point x="478" y="543"/>
      <point x="462" y="570"/>
      <point x="430" y="570" type="curve" smooth="yes"/>
      <point x="396" y="570"/>
      <point x="375" y="546"/>
      <point x="370" y="520" type="curve" smooth="yes"/>
      <point x="362" y="478"/>
      <point x="400" y="437"/>
      <point x="442" y="385" type="curve" smooth="yes"/>
      <point x="741" y="0" type="line"/>
      <point x="533" y="0" type="line"/>
    </contour>
  </outline>
</glyph>
<glyph name="quotesingle" format="2">
  <advance width="310"/>
  <unicode hex="0027"/>
  <outline>
    <contour>
      <point x="176" y="700" type="line"/>
      <point x="376" y="700" type="line"/>
      <point x="212" y="370" type="line"/>
      <point x="86" y="370" type="line"/>
    </contour>
  </outline>
</glyph>
<glyph name="parenleft" format="2">
  <advance width="349"/>
  <unicode hex="0028"/>
  <outline>
    <contour>
      <point x="273" y="780" type="curve"/>
      <point x="448" y="779" type="line"/>
      <point x="362" y="627"/>
      <point x="290" y="464"/>
      <point x="262" y="290" type="curve" smooth="yes"/>
      <point x="236" y="126"/>
      <point x="251" y="-42"/>
      <point x="299" y="-200" type="curve"/>
      <point x="130" y="-200" type="line"/>
      <point x="74" y="-43"/>
      <point x="56" y="125"/>
      <point x="80" y="290" type="curve" smooth="yes"/>
      <point x="106" y="464"/>
      <point x="175" y="632"/>
    </contour>
  </outline>
</glyph>
<glyph name="parenright" format="2">
  <advance width="349"/>
  <unicode hex="0029"/>
  <outline>
    <contour>
      <point x="131" y="-200" type="curve"/>
      <point x="-43" y="-199" type="line"/>
      <point x="43" y="-47"/>
      <point x="114" y="116"/>
      <point x="142" y="290" type="curve" smooth="yes"/>
      <point x="168" y="454"/>
      <point x="154" y="622"/>
      <point x="106" y="780" type="curve"/>
      <point x="275" y="780" type="line"/>
      <point x="331" y="623"/>
      <point x="349" y="455"/>
      <point x="325" y="290" type="curve" smooth="yes"/>
      <point x="299" y="116"/>
      <point x="229" y="-52"/>
    </contour>
  </outline>
</glyph>
<glyph name="asterisk" format="2">
  <advance width="574"/>
  <unicode hex="002A"/>
  <outline>
    <contour>
      <point x="573" y="606" type="line"/>
      <point x="600" y="434" type="line"/>
      <point x="340" y="396" type="line"/>
      <point x="327" y="484" type="line"/>
    </contour>
    <contour>
      <point x="529" y="281" type="line"/>
      <point x="369" y="174" type="line"/>
      <point x="296" y="418" type="line"/>
      <point x="370" y="466" type="line"/>
    </contour>
    <contour>
      <point x="218" y="178" type="line"/>
      <point x="88" y="288" type="line"/>
      <point x="301" y="466" type="line"/>
      <point x="366" y="412" type="line"/>
    </contour>
    <contour>
      <point x="68" y="436" type="line"/>
      <point x="148" y="605" type="line"/>
      <point x="358" y="479" type="line"/>
      <point x="319" y="398" type="line"/>
    </contour>
    <contour>
      <point x="289" y="700" type="line"/>
      <point x="470" y="700" type="line"/>
      <point x="380" y="440" type="line"/>
      <point x="293" y="440" type="line"/>
    </contour>
  </outline>
</glyph>
<glyph name="plus" format="2">
  <advance width="689"/>
  <unicode hex="002B"/>
  <outline>
    <contour>
      <point x="66" y="185" type="line"/>
      <point x="98" y="370" type="line"/>
      <point x="664" y="370" type="line"/>
      <point x="632" y="185" type="line"/>
    </contour>
    <contour>
      <point x="316" y="565" type="line"/>
      <point x="513" y="565" type="line"/>
      <point x="414" y="-10" type="line"/>
      <point x="216" y="-10" type="line"/>
    </contour>
  </outline>
</glyph>
<glyph name="comma" format="2">
  <advance width="323"/>
  <unicode hex="002C"/>
  <outline>
    <contour>
      <point x="88" y="109" type="line"/>
      <point x="278" y="74" type="line"/>
      <point x="106" y="-173" type="line"/>
      <point x="-41" y="-147" type="line"/>
    </contour>
  </outline>
</glyph>
<glyph name="period" format="2">
  <advance width="326"/>
  <unicode hex="002E"/>
  <outline>
    <contour>
      <point x="38" y="85" type="curve" smooth="yes"/>
      <point x="38" y="148"/>
      <point x="86" y="200"/>
      <point x="156" y="200" type="curve" smooth="yes"/>
      <point x="226" y="200"/>
      <point x="274" y="148"/>
      <point x="274" y="85" type="curve" smooth="yes"/>
      <point x="274" y="22"/>
      <point x="226" y="-30"/>
      <point x="156" y="-30" type="curve" smooth="yes"/>
      <point x="86" y="-30"/>
      <point x="38" y="22"/>
    </contour>
  </outline>
</glyph>
<glyph name="slash" format="2">
  <advance width="645"/>
  <unicode hex="002F"/>
  <outline>
    <contour>
      <point x="540" y="700" type="line"/>
      <point x="728" y="700" type="line"/>
      <point x="155" y="-150" type="line"/>
      <point x="-42" y="-150" type="line"/>
    </contour>
  </outline>
</glyph>
<glyph name="zero" format="2">
  <advance width="679"/>
  <unicode hex="0030"/>
  <outline>
    <contour>
      <point x="276" y="350" type="curve" smooth="yes"/>
      <point x="268" y="272"/>
      <point x="267" y="172"/>
      <point x="336" y="170" type="curve" smooth="yes"/>
      <point x="407" y="168"/>
      <point x="456" y="262"/>
      <point x="468" y="350" type="curve" smooth="yes"/>
      <point x="476" y="428"/>
      <point x="477" y="528"/>
      <point x="408" y="530" type="curve" smooth="yes"/>
      <point x="337" y="532"/>
      <point x="288" y="438"/>
    </contour>
    <contour>
      <point x="70" y="350" type="curve" smooth="yes"/>
      <point x="98" y="560"/>
      <point x="234" y="715"/>
      <point x="428" y="715" type="curve" smooth="yes"/>
      <point x="630" y="715"/>
      <point x="701" y="550"/>
      <point x="675" y="350" type="curve" smooth="yes"/>
      <point x="647" y="140"/>
      <point x="516" y="-15"/>
      <point x="316" y="-15" type="curve" smooth="yes"/>
      <point x="120" y="-15"/>
      <point x="44" y="150"/>
    </contour>
  </outline>
</glyph>
<glyph name="two" format="2">
  <advance width="688"/>
  <unicode hex="0032"/>
  <outline>
    <contour>
      <point x="-2" y="0" type="line"/>
      <point x="336" y="305" type="line" smooth="yes"/>
      <point x="393" y="359"/>
      <point x="454" y="404"/>
      <point x="463" y="466" type="curve" smooth="yes"/>
      <point x="467" y="500"/>
      <point x="452" y="529"/>
      <point x="408" y="530" type="curve" smooth="yes"/>
      <point x="355" y="532"/>
      <point x="320" y="479"/>
      <point x="310" y="430" type="curve"/>
      <point x="98" y="430" type="line"/>
      <point x="124" y="584"/>
      <point x="244" y="716"/>
      <point x="434" y="716" type="curve" smooth="yes"/>
      <point x="592" y="716"/>
      <point x="707" y="610"/>
      <point x="688" y="480" type="curve" smooth="yes"/>
      <point x="678" y="402"/>
      <point x="624" y="344"/>
      <point x="560" y="297" type="curve" smooth="yes"/>
      <point x="424" y="200" type="line"/>
      <point x="670" y="200" type="line"/>
      <point x="638" y="0" type="line"/>
    </contour>
  </outline>
</glyph>
<glyph name="three" format="2">
  <advance width="646"/>
  <unicode hex="0033"/>
  <outline>
    <contour>
      <point x="314" y="336" type="curve"/>
      <point x="326" y="424" type="line"/>
      <point x="383" y="428"/>
      <point x="454" y="454"/>
      <point x="458" y="502" type="curve" smooth="yes"/>
      <point x="460" y="528"/>
      <point x="442" y="544"/>
      <point x="408" y="544" type="curve" smooth="yes"/>
      <point x="364" y="546"/>
      <point x="333" y="513"/>
      <point x="323" y="476" type="curve"/>
      <point x="124" y="477" type="line"/>
      <point x="148" y="614"/>
      <point x="265" y="715"/>
      <point x="425" y="715" type="curve" smooth="yes"/>
      <point x="573" y="715"/>
      <point x="690" y="642"/>
      <point x="672" y="516" type="curve" smooth="yes"/>
      <point x="651" y="369"/>
      <point x="474" y="337"/>
    </contour>
    <contour>
      <point x="314" y="-20" type="curve" smooth="yes"/>
      <point x="141" y="-19"/>
      <point x="45" y="103"/>
      <point x="57" y="245" type="curve"/>
      <point x="266" y="244" type="line"/>
      <point x="264" y="186"/>
      <point x="289" y="152"/>
      <point x="339" y="150" type="curve" smooth="yes"/>
      <point x="383" y="148"/>
      <point x="425" y="170"/>
      <point x="432" y="216" type="curve" smooth="yes"/>
      <point x="444" y="271"/>
      <point x="386" y="293"/>
      <point x="308" y="295" type="curve"/>
      <point x="322" y="398" type="line"/>
      <point x="492" y="396"/>
      <point x="663" y="352"/>
      <point x="641" y="194" type="curve" smooth="yes"/>
      <point x="622" y="58"/>
      <point x="484" y="-21"/>
    </contour>
  </outline>
</glyph>
<glyph name="four" format="2">
  <advance width="745"/>
  <unicode hex="0034"/>
  <outline>
    <contour>
      <point x="-2" y="116" type="line"/>
      <point x="503" y="700" type="line"/>
      <point x="684" y="700" type="line"/>
      <point x="564" y="0" type="line"/>
      <point x="338" y="0" type="line"/>
      <point x="367" y="176" type="line"/>
      <point x="398" y="186" type="line"/>
      <point x="436" y="412" type="line"/>
      <point x="300" y="266" type="line"/>
      <point x="554" y="266" type="line"/>
      <point x="576" y="300" type="line"/>
      <point x="723" y="300" type="line"/>
      <point x="690" y="115" type="line"/>
    </contour>
  </outline>
</glyph>
<glyph name="five" format="2">
  <advance width="673"/>
  <unicode hex="0035"/>
  <outline>
    <contour>
      <point x="653" y="220" type="curve" smooth="yes"/>
      <point x="633" y="60"/>
      <point x="467" y="-14"/>
      <point x="325" y="-15" type="curve" smooth="yes"/>
      <point x="213" y="-15"/>
      <point x="120" y="10"/>
      <point x="38" y="43" type="curve"/>
      <point x="124" y="236" type="line"/>
      <point x="183" y="202"/>
      <point x="241" y="185"/>
      <point x="287" y="185" type="curve" smooth="yes"/>
      <point x="349" y="185"/>
      <point x="412" y="196"/>
      <point x="420" y="250" type="curve" smooth="yes"/>
      <point x="428" y="302"/>
      <point x="362" y="310"/>
      <point x="316" y="310" type="curve" smooth="yes"/>
      <point x="256" y="311"/>
      <point x="175" y="300"/>
      <point x="105" y="278" type="curve"/>
      <point x="264" y="700" type="line"/>
      <point x="706" y="700" type="line"/>
      <point x="676" y="510" type="line"/>
      <point x="396" y="510" type="line"/>
      <point x="342" y="421" type="line"/>
      <point x="382" y="438"/>
      <point x="426" y="444"/>
      <point x="472" y="444" type="curve" smooth="yes"/>
      <point x="586" y="442"/>
      <point x="668" y="350"/>
    </contour>
  </outline>
</glyph>
<glyph name="six" format="2">
  <advance width="704"/>
  <unicode hex="0036"/>
  <outline>
    <contour>
      <point x="284" y="254" type="curve" smooth="yes"/>
      <point x="276" y="204"/>
      <point x="305" y="167"/>
      <point x="356" y="166" type="curve" smooth="yes"/>
      <point x="408" y="165"/>
      <point x="458" y="204"/>
      <point x="466" y="256" type="curve" smooth="yes"/>
      <point x="474" y="305"/>
      <point x="443" y="345"/>
      <point x="392" y="346" type="curve" smooth="yes"/>
      <point x="340" y="347"/>
      <point x="292" y="306"/>
    </contour>
    <contour>
      <point x="410" y="694" type="line"/>
      <point x="691" y="694" type="line"/>
      <point x="430" y="466" type="line"/>
      <point x="372" y="438" type="line"/>
      <point x="412" y="468"/>
      <point x="444" y="482"/>
      <point x="492" y="482" type="curve" smooth="yes"/>
      <point x="603" y="482"/>
      <point x="694" y="384"/>
      <point x="680" y="255" type="curve" smooth="yes"/>
      <point x="659" y="78"/>
      <point x="506" y="-20"/>
      <point x="338" y="-20" type="curve" smooth="yes"/>
      <point x="174" y="-20"/>
      <point x="47" y="80"/>
      <point x="69" y="255" type="curve" smooth="yes"/>
      <point x="81" y="344"/>
      <point x="140" y="415"/>
      <point x="202" y="480" type="curve" smooth="yes"/>
    </contour>
  </outline>
</glyph>
<glyph name="seven" format="2">
  <advance width="630"/>
  <unicode hex="0037"/>
  <outline>
    <contour>
      <point x="86" y="495" type="line"/>
      <point x="118" y="700" type="line"/>
      <point x="726" y="700" type="line"/>
      <point x="287" y="0" type="line"/>
      <point x="48" y="0" type="line"/>
      <point x="374" y="495" type="line"/>
    </contour>
  </outline>
</glyph>
<glyph name="eight" format="2">
  <advance width="656"/>
  <unicode hex="0038"/>
  <outline>
    <contour>
      <point x="135" y="532" type="curve" smooth="yes"/>
      <point x="153" y="660"/>
      <point x="286" y="720"/>
      <point x="418" y="720" type="curve" smooth="yes"/>
      <point x="544" y="720"/>
      <point x="666" y="660"/>
      <point x="648" y="530" type="curve" smooth="yes"/>
      <point x="630" y="397"/>
      <point x="483" y="335"/>
      <point x="364" y="335" type="curve" smooth="yes"/>
      <point x="251" y="335"/>
      <point x="117" y="399"/>
    </contour>
    <contour>
      <point x="333" y="510" type="curve" smooth="yes"/>
      <point x="329" y="480"/>
      <point x="342" y="450"/>
      <point x="374" y="450" type="curve" smooth="yes"/>
      <point x="412" y="450"/>
      <point x="440" y="480"/>
      <point x="444" y="512" type="curve" smooth="yes"/>
      <point x="448" y="542"/>
      <point x="434" y="570"/>
      <point x="402" y="570" type="curve" smooth="yes"/>
      <point x="364" y="570"/>
      <point x="337" y="542"/>
    </contour>
    <contour>
      <point x="52" y="190" type="curve" smooth="yes"/>
      <point x="72" y="339"/>
      <point x="238" y="400"/>
      <point x="363" y="400" type="curve" smooth="yes"/>
      <point x="481" y="400"/>
      <point x="634" y="340"/>
      <point x="614" y="190" type="curve" smooth="yes"/>
      <point x="594" y="52"/>
      <point x="444" y="-20"/>
      <point x="304" y="-20" type="curve" smooth="yes"/>
      <point x="172" y="-20"/>
      <point x="32" y="51"/>
    </contour>
    <contour>
      <point x="274" y="224" type="curve" smooth="yes"/>
      <point x="268" y="186"/>
      <point x="286" y="156"/>
      <point x="324" y="156" type="curve" smooth="yes"/>
      <point x="368" y="156"/>
      <point x="398" y="186"/>
      <point x="404" y="226" type="curve" smooth="yes"/>
      <point x="408" y="258"/>
      <point x="390" y="290"/>
      <point x="354" y="290" type="curve" smooth="yes"/>
      <point x="311" y="290"/>
      <point x="280" y="258"/>
    </contour>
  </outline>
</glyph>
<glyph name="nine" format="2">
  <advance width="704"/>
  <unicode hex="0039"/>
  <outline>
    <contour>
      <point x="494" y="446" type="curve" smooth="yes"/>
      <point x="502" y="496"/>
      <point x="473" y="533"/>
      <point x="422" y="534" type="curve" smooth="yes"/>
      <point x="370" y="535"/>
      <point x="321" y="496"/>
      <point x="313" y="444" type="curve" smooth="yes"/>
      <point x="305" y="395"/>
      <point x="335" y="355"/>
      <point x="386" y="354" type="curve" smooth="yes"/>
      <point x="438" y="353"/>
      <point x="486" y="394"/>
    </contour>
    <contour>
      <point x="368" y="6" type="line"/>
      <point x="88" y="6" type="line"/>
      <point x="348" y="234" type="line"/>
      <point x="406" y="262" type="line"/>
      <point x="366" y="232"/>
      <point x="334" y="218"/>
      <point x="286" y="218" type="curve" smooth="yes"/>
      <point x="175" y="218"/>
      <point x="84" y="316"/>
      <point x="98" y="445" type="curve" smooth="yes"/>
      <point x="119" y="622"/>
      <point x="272" y="720"/>
      <point x="440" y="720" type="curve" smooth="yes"/>
      <point x="604" y="720"/>
      <point x="731" y="620"/>
      <point x="709" y="445" type="curve" smooth="yes"/>
      <point x="697" y="356"/>
      <point x="638" y="285"/>
      <point x="576" y="220" type="curve" smooth="yes"/>
    </contour>
  </outline>
</glyph>
<glyph name="colon" format="2">
  <advance width="326"/>
  <unicode hex="003A"/>
  <outline>
    <contour>
      <point x="32" y="85" type="curve" smooth="yes"/>
      <point x="32" y="148"/>
      <point x="80" y="200"/>
      <point x="150" y="200" type="curve" smooth="yes"/>
      <point x="220" y="200"/>
      <point x="268" y="148"/>
      <point x="268" y="85" type="curve" smooth="yes"/>
      <point x="268" y="22"/>
      <point x="220" y="-30"/>
      <point x="150" y="-30" type="curve" smooth="yes"/>
      <point x="80" y="-30"/>
      <point x="32" y="22"/>
    </contour>
    <contour>
      <point x="96" y="454" type="curve" smooth="yes"/>
      <point x="96" y="517"/>
      <point x="144" y="570"/>
      <point x="214" y="570" type="curve" smooth="yes"/>
      <point x="284" y="570"/>
      <point x="332" y="517"/>
      <point x="332" y="454" type="curve" smooth="yes"/>
      <point x="332" y="391"/>
      <point x="284" y="340"/>
      <point x="214" y="340" type="curve" smooth="yes"/>
      <point x="144" y="340"/>
      <point x="96" y="391"/>
    </contour>
  </outline>
</glyph>
<glyph name="semicolon" format="2">
  <advance width="418"/>
  <unicode hex="003B"/>
  <outline>
    <contour>
      <point x="157" y="444" type="curve" smooth="yes"/>
      <point x="157" y="507"/>
      <point x="205" y="560"/>
      <point x="275" y="560" type="curve" smooth="yes"/>
      <point x="345" y="560"/>
      <point x="393" y="507"/>
      <point x="393" y="444" type="curve" smooth="yes"/>
      <point x="393" y="381"/>
      <point x="345" y="330"/>
      <point x="275" y="330" type="curve" smooth="yes"/>
      <point x="205" y="330"/>
      <point x="157" y="381"/>
    </contour>
    <contour>
      <point x="122" y="109" type="line"/>
      <point x="312" y="74" type="line"/>
      <point x="140" y="-173" type="line"/>
      <point x="-7" y="-147" type="line"/>
    </contour>
  </outline>
</glyph>
<glyph name="equal" format="2">
  <advance width="614"/>
  <unicode hex="003D"/>
  <outline>
    <contour>
      <point x="28" y="50" type="line"/>
      <point x="57" y="215" type="line"/>
      <point x="578" y="215" type="line"/>
      <point x="548" y="50" type="line"/>
    </contour>
    <contour>
      <point x="68" y="290" type="line"/>
      <point x="98" y="455" type="line"/>
      <point x="618" y="455" type="line"/>
      <point x="590" y="290" type="line"/>
    </contour>
  </outline>
</glyph>
<glyph name="greater" format="2">
  <advance width="621"/>
  <unicode hex="003E"/>
  <outline>
    <contour>
      <point x="318" y="268" type="line"/>
      <point x="96" y="360" type="line"/>
      <point x="127" y="544" type="line"/>
      <point x="589" y="332" type="line"/>
      <point x="566" y="198" type="line"/>
      <point x="31" y="-13" type="line"/>
      <point x="66" y="184" type="line"/>
    </contour>
  </outline>
</glyph>
<glyph name="question" format="2">
  <advance width="649"/>
  <unicode hex="003F"/>
  <outline>
    <contour>
      <point x="468" y="500" type="curve" smooth="yes"/>
      <point x="474" y="542"/>
      <point x="445" y="563"/>
      <point x="396" y="564" type="curve" smooth="yes"/>
      <point x="332" y="566"/>
      <point x="265" y="527"/>
      <point x="219" y="476" type="curve"/>
      <point x="110" y="589" type="line"/>
      <point x="199" y="670"/>
      <point x="302" y="725"/>
      <point x="422" y="725" type="curve" smooth="yes"/>
      <point x="553" y="725"/>
      <point x="680" y="642"/>
      <point x="660" y="500" type="curve" smooth="yes"/>
      <point x="642" y="375"/>
      <point x="527" y="311"/>
      <point x="418" y="282" type="curve"/>
      <point x="403" y="220" type="line"/>
      <point x="242" y="220" type="line"/>
      <point x="252" y="400" type="line"/>
      <point x="285" y="400" type="line" smooth="yes"/>
      <point x="377" y="402"/>
      <point x="456" y="446"/>
    </contour>
    <contour>
      <point x="174" y="71" type="curve" smooth="yes"/>
      <point x="174" y="125"/>
      <point x="224" y="170"/>
      <point x="290" y="170" type="curve" smooth="yes"/>
      <point x="356" y="170"/>
      <point x="406" y="127"/>
      <point x="406" y="71" type="curve" smooth="yes"/>
      <point x="406" y="15"/>
      <point x="356" y="-30"/>
      <point x="290" y="-30" type="curve" smooth="yes"/>
      <point x="224" y="-30"/>
      <point x="174" y="15"/>
    </contour>
  </outline>
</glyph>
<glyph name="at" format="2">
  <advance width="747"/>
  <unicode hex="0040"/>
  <outline>
    <contour>
      <point x="363" y="320" type="curve" smooth="yes"/>
      <point x="361" y="298"/>
      <point x="360" y="270"/>
      <point x="374" y="266" type="curve" smooth="yes"/>
      <point x="401" y="258"/>
      <point x="435" y="328"/>
      <point x="439" y="360" type="curve" smooth="yes"/>
      <point x="441" y="385"/>
      <point x="445" y="410"/>
      <point x="429" y="414" type="curve" smooth="yes"/>
      <point x="399" y="422"/>
      <point x="367" y="353"/>
    </contour>
    <contour>
      <point x="218" y="310" type="curve" smooth="yes"/>
      <point x="230" y="423"/>
      <point x="306" y="532"/>
      <point x="396" y="530" type="curve" smooth="yes"/>
      <point x="470" y="529"/>
      <point x="502" y="446"/>
      <point x="494" y="370" type="curve" smooth="yes"/>
      <point x="482" y="256"/>
      <point x="412" y="150"/>
      <point x="322" y="150" type="curve" smooth="yes"/>
      <point x="234" y="150"/>
      <point x="208" y="226"/>
    </contour>
    <contour>
      <point x="36" y="320" type="curve" smooth="yes"/>
      <point x="70" y="542"/>
      <point x="260" y="730"/>
      <point x="494" y="730" type="curve" smooth="yes"/>
      <point x="699" y="730"/>
      <point x="804" y="558"/>
      <point x="778" y="390" type="curve" smooth="yes"/>
      <point x="760" y="243"/>
      <point x="667" y="138"/>
      <point x="547" y="140" type="curve" smooth="yes"/>
      <point x="472" y="142"/>
      <point x="434" y="194"/>
      <point x="440" y="260" type="curve"/>
      <point x="432" y="310" type="line"/>
      <point x="482" y="520" type="line"/>
      <point x="618" y="520" type="line"/>
      <point x="569" y="319" type="line" smooth="yes"/>
      <point x="567" y="311"/>
      <point x="564" y="301"/>
      <point x="562" y="292" type="curve" smooth="yes"/>
      <point x="560" y="276"/>
      <point x="560" y="259"/>
      <point x="572" y="256" type="curve" smooth="yes"/>
      <point x="602" y="246"/>
      <point x="641" y="320"/>
      <point x="645" y="390" type="curve" smooth="yes"/>
      <point x="663" y="502"/>
      <point x="623" y="610"/>
      <point x="486" y="610" type="curve" smooth="yes"/>
      <point x="318" y="610"/>
      <point x="197" y="480"/>
      <point x="170" y="320" type="curve" smooth="yes"/>
      <point x="148" y="188"/>
      <point x="200" y="88"/>
      <point x="356" y="86" type="curve" smooth="yes"/>
      <point x="422" y="86"/>
      <point x="479" y="105"/>
      <point x="535" y="125" type="curve"/>
      <point x="558" y="14" type="line"/>
      <point x="492" y="-18"/>
      <point x="413" y="-35"/>
      <point x="327" y="-35" type="curve" smooth="yes"/>
      <point x="109" y="-33"/>
      <point x="8" y="130"/>
    </contour>
  </outline>
</glyph>
<glyph name="A" format="2">
  <advance width="756"/>
  <unicode hex="0041"/>
  <outline>
    <contour>
      <point x="187" y="90" type="line"/>
      <point x="215" y="248" type="line"/>
      <point x="578" y="248" type="line"/>
      <point x="550" y="90" type="line"/>
    </contour>
    <contour>
      <point x="416" y="382" type="line"/>
      <point x="302" y="188" type="line"/>
      <point x="311" y="138" type="line"/>
      <point x="214" y="0" type="line"/>
      <point x="-36" y="0" type="line"/>
      <point x="478" y="752" type="line"/>
      <point x="734" y="0" type="line"/>
      <point x="494" y="0" type="line"/>
      <point x="448" y="132" type="line"/>
      <point x="468" y="189" type="line"/>
    </contour>
  </outline>
</glyph>
<glyph name="B" format="2">
  <advance width="706"/>
  <unicode hex="0042"/>
  <outline>
    <contour>
      <point x="253" y="335" type="line"/>
      <point x="270" y="425" type="line"/>
      <point x="375" y="425" type="line" smooth="yes"/>
      <point x="419" y="425"/>
      <point x="453" y="446"/>
      <point x="460" y="484" type="curve" smooth="yes"/>
      <point x="466" y="520"/>
      <point x="443" y="535"/>
      <point x="403" y="535" type="curve" smooth="yes"/>
      <point x="349" y="535" type="line"/>
      <point x="282" y="164" type="line"/>
      <point x="350" y="164" type="line" smooth="yes"/>
      <point x="396" y="165"/>
      <point x="448" y="176"/>
      <point x="456" y="228" type="curve" smooth="yes"/>
      <point x="462" y="272"/>
      <point x="422" y="279"/>
      <point x="380" y="280" type="curve" smooth="yes"/>
      <point x="244" y="280" type="line"/>
      <point x="265" y="400" type="line"/>
      <point x="418" y="400" type="line" smooth="yes"/>
      <point x="546" y="400"/>
      <point x="694" y="338"/>
      <point x="674" y="192" type="curve" smooth="yes"/>
      <point x="654" y="49"/>
      <point x="522" y="0"/>
      <point x="362" y="0" type="curve" smooth="yes"/>
      <point x="39" y="0" type="line"/>
      <point x="159" y="700" type="line"/>
      <point x="450" y="700" type="line" smooth="yes"/>
      <point x="580" y="700"/>
      <point x="711" y="646"/>
      <point x="692" y="520" type="curve" smooth="yes"/>
      <point x="674" y="394"/>
      <point x="539" y="335"/>
      <point x="400" y="335" type="curve" smooth="yes"/>
    </contour>
  </outline>
</glyph>
<glyph name="D" format="2">
  <advance width="742"/>
  <unicode hex="0044"/>
  <outline>
    <contour>
      <point x="159" y="700" type="line"/>
      <point x="384" y="700" type="line"/>
      <point x="264" y="0" type="line"/>
      <point x="39" y="0" type="line"/>
    </contour>
    <contour>
      <point x="314" y="0" type="curve" smooth="yes"/>
      <point x="186" y="0" type="line"/>
      <point x="220" y="190" type="line"/>
      <point x="324" y="190" type="line" smooth="yes"/>
      <point x="415" y="190"/>
      <point x="503" y="230"/>
      <point x="522" y="350" type="curve" smooth="yes"/>
      <point x="540" y="466"/>
      <point x="478" y="510"/>
      <point x="390" y="510" type="curve" smooth="yes"/>
      <point x="273" y="510" type="line"/>
      <point x="306" y="700" type="line"/>
      <point x="421" y="700" type="line" smooth="yes"/>
      <point x="645" y="700"/>
      <point x="780" y="560"/>
      <point x="748" y="350" type="curve" smooth="yes"/>
      <point x="716" y="135"/>
      <point x="545" y="0"/>
    </contour>
  </outline>
</glyph>
<glyph name="F" format="2">
  <advance width="567"/>
  <unicode hex="0046"/>
  <outline>
    <contour>
      <point x="274" y="515" type="line"/>
      <point x="306" y="700" type="line"/>
      <point x="614" y="700" type="line"/>
      <point x="581" y="515" type="line"/>
    </contour>
    <contour>
      <point x="228" y="245" type="line"/>
      <point x="258" y="415" type="line"/>
      <point x="556" y="415" type="line"/>
      <point x="526" y="245" type="line"/>
    </contour>
    <contour>
      <point x="159" y="700" type="line"/>
      <point x="366" y="700" type="line"/>
      <point x="246" y="0" type="line"/>
      <point x="39" y="0" type="line"/>
    </contour>
  </outline>
</glyph>
<glyph name="H" format="2">
  <advance width="805"/>
  <unicode hex="0048"/>
  <outline>
    <contour>
      <point x="130" y="265" type="line"/>
      <point x="164" y="460" type="line"/>
      <point x="710" y="460" type="line"/>
      <point x="676" y="265" type="line"/>
    </contour>
    <contour>
      <point x="615" y="700" type="line"/>
      <point x="832" y="700" type="line"/>
      <point x="712" y="0" type="line"/>
      <point x="495" y="0" type="line"/>
    </contour>
    <contour>
      <point x="159" y="700" type="line"/>
      <point x="376" y="700" type="line"/>
      <point x="256" y="0" type="line"/>
      <point x="39" y="0" type="line"/>
    </contour>
  </outline>
</glyph>
<glyph name="J" format="2">
  <advance width="373"/>
  <unicode hex="004A"/>
  <outline>
    <contour>
      <point x="-112" y="-40" type="line"/>
      <point x="-90" y="-54"/>
      <point x="-64" y="-70"/>
      <point x="-38" y="-70" type="curve" smooth="yes"/>
      <point x="-2" y="-70"/>
      <point x="33" y="-40"/>
      <point x="39" y="6" type="curve" smooth="yes"/>
      <point x="159" y="700" type="line"/>
      <point x="400" y="700" type="line"/>
      <point x="272" y="-50" type="line" smooth="yes"/>
      <point x="248" y="-193"/>
      <point x="114" y="-250"/>
      <point x="-28" y="-250" type="curve" smooth="yes"/>
      <point x="-113" y="-250"/>
      <point x="-190" y="-222"/>
      <point x="-250" y="-188" type="curve"/>
    </contour>
  </outline>
</glyph>
<glyph name="M" format="2">
  <advance width="912"/>
  <unicode hex="004D"/>
  <outline>
    <contour>
      <point x="317" y="285" type="line"/>
      <point x="232" y="0" type="line"/>
      <point x="-1" y="0" type="line"/>
      <point x="252" y="735" type="line"/>
      <point x="486" y="358" type="line"/>
      <point x="858" y="740" type="line"/>
      <point x="856" y="0" type="line"/>
      <point x="626" y="0" type="line"/>
      <point x="640" y="278" type="line"/>
      <point x="443" y="64" type="line"/>
    </contour>
  </outline>
</glyph>
<glyph name="N" format="2">
  <advance width="781"/>
  <unicode hex="004E"/>
  <outline>
    <contour>
      <point x="600" y="700" type="line"/>
      <point x="808" y="700" type="line"/>
      <point x="682" y="-33" type="line"/>
      <point x="301" y="318" type="line"/>
      <point x="246" y="0" type="line"/>
      <point x="39" y="0" type="line"/>
      <point x="164" y="733" type="line"/>
      <point x="545" y="382" type="line"/>
    </contour>
  </outline>
</glyph>
<glyph name="P" format="2">
  <advance width="648"/>
  <unicode hex="0050"/>
  <outline>
    <contour>
      <point x="159" y="700" type="line"/>
      <point x="376" y="700" type="line"/>
      <point x="256" y="0" type="line"/>
      <point x="39" y="0" type="line"/>
    </contour>
    <contour>
      <point x="268" y="526" type="line"/>
      <point x="297" y="700" type="line"/>
      <point x="421" y="700" type="line"/>
      <point x="597" y="698"/>
      <point x="686" y="613"/>
      <point x="672" y="460" type="curve" smooth="yes"/>
      <point x="658" y="305"/>
      <point x="533" y="222"/>
      <point x="352" y="220" type="curve"/>
      <point x="214" y="220" type="line"/>
      <point x="245" y="395" type="line"/>
      <point x="370" y="395" type="line" smooth="yes"/>
      <point x="418" y="395"/>
      <point x="458" y="418"/>
      <point x="466" y="460" type="curve" smooth="yes"/>
      <point x="473" y="500"/>
      <point x="448" y="526"/>
      <point x="402" y="526" type="curve" smooth="yes"/>
    </contour>
  </outline>
</glyph>
<glyph name="Q" format="2">
  <advance width="881"/>
  <unicode hex="0051"/>
  <outline>
    <contour>
      <point x="289" y="350" type="curve" smooth="yes"/>
      <point x="273" y="247"/>
      <point x="324" y="159"/>
      <point x="426" y="158" type="curve" smooth="yes"/>
      <point x="524" y="157"/>
      <point x="598" y="226"/>
      <point x="616" y="320" type="curve" smooth="yes"/>
      <point x="632" y="413"/>
      <point x="597" y="520"/>
      <point x="480" y="522" type="curve" smooth="yes"/>
      <point x="382" y="523"/>
      <point x="306" y="445"/>
    </contour>
    <contour>
      <point x="60" y="350" type="curve" smooth="yes"/>
      <point x="92" y="565"/>
      <point x="284" y="720"/>
      <point x="502" y="720" type="curve" smooth="yes"/>
      <point x="719" y="720"/>
      <point x="850" y="558"/>
      <point x="820" y="350" type="curve" smooth="yes"/>
      <point x="788" y="135"/>
      <point x="612" y="-30"/>
      <point x="386" y="-30" type="curve" smooth="yes"/>
      <point x="164" y="-30"/>
      <point x="30" y="141"/>
    </contour>
    <contour>
      <point x="360" y="300" type="line"/>
      <point x="562" y="300" type="line"/>
      <point x="857" y="-20" type="line"/>
      <point x="646" y="-20" type="line"/>
    </contour>
  </outline>
</glyph>
<glyph name="R" format="2">
  <advance width="679"/>
  <unicode hex="0052"/>
  <outline>
    <contour>
      <point x="292" y="300" type="line"/>
      <point x="508" y="300" type="line"/>
      <point x="650" y="0" type="line"/>
      <point x="406" y="0" type="line"/>
    </contour>
    <contour>
      <point x="159" y="700" type="line"/>
      <point x="376" y="700" type="line"/>
      <point x="256" y="0" type="line"/>
      <point x="39" y="0" type="line"/>
    </contour>
    <contour>
      <point x="266" y="514" type="line"/>
      <point x="297" y="700" type="line"/>
      <point x="440" y="700" type="line" smooth="yes"/>
      <point x="614" y="700"/>
      <point x="710" y="606"/>
      <point x="692" y="460" type="curve" smooth="yes"/>
      <point x="674" y="312"/>
      <point x="550" y="220"/>
      <point x="370" y="220" type="curve" smooth="yes"/>
      <point x="214" y="220" type="line"/>
      <point x="244" y="385" type="line"/>
      <point x="368" y="385" type="line" smooth="yes"/>
      <point x="416" y="385"/>
      <point x="456" y="408"/>
      <point x="464" y="450" type="curve" smooth="yes"/>
      <point x="471" y="490"/>
      <point x="446" y="514"/>
      <point x="400" y="514" type="curve" smooth="yes"/>
    </contour>
  </outline>
</glyph>
<glyph name="S" format="2">
  <advance width="652"/>
  <unicode hex="0053"/>
  <outline>
    <contour>
      <point x="186" y="266" type="line"/>
      <point x="216" y="204"/>
      <point x="262" y="156"/>
      <point x="326" y="156" type="curve" smooth="yes"/>
      <point x="358" y="156"/>
      <point x="392" y="170"/>
      <point x="398" y="200" type="curve" smooth="yes"/>
      <point x="408" y="237"/>
      <point x="361" y="251"/>
      <point x="289" y="280" type="curve" smooth="yes"/>
      <point x="209" y="315"/>
      <point x="120" y="388"/>
      <point x="135" y="510" type="curve" smooth="yes"/>
      <point x="155" y="647"/>
      <point x="294" y="720"/>
      <point x="434" y="720" type="curve" smooth="yes"/>
      <point x="567" y="720"/>
      <point x="648" y="648"/>
      <point x="684" y="562" type="curve"/>
      <point x="514" y="474" type="line"/>
      <point x="489" y="516"/>
      <point x="458" y="540"/>
      <point x="418" y="540" type="curve" smooth="yes"/>
      <point x="390" y="540"/>
      <point x="360" y="530"/>
      <point x="354" y="506" type="curve" smooth="yes"/>
      <point x="343" y="462"/>
      <point x="431" y="443"/>
      <point x="485" y="423" type="curve" smooth="yes"/>
      <point x="587" y="383"/>
      <point x="640" y="304"/>
      <point x="626" y="202" type="curve" smooth="yes"/>
      <point x="604" y="51"/>
      <point x="458" y="-30"/>
      <point x="312" y="-30" type="curve" smooth="yes"/>
      <point x="176" y="-30"/>
      <point x="66" y="48"/>
      <point x="28" y="160" type="curve"/>
    </contour>
  </outline>
</glyph>
<glyph name="T" format="2">
  <advance width="601"/>
  <unicode hex="0054"/>
  <outline>
    <contour>
      <point x="57" y="505" type="line"/>
      <point x="91" y="700" type="line"/>
      <point x="696" y="700" type="line"/>
      <point x="662" y="505" type="line"/>
      <point x="468" y="505" type="line"/>
      <point x="382" y="0" type="line"/>
      <point x="165" y="0" type="line"/>
      <point x="252" y="505" type="line"/>
    </contour>
  </outline>
</glyph>
<glyph name="V" format="2">
  <advance width="756"/>
  <unicode hex="0056"/>
  <outline>
    <contour>
      <point x="415" y="362" type="line"/>
      <point x="597" y="700" type="line"/>
      <point x="856" y="700" type="line"/>
      <point x="355" y="-52" type="line"/>
      <point x="87" y="700" type="line"/>
      <point x="338" y="700" type="line"/>
    </contour>
  </outline>
</glyph>
<glyph name="W" format="2">
  <advance width="1077"/>
  <unicode hex="0057"/>
  <outline>
    <contour>
      <point x="755" y="364" type="line"/>
      <point x="908" y="700" type="line"/>
      <point x="1172" y="700" type="line"/>
      <point x="744" y="-46" type="line"/>
      <point x="571" y="301" type="line"/>
      <point x="287" y="-48" type="line"/>
      <point x="92" y="700" type="line"/>
      <point x="348" y="700" type="line"/>
      <point x="394" y="366" type="line"/>
      <point x="634" y="738" type="line"/>
    </contour>
  </outline>
</glyph>
<glyph name="X" format="2">
  <advance width="742"/>
  <unicode hex="0058"/>
  <outline>
    <contour>
      <point x="548" y="700" type="line"/>
      <point x="823" y="700" type="line"/>
      <point x="544" y="350" type="line"/>
      <point x="724" y="0" type="line"/>
      <point x="460" y="0" type="line"/>
      <point x="388" y="193" type="line"/>
      <point x="254" y="0" type="line"/>
      <point x="-22" y="0" type="line"/>
      <point x="278" y="358" type="line"/>
      <point x="116" y="700" type="line"/>
      <point x="381" y="700" type="line"/>
      <point x="437" y="534" type="line"/>
    </contour>
  </outline>
</glyph>
<glyph name="Y" format="2">
  <advance width="698"/>
  <unicode hex="0059"/>
  <outline>
    <contour>
      <point x="545" y="700" type="line"/>
      <point x="800" y="700" type="line"/>
      <point x="479" y="270" type="line"/>
      <point x="434" y="0" type="line"/>
      <point x="212" y="0" type="line"/>
      <point x="261" y="279" type="line"/>
      <point x="89" y="700" type="line"/>
      <point x="334" y="700" type="line"/>
      <point x="401" y="478" type="line"/>
    </contour>
  </outline>
</glyph>
<glyph name="Z" format="2">
  <advance width="645"/>
  <unicode hex="005A"/>
  <outline>
    <contour>
      <point x="125" y="505" type="line"/>
      <point x="159" y="700" type="line"/>
      <point x="732" y="700" type="line"/>
      <point x="346" y="186" type="line"/>
      <point x="598" y="185" type="line"/>
      <point x="566" y="0" type="line"/>
      <point x="-27" y="0" type="line"/>
      <point x="352" y="504" type="line"/>
    </contour>
  </outline>
</glyph>
<glyph name="bracketleft" format="2">
  <advance width="388"/>
  <unicode hex="005B"/>
  <outline>
    <contour>
      <point x="350" y="615" type="line"/>
      <point x="247" y="-55" type="line"/>
      <point x="345" y="-55" type="line"/>
      <point x="319" y="-220" type="line"/>
      <point x="30" y="-220" type="line"/>
      <point x="184" y="780" type="line"/>
      <point x="474" y="780" type="line"/>
      <point x="448" y="615" type="line"/>
    </contour>
  </outline>
</glyph>
<glyph name="backslash" format="2">
  <advance width="548"/>
  <unicode hex="005C"/>
  <outline>
    <contour>
      <point x="108" y="700" type="line"/>
      <point x="286" y="700" type="line"/>
      <point x="506" y="0" type="line"/>
      <point x="328" y="0" type="line"/>
    </contour>
  </outline>
</glyph>
<glyph name="bracketright" format="2">
  <advance width="388"/>
  <unicode hex="005D"/>
  <outline>
    <contour>
      <point x="90" y="-55" type="line"/>
      <point x="194" y="615" type="line"/>
      <point x="95" y="615" type="line"/>
      <point x="121" y="780" type="line"/>
      <point x="410" y="780" type="line"/>
      <point x="256" y="-220" type="line"/>
      <point x="-34" y="-220" type="line"/>
      <point x="-8" y="-55" type="line"/>
    </contour>
  </outline>
</glyph>
<glyph name="asciicircum" format="2">
  <advance width="494"/>
  <unicode hex="005E"/>
  <outline>
    <contour>
      <point x="318" y="552" type="line"/>
      <point x="241" y="440" type="line"/>
      <point x="68" y="440" type="line"/>
      <point x="279" y="710" type="line"/>
      <point x="398" y="710" type="line"/>
      <point x="517" y="440" type="line"/>
      <point x="355" y="440" type="line"/>
    </contour>
  </outline>
</glyph>
<glyph name="underscore" format="2">
  <advance width="533"/>
  <unicode hex="005F"/>
  <outline>
    <contour>
      <point x="-58" y="-166" type="line"/>
      <point x="-36" y="-45" type="line"/>
      <point x="501" y="-45" type="line"/>
      <point x="480" y="-166" type="line"/>
    </contour>
  </outline>
</glyph>
<glyph name="grave" format="2">
  <advance width="363"/>
  <unicode hex="0060"/>
  <outline>
    <contour>
      <point x="122" y="653" type="line"/>
      <point x="264" y="710" type="line"/>
      <point x="387" y="547" type="line"/>
      <point x="278" y="500" type="line"/>
    </contour>
  </outline>
</glyph>
<glyph name="b" format="2">
  <advance width="625"/>
  <unicode hex="0062"/>
  <outline>
    <contour>
      <point x="346" y="780" type="line"/>
      <point x="212" y="0" type="line"/>
      <point x="20" y="0" type="line"/>
      <point x="153" y="780" type="line"/>
    </contour>
    <contour>
      <point x="610" y="230" type="curve" smooth="yes"/>
      <point x="592" y="92"/>
      <point x="486" y="-10"/>
      <point x="368" y="-10" type="curve" smooth="yes"/>
      <point x="244" y="-10"/>
      <point x="189" y="104"/>
      <point x="205" y="230" type="curve" smooth="yes"/>
      <point x="223" y="362"/>
      <point x="316" y="470"/>
      <point x="438" y="470" type="curve" smooth="yes"/>
      <point x="556" y="470"/>
      <point x="626" y="363"/>
    </contour>
    <contour>
      <point x="409" y="230" type="curve" smooth="yes"/>
      <point x="415" y="272"/>
      <point x="394" y="318"/>
      <point x="349" y="320" type="curve" smooth="yes"/>
      <point x="305" y="322"/>
      <point x="260" y="278"/>
      <point x="252" y="230" type="curve" smooth="yes"/>
      <point x="246" y="185"/>
      <point x="268" y="142"/>
      <point x="310" y="140" type="curve" smooth="yes"/>
      <point x="356" y="138"/>
      <point x="401" y="184"/>
    </contour>
  </outline>
</glyph>
<glyph name="c" format="2">
  <advance width="480"/>
  <unicode hex="0063"/>
  <outline>
    <contour>
      <point x="236" y="230" type="curve" smooth="yes"/>
      <point x="228" y="176"/>
      <point x="264" y="141"/>
      <point x="316" y="139" type="curve" smooth="yes"/>
      <point x="364" y="137"/>
      <point x="409" y="161"/>
      <point x="444" y="196" type="curve"/>
      <point x="422" y="21" type="line"/>
      <point x="384" y="3"/>
      <point x="343" y="-10"/>
      <point x="283" y="-10" type="curve" smooth="yes"/>
      <point x="131" y="-10"/>
      <point x="20" y="84"/>
      <point x="39" y="230" type="curve" smooth="yes"/>
      <point x="59" y="378"/>
      <point x="191" y="470"/>
      <point x="347" y="470" type="curve" smooth="yes"/>
      <point x="407" y="470"/>
      <point x="445" y="456"/>
      <point x="483" y="440" type="curve"/>
      <point x="459" y="264" type="line"/>
      <point x="432" y="302"/>
      <point x="391" y="322"/>
      <point x="353" y="322" type="curve" smooth="yes"/>
      <point x="294" y="322"/>
      <point x="245" y="281"/>
    </contour>
  </outline>
</glyph>
<glyph name="e" format="2">
  <advance width="591"/>
  <unicode hex="0065"/>
  <outline>
    <contour>
      <point x="298" y="-10" type="curve" smooth="yes"/>
      <point x="142" y="-10"/>
      <point x="42" y="70"/>
      <point x="42" y="200" type="curve" smooth="yes"/>
      <point x="42" y="357"/>
      <point x="167" y="470"/>
      <point x="353" y="470" type="curve" smooth="yes"/>
      <point x="507" y="470"/>
      <point x="584" y="389"/>
      <point x="584" y="264" type="curve" smooth="yes"/>
      <point x="584" y="241"/>
      <point x="580" y="214"/>
      <point x="573" y="190" type="curve"/>
      <point x="136" y="190" type="line"/>
      <point x="136" y="284" type="line"/>
      <point x="412" y="284" type="line"/>
      <point x="374" y="238" type="line"/>
      <point x="382" y="250"/>
      <point x="388" y="264"/>
      <point x="388" y="274" type="curve" smooth="yes"/>
      <point x="388" y="322"/>
      <point x="373" y="350"/>
      <point x="333" y="350" type="curve" smooth="yes"/>
      <point x="279" y="350"/>
      <point x="257" y="314"/>
      <point x="237" y="230" type="curve" smooth="yes"/>
      <point x="221" y="163"/>
      <point x="249" y="120"/>
      <point x="303" y="120" type="curve" smooth="yes"/>
      <point x="346" y="120"/>
      <point x="373" y="135"/>
      <point x="394" y="165" type="curve"/>
      <point x="567" y="137" type="line"/>
      <point x="517" y="38"/>
      <point x="426" y="-10"/>
    </contour>
  </outline>
</glyph>
<glyph name="f" format="2">
  <advance width="367"/>
  <unicode hex="0066"/>
  <outline>
    <contour>
      <point x="55" y="460" type="line"/>
      <point x="412" y="460" type="line"/>
      <point x="386" y="305" type="line"/>
      <point x="28" y="305" type="line"/>
    </contour>
    <contour>
      <point x="418" y="606" type="line"/>
      <point x="408" y="619"/>
      <point x="398" y="630"/>
      <point x="380" y="630" type="curve" smooth="yes"/>
      <point x="350" y="630"/>
      <point x="326" y="604"/>
      <point x="322" y="574" type="curve" smooth="yes"/>
      <point x="222" y="0" type="line"/>
      <point x="39" y="0" type="line"/>
      <point x="146" y="630" type="line" smooth="yes"/>
      <point x="165" y="730"/>
      <point x="242" y="800"/>
      <point x="364" y="800" type="curve" smooth="yes"/>
      <point x="433" y="800"/>
      <point x="475" y="770"/>
      <point x="507" y="742" type="curve"/>
    </contour>
  </outline>
</glyph>
<glyph name="h" format="2">
  <advance width="577"/>
  <unicode hex="0068"/>
  <outline>
    <contour>
      <point x="346" y="780" type="line"/>
      <point x="212" y="0" type="line"/>
      <point x="20" y="0" type="line"/>
      <point x="153" y="780" type="line"/>
    </contour>
    <contour>
      <point x="361" y="280" type="line" smooth="yes"/>
      <point x="365" y="311"/>
      <point x="366" y="341"/>
      <point x="330" y="345" type="curve" smooth="yes"/>
      <point x="294" y="349"/>
      <point x="268" y="314"/>
      <point x="260" y="280" type="curve"/>
      <point x="232" y="281" type="line"/>
      <point x="250" y="385"/>
      <point x="305" y="480"/>
      <point x="425" y="481" type="curve" smooth="yes"/>
      <point x="542" y="482"/>
      <point x="571" y="410"/>
      <point x="556" y="310" type="curve" smooth="yes"/>
      <point x="503" y="0" type="line"/>
      <point x="310" y="0" type="line"/>
    </contour>
  </outline>
</glyph>
<glyph name="i" format="2">
  <advance width="277"/>
  <unicode hex="0069"/>
  <outline>
    <contour>
      <point x="110" y="622" type="curve" smooth="yes"/>
      <point x="110" y="681"/>
      <point x="158" y="720"/>
      <point x="218" y="720" type="curve" smooth="yes"/>
      <point x="278" y="720"/>
      <point x="326" y="681"/>
      <point x="326" y="622" type="curve" smooth="yes"/>
      <point x="326" y="563"/>
      <point x="278" y="524"/>
      <point x="218" y="524" type="curve" smooth="yes"/>
      <point x="158" y="524"/>
      <point x="110" y="563"/>
    </contour>
    <contour>
      <point x="98" y="460" type="line"/>
      <point x="282" y="460" type="line"/>
      <point x="204" y="0" type="line"/>
      <point x="18" y="0" type="line"/>
    </contour>
  </outline>
</glyph>
<glyph name="j" format="2">
  <advance width="276"/>
  <unicode hex="006A"/>
  <outline>
    <contour>
      <point x="110" y="622" type="curve" smooth="yes"/>
      <point x="110" y="681"/>
      <point x="158" y="720"/>
      <point x="218" y="720" type="curve" smooth="yes"/>
      <point x="278" y="720"/>
      <point x="326" y="681"/>
      <point x="326" y="622" type="curve" smooth="yes"/>
      <point x="326" y="563"/>
      <point x="278" y="524"/>
      <point x="218" y="524" type="curve" smooth="yes"/>
      <point x="158" y="524"/>
      <point x="110" y="563"/>
    </contour>
    <contour>
      <point x="-83" y="-56" type="line"/>
      <point x="-73" y="-69"/>
      <point x="-59" y="-80"/>
      <point x="-39" y="-80" type="curve" smooth="yes"/>
      <point x="-9" y="-80"/>
      <point x="10" y="-54"/>
      <point x="14" y="-24" type="curve" smooth="yes"/>
      <point x="98" y="460" type="line"/>
      <point x="282" y="460" type="line"/>
      <point x="190" y="-80" type="line" smooth="yes"/>
      <point x="171" y="-180"/>
      <point x="94" y="-250"/>
      <point x="-28" y="-250" type="curve" smooth="yes"/>
      <point x="-97" y="-250"/>
      <point x="-140" y="-220"/>
      <point x="-172" y="-192" type="curve"/>
    </contour>
  </outline>
</glyph>
<glyph name="k" format="2">
  <advance width="640"/>
  <unicode hex="006B"/>
  <outline>
    <contour>
      <point x="153" y="780" type="line"/>
      <point x="336" y="780" type="line"/>
      <point x="202" y="0" type="line"/>
      <point x="20" y="0" type="line"/>
    </contour>
    <contour>
      <point x="436" y="460" type="line"/>
      <point x="668" y="460" type="line"/>
      <point x="440" y="266" type="line"/>
      <point x="601" y="0" type="line"/>
      <point x="388" y="0" type="line"/>
      <point x="219" y="275" type="line"/>
    </contour>
  </outline>
</glyph>
<glyph name="m" format="2">
  <advance width="820"/>
  <unicode hex="006D"/>
  <outline>
    <contour>
      <point x="796" y="300" type="curve" smooth="yes"/>
      <point x="746" y="0" type="line"/>
      <point x="553" y="0" type="line"/>
      <point x="604" y="280" type="line" smooth="yes"/>
      <point x="606" y="309"/>
      <point x="607" y="345"/>
      <point x="578" y="345" type="curve" smooth="yes"/>
      <point x="550" y="345"/>
      <point x="528" y="322"/>
      <point x="521" y="280" type="curve" smooth="yes"/>
      <point x="474" y="0" type="line"/>
      <point x="281" y="0" type="line"/>
      <point x="332" y="280" type="line" smooth="yes"/>
      <point x="334" y="309"/>
      <point x="334" y="345"/>
      <point x="306" y="345" type="curve" smooth="yes"/>
      <point x="280" y="345"/>
      <point x="258" y="323"/>
      <point x="252" y="284" type="curve" smooth="yes"/>
      <point x="202" y="0" type="line"/>
      <point x="20" y="0" type="line"/>
      <point x="98" y="460" type="line"/>
      <point x="282" y="460" type="line"/>
      <point x="272" y="398" type="line"/>
      <point x="302" y="442"/>
      <point x="347" y="471"/>
      <point x="409" y="471" type="curve" smooth="yes"/>
      <point x="481" y="471"/>
      <point x="514" y="444"/>
      <point x="525" y="398" type="curve"/>
      <point x="563" y="442"/>
      <point x="616" y="471"/>
      <point x="680" y="471" type="curve" smooth="yes"/>
      <point x="791" y="471"/>
      <point x="808" y="396"/>
    </contour>
  </outline>
</glyph>
<glyph name="n" format="2">
  <advance width="587"/>
  <unicode hex="006E"/>
  <outline>
    <contour>
      <point x="361" y="280" type="line" smooth="yes"/>
      <point x="365" y="311"/>
      <point x="365" y="345"/>
      <point x="324" y="345" type="curve" smooth="yes"/>
      <point x="289" y="345"/>
      <point x="266" y="322"/>
      <point x="260" y="281" type="curve" smooth="yes"/>
      <point x="212" y="0" type="line"/>
      <point x="20" y="0" type="line"/>
      <point x="98" y="460" type="line"/>
      <point x="291" y="460" type="line"/>
      <point x="282" y="398" type="line"/>
      <point x="312" y="441"/>
      <point x="357" y="471"/>
      <point x="423" y="471" type="curve" smooth="yes"/>
      <point x="539" y="472"/>
      <point x="580" y="400"/>
      <point x="564" y="300" type="curve" smooth="yes"/>
      <point x="513" y="0" type="line"/>
      <point x="310" y="0" type="line"/>
    </contour>
  </outline>
</glyph>
<glyph name="o" format="2">
  <advance width="597"/>
  <unicode hex="006F"/>
  <outline>
    <contour>
      <point x="46" y="230" type="curve" smooth="yes"/>
      <point x="65" y="376"/>
      <point x="196" y="471"/>
      <point x="348" y="471" type="curve" smooth="yes"/>
      <point x="497" y="471"/>
      <point x="606" y="374"/>
      <point x="588" y="230" type="curve" smooth="yes"/>
      <point x="569" y="84"/>
      <point x="438" y="-10"/>
      <point x="286" y="-10" type="curve" smooth="yes"/>
      <point x="138" y="-10"/>
      <point x="28" y="86"/>
    </contour>
    <contour>
      <point x="243" y="230" type="curve" smooth="yes"/>
      <point x="237" y="185"/>
      <point x="258" y="148"/>
      <point x="300" y="146" type="curve" smooth="yes"/>
      <point x="343" y="144"/>
      <point x="385" y="182"/>
      <point x="392" y="230" type="curve" smooth="yes"/>
      <point x="398" y="275"/>
      <point x="376" y="314"/>
      <point x="334" y="316" type="curve" smooth="yes"/>
      <point x="291" y="318"/>
      <point x="250" y="278"/>
    </contour>
  </outline>
</glyph>
<glyph name="p" format="2">
  <advance width="625"/>
  <unicode hex="0070"/>
  <outline>
    <contour>
      <point x="174" y="-220" type="line"/>
      <point x="-18" y="-220" type="line"/>
      <point x="98" y="460" type="line"/>
      <point x="291" y="460" type="line"/>
    </contour>
    <contour>
      <point x="610" y="230" type="curve" smooth="yes"/>
      <point x="592" y="86"/>
      <point x="486" y="-20"/>
      <point x="366" y="-20" type="curve" smooth="yes"/>
      <point x="234" y="-20"/>
      <point x="199" y="105"/>
      <point x="215" y="230" type="curve" smooth="yes"/>
      <point x="233" y="362"/>
      <point x="309" y="480"/>
      <point x="439" y="480" type="curve" smooth="yes"/>
      <point x="560" y="480"/>
      <point x="626" y="368"/>
    </contour>
    <contour>
      <point x="409" y="231" type="curve" smooth="yes"/>
      <point x="415" y="275"/>
      <point x="392" y="308"/>
      <point x="348" y="310" type="curve" smooth="yes"/>
      <point x="306" y="312"/>
      <point x="259" y="277"/>
      <point x="252" y="229" type="curve" smooth="yes"/>
      <point x="246" y="183"/>
      <point x="271" y="152"/>
      <point x="312" y="150" type="curve" smooth="yes"/>
      <point x="357" y="148"/>
      <point x="402" y="185"/>
    </contour>
  </outline>
</glyph>
<glyph name="q" format="2">
  <advance width="625"/>
  <unicode hex="0071"/>
  <outline>
    <contour>
      <point x="322" y="-220" type="line"/>
      <point x="438" y="460" type="line"/>
      <point x="631" y="460" type="line"/>
      <point x="514" y="-220" type="line"/>
    </contour>
    <contour>
      <point x="40" y="230" type="curve" smooth="yes"/>
      <point x="58" y="374"/>
      <point x="164" y="480"/>
      <point x="284" y="480" type="curve" smooth="yes"/>
      <point x="416" y="480"/>
      <point x="452" y="355"/>
      <point x="436" y="230" type="curve" smooth="yes"/>
      <point x="418" y="98"/>
      <point x="342" y="-20"/>
      <point x="212" y="-20" type="curve" smooth="yes"/>
      <point x="91" y="-20"/>
      <point x="24" y="92"/>
    </contour>
    <contour>
      <point x="242" y="229" type="curve" smooth="yes"/>
      <point x="236" y="185"/>
      <point x="259" y="152"/>
      <point x="303" y="150" type="curve" smooth="yes"/>
      <point x="345" y="148"/>
      <point x="391" y="183"/>
      <point x="398" y="231" type="curve" smooth="yes"/>
      <point x="404" y="277"/>
      <point x="379" y="308"/>
      <point x="338" y="310" type="curve" smooth="yes"/>
      <point x="293" y="312"/>
      <point x="249" y="275"/>
    </contour>
  </outline>
</glyph>
<glyph name="r" format="2">
  <advance width="444"/>
  <unicode hex="0072"/>
  <outline>
    <contour>
      <point x="286" y="460" type="line"/>
      <point x="207" y="0" type="line"/>
      <point x="20" y="0" type="line"/>
      <point x="98" y="460" type="line"/>
    </contour>
    <contour>
      <point x="386" y="262" type="line"/>
      <point x="374" y="276"/>
      <point x="359" y="290"/>
      <point x="336" y="290" type="curve" smooth="yes"/>
      <point x="292" y="291"/>
      <point x="246" y="246"/>
      <point x="240" y="194" type="curve"/>
      <point x="227" y="281" type="line"/>
      <point x="244" y="377"/>
      <point x="330" y="472"/>
      <point x="410" y="472" type="curve" smooth="yes"/>
      <point x="444" y="472"/>
      <point x="471" y="452"/>
      <point x="487" y="428" type="curve"/>
    </contour>
  </outline>
</glyph>
<glyph name="s" format="2">
  <advance width="473"/>
  <unicode hex="0073"/>
  <outline>
    <contour>
      <point x="82" y="182" type="line"/>
      <point x="148" y="132"/>
      <point x="200" y="106"/>
      <point x="236" y="110" type="curve" smooth="yes"/>
      <point x="252" y="111"/>
      <point x="268" y="121"/>
      <point x="270" y="134" type="curve" smooth="yes"/>
      <point x="274" y="160"/>
      <point x="243" y="168"/>
      <point x="190" y="186" type="curve" smooth="yes"/>
      <point x="124" y="210"/>
      <point x="74" y="253"/>
      <point x="84" y="334" type="curve" smooth="yes"/>
      <point x="96" y="423"/>
      <point x="180" y="470"/>
      <point x="281" y="470" type="curve" smooth="yes"/>
      <point x="358" y="470"/>
      <point x="423" y="445"/>
      <point x="488" y="414" type="curve"/>
      <point x="424" y="283" type="line"/>
      <point x="386" y="317"/>
      <point x="336" y="346"/>
      <point x="294" y="346" type="curve" smooth="yes"/>
      <point x="276" y="346"/>
      <point x="258" y="338"/>
      <point x="256" y="326" type="curve" smooth="yes"/>
      <point x="250" y="296"/>
      <point x="302" y="288"/>
      <point x="352" y="270" type="curve" smooth="yes"/>
      <point x="415" y="246"/>
      <point x="466" y="208"/>
      <point x="458" y="130" type="curve" smooth="yes"/>
      <point x="446" y="26"/>
      <point x="369" y="-23"/>
      <point x="261" y="-24" type="curve" smooth="yes"/>
      <point x="165" y="-25"/>
      <point x="84" y="4"/>
      <point x="4" y="48" type="curve"/>
    </contour>
  </outline>
</glyph>
<glyph name="t" format="2">
  <advance width="354"/>
  <unicode hex="0074"/>
  <outline>
    <contour>
      <point x="55" y="460" type="line"/>
      <point x="403" y="460" type="line"/>
      <point x="376" y="305" type="line"/>
      <point x="28" y="305" type="line"/>
    </contour>
    <contour>
      <point x="164" y="620" type="line"/>
      <point x="348" y="620" type="line"/>
      <point x="241" y="0" type="line"/>
      <point x="58" y="0" type="line"/>
    </contour>
  </outline>
</glyph>
<glyph name="u" format="2">
  <advance width="587"/>
  <unicode hex="0075"/>
  <outline>
    <contour>
      <point x="250" y="180" type="line" smooth="yes"/>
      <point x="246" y="149"/>
      <point x="246" y="115"/>
      <point x="282" y="115" type="curve" smooth="yes"/>
      <point x="316" y="115"/>
      <point x="342" y="133"/>
      <point x="350" y="178" type="curve" smooth="yes"/>
      <point x="400" y="460" type="line"/>
      <point x="592" y="460" type="line"/>
      <point x="513" y="0" type="line"/>
      <point x="320" y="0" type="line"/>
      <point x="330" y="62" type="line"/>
      <point x="300" y="19"/>
      <point x="254" y="-11"/>
      <point x="188" y="-11" type="curve" smooth="yes"/>
      <point x="71" y="-11"/>
      <point x="35" y="58"/>
      <point x="48" y="160" type="curve"/>
      <point x="98" y="460" type="line"/>
      <point x="301" y="460" type="line"/>
    </contour>
  </outline>
</glyph>
<glyph name="v" format="2">
  <advance width="562"/>
  <unicode hex="0076"/>
  <outline>
    <contour>
      <point x="50" y="460" type="line"/>
      <point x="250" y="460" type="line"/>
      <point x="302" y="251" type="line"/>
      <point x="422" y="460" type="line"/>
      <point x="626" y="460" type="line"/>
      <point x="256" y="-68" type="line"/>
    </contour>
  </outline>
</glyph>
<glyph name="w" format="2">
  <advance width="786"/>
  <unicode hex="0077"/>
  <outline>
    <contour>
      <point x="38" y="460" type="line"/>
      <point x="230" y="460" type="line"/>
      <point x="277" y="267" type="line"/>
      <point x="449" y="498" type="line"/>
      <point x="540" y="265" type="line"/>
      <point x="654" y="460" type="line"/>
      <point x="856" y="460" type="line"/>
      <point x="519" y="-27" type="line"/>
      <point x="405" y="208" type="line"/>
      <point x="208" y="-28" type="line"/>
    </contour>
  </outline>
</glyph>
<glyph name="x" format="2">
  <advance width="582"/>
  <unicode hex="0078"/>
  <outline>
    <contour>
      <point x="414" y="460" type="line"/>
      <point x="631" y="460" type="line"/>
      <point x="408" y="232" type="line"/>
      <point x="563" y="0" type="line"/>
      <point x="358" y="0" type="line"/>
      <point x="292" y="112" type="line"/>
      <point x="205" y="0" type="line"/>
      <point x="-22" y="0" type="line"/>
      <point x="211" y="245" type="line"/>
      <point x="66" y="460" type="line"/>
      <point x="280" y="460" type="line"/>
      <point x="331" y="365" type="line"/>
    </contour>
  </outline>
</glyph>
<glyph name="z" format="2">
  <advance width="543"/>
  <unicode hex="007A"/>
  <outline>
    <contour>
      <point x="240" y="286" type="line"/>
      <point x="82" y="286" type="line"/>
      <point x="113" y="460" type="line"/>
      <point x="585" y="460" type="line"/>
      <point x="346" y="174" type="line"/>
      <point x="495" y="174" type="line"/>
      <point x="464" y="0" type="line"/>
      <point x="-18" y="0" type="line"/>
    </contour>
  </outline>
</glyph>
<glyph name="braceleft" format="2">
  <advance width="437"/>
  <unicode hex="007B"/>
  <outline>
    <contour>
      <point x="384" y="580" type="curve" smooth="yes"/>
      <point x="370" y="490" type="line" smooth="yes"/>
      <point x="351" y="386"/>
      <point x="319" y="288"/>
      <point x="176" y="280" type="curve"/>
      <point x="178" y="300" type="line"/>
      <point x="318" y="290"/>
      <point x="322" y="186"/>
      <point x="306" y="90" type="curve" smooth="yes"/>
      <point x="291" y="0" type="line" smooth="yes"/>
      <point x="287" y="-27"/>
      <point x="298" y="-50"/>
      <point x="328" y="-50" type="curve" smooth="yes"/>
      <point x="364" y="-50" type="line"/>
      <point x="342" y="-200" type="line"/>
      <point x="240" y="-200" type="line" smooth="yes"/>
      <point x="146" y="-198"/>
      <point x="53" y="-158"/>
      <point x="68" y="-60" type="curve" smooth="yes"/>
      <point x="94" y="110" type="line" smooth="yes"/>
      <point x="102" y="174"/>
      <point x="95" y="201"/>
      <point x="45" y="220" type="curve"/>
      <point x="65" y="360" type="line"/>
      <point x="117" y="376"/>
      <point x="138" y="404"/>
      <point x="148" y="470" type="curve" smooth="yes"/>
      <point x="174" y="640" type="line" smooth="yes"/>
      <point x="189" y="738"/>
      <point x="280" y="778"/>
      <point x="380" y="780" type="curve"/>
      <point x="494" y="780" type="line"/>
      <point x="472" y="630" type="line"/>
      <point x="439" y="630" type="line" smooth="yes"/>
      <point x="409" y="630"/>
      <point x="388" y="608"/>
    </contour>
  </outline>
</glyph>
<glyph name="braceright" format="2">
  <advance width="437"/>
  <unicode hex="007D"/>
  <outline>
    <contour>
      <point x="110" y="0" type="curve" smooth="yes"/>
      <point x="124" y="90" type="line" smooth="yes"/>
      <point x="143" y="194"/>
      <point x="173" y="292"/>
      <point x="316" y="300" type="curve"/>
      <point x="314" y="280" type="line"/>
      <point x="174" y="290"/>
      <point x="171" y="394"/>
      <point x="187" y="490" type="curve" smooth="yes"/>
      <point x="202" y="580" type="line" smooth="yes"/>
      <point x="206" y="606"/>
      <point x="193" y="630"/>
      <point x="164" y="630" type="curve" smooth="yes"/>
      <point x="128" y="630" type="line"/>
      <point x="150" y="780" type="line"/>
      <point x="253" y="780" type="line" smooth="yes"/>
      <point x="347" y="778"/>
      <point x="439" y="738"/>
      <point x="424" y="640" type="curve" smooth="yes"/>
      <point x="398" y="470" type="line" smooth="yes"/>
      <point x="390" y="406"/>
      <point x="398" y="379"/>
      <point x="448" y="360" type="curve"/>
      <point x="428" y="220" type="line"/>
      <point x="376" y="204"/>
      <point x="354" y="176"/>
      <point x="344" y="110" type="curve" smooth="yes"/>
      <point x="319" y="-60" type="line" smooth="yes"/>
      <point x="305" y="-158"/>
      <point x="212" y="-198"/>
      <point x="112" y="-200" type="curve"/>
      <point x="-2" y="-200" type="line"/>
      <point x="20" y="-50" type="line"/>
      <point x="54" y="-50" type="line" smooth="yes"/>
      <point x="84" y="-50"/>
      <point x="106" y="-28"/>
    </contour>
  </outline>
</glyph>
<glyph name="asciitilde" format="2">
  <advance width="558"/>
  <unicode hex="007E"/>
  <outline>
    <contour>
      <point x="170" y="155" type="curve"/>
      <point x="26" y="161" type="line"/>
      <point x="25" y="169"/>
      <point x="25" y="178"/>
      <point x="26" y="186" type="curve" smooth="yes"/>
      <point x="30" y="227"/>
      <point x="46" y="263"/>
      <point x="74" y="295" type="curve" smooth="yes"/>
      <point x="108" y="331"/>
      <point x="151" y="358"/>
      <point x="220" y="357" type="curve" smooth="yes"/>
      <point x="265" y="357"/>
      <point x="296" y="337"/>
      <point x="337" y="308" type="curve" smooth="yes"/>
      <point x="359" y="292"/>
      <point x="379" y="272"/>
      <point x="398" y="272" type="curve" smooth="yes"/>
      <point x="415" y="272"/>
      <point x="429" y="292"/>
      <point x="432" y="306" type="curve" smooth="yes"/>
      <point x="434" y="318"/>
      <point x="432" y="333"/>
      <point x="430" y="344" type="curve"/>
      <point x="574" y="338" type="line"/>
      <point x="575" y="329"/>
      <point x="575" y="320"/>
      <point x="574" y="310" type="curve" smooth="yes"/>
      <point x="570" y="270"/>
      <point x="556" y="230"/>
      <point x="528" y="198" type="curve" smooth="yes"/>
      <point x="498" y="164"/>
      <point x="459" y="142"/>
      <point x="402" y="142" type="curve" smooth="yes"/>
      <point x="359" y="142"/>
      <point x="324" y="165"/>
      <point x="282" y="194" type="curve" smooth="yes"/>
      <point x="258" y="211"/>
      <point x="235" y="229"/>
      <point x="211" y="228" type="curve" smooth="yes"/>
      <point x="185" y="227"/>
      <point x="172" y="204"/>
      <point x="168" y="188" type="curve" smooth="yes"/>
      <point x="166" y="174"/>
      <point x="168" y="165"/>
    </contour>
  </outline>
</glyph>
<glyph name="cent" format="2">
  <advance width="562"/>
  <unicode hex="00A2"/>
  <outline>
    <contour>
      <point x="182" y="38" type="line"/>
      <point x="320" y="38" type="line"/>
      <point x="308" y="-112" type="line"/>
      <point x="140" y="-112" type="line"/>
    </contour>
    <contour>
      <point x="237" y="230" type="curve" smooth="yes"/>
      <point x="228" y="174"/>
      <point x="266" y="141"/>
      <point x="316" y="139" type="curve" smooth="yes"/>
      <point x="368" y="137"/>
      <point x="410" y="168"/>
      <point x="446" y="198" type="curve"/>
      <point x="420" y="19" type="line"/>
      <point x="382" y="1"/>
      <point x="338" y="-10"/>
      <point x="282" y="-10" type="curve" smooth="yes"/>
      <point x="130" y="-10"/>
      <point x="19" y="84"/>
      <point x="40" y="230" type="curve" smooth="yes"/>
      <point x="62" y="378"/>
      <point x="196" y="470"/>
      <point x="352" y="470" type="curve" smooth="yes"/>
      <point x="407" y="470"/>
      <point x="450" y="458"/>
      <point x="488" y="440" type="curve"/>
      <point x="462" y="261" type="line"/>
      <point x="436" y="295"/>
      <point x="406" y="322"/>
      <point x="357" y="322" type="curve" smooth="yes"/>
      <point x="305" y="322"/>
      <point x="247" y="284"/>
    </contour>
    <contour>
      <point x="260" y="578" type="line"/>
      <point x="428" y="578" type="line"/>
      <point x="386" y="428" type="line"/>
      <point x="248" y="428" type="line"/>
    </contour>
  </outline>
</glyph>
<glyph name="sterling" format="2">
  <advance width="611"/>
  <unicode hex="00A3"/>
  <outline>
    <contour>
      <point x="100" y="370" type="line"/>
      <point x="482" y="370" type="line"/>
      <point x="461" y="255" type="line"/>
      <point x="79" y="255" type="line"/>
    </contour>
    <contour>
      <point x="466" y="460" type="line"/>
      <point x="466" y="502"/>
      <point x="460" y="545"/>
      <point x="402" y="546" type="curve" smooth="yes"/>
      <point x="362" y="547"/>
      <point x="324" y="521"/>
      <point x="316" y="480" type="curve" smooth="yes"/>
      <point x="301" y="414"/>
      <point x="379" y="365"/>
      <point x="369" y="274" type="curve" smooth="yes"/>
      <point x="352" y="160"/>
      <point x="202" y="77"/>
      <point x="110" y="52" type="curve"/>
      <point x="206" y="174" type="line"/>
      <point x="540" y="175" type="line"/>
      <point x="510" y="0" type="line"/>
      <point x="16" y="0" type="line"/>
      <point x="108" y="97"/>
      <point x="174" y="192"/>
      <point x="192" y="309" type="curve" smooth="yes"/>
      <point x="203" y="395"/>
      <point x="114" y="432"/>
      <point x="124" y="524" type="curve" smooth="yes"/>
      <point x="140" y="646"/>
      <point x="281" y="710"/>
      <point x="409" y="710" type="curve" smooth="yes"/>
      <point x="549" y="710"/>
      <point x="650" y="628"/>
      <point x="648" y="522" type="curve"/>
    </contour>
  </outline>
</glyph>
<glyph name="currency" format="2">
  <advance width="558"/>
  <unicode hex="00A4"/>
  <outline>
    <contour>
      <point x="72" y="505" type="line"/>
      <point x="150" y="574" type="line"/>
      <point x="235" y="464" type="line"/>
      <point x="162" y="400" type="line"/>
    </contour>
    <contour>
      <point x="64" y="27" type="line"/>
      <point x="4" y="102" type="line"/>
      <point x="120" y="200" type="line"/>
      <point x="179" y="128" type="line"/>
    </contour>
    <contour>
      <point x="489" y="400" type="line"/>
      <point x="428" y="474" type="line"/>
      <point x="544" y="574" type="line"/>
      <point x="604" y="500" type="line"/>
    </contour>
    <contour>
      <point x="370" y="133" type="line"/>
      <point x="448" y="200" type="line"/>
      <point x="532" y="92" type="line"/>
      <point x="459" y="28" type="line"/>
    </contour>
    <contour>
      <point x="71" y="300" type="curve" smooth="yes"/>
      <point x="89" y="432"/>
      <point x="202" y="540"/>
      <point x="338" y="540" type="curve" smooth="yes"/>
      <point x="472" y="540"/>
      <point x="554" y="428"/>
      <point x="536" y="300" type="curve" smooth="yes"/>
      <point x="518" y="168"/>
      <point x="404" y="60"/>
      <point x="268" y="60" type="curve" smooth="yes"/>
      <point x="134" y="60"/>
      <point x="53" y="172"/>
    </contour>
    <contour>
      <point x="238" y="299" type="curve" smooth="yes"/>
      <point x="232" y="264"/>
      <point x="251" y="237"/>
      <point x="288" y="236" type="curve" smooth="yes"/>
      <point x="326" y="234"/>
      <point x="362" y="264"/>
      <point x="368" y="301" type="curve" smooth="yes"/>
      <point x="374" y="336"/>
      <point x="355" y="363"/>
      <point x="318" y="364" type="curve" smooth="yes"/>
      <point x="280" y="366"/>
      <point x="244" y="336"/>
    </contour>
  </outline>
</glyph>
<glyph name="yen" format="2">
  <advance width="701"/>
  <unicode hex="00A5"/>
  <outline>
    <contour>
      <point x="57" y="250" type="line"/>
      <point x="78" y="365" type="line"/>
      <point x="692" y="365" type="line"/>
      <point x="672" y="250" type="line"/>
    </contour>
    <contour>
      <point x="32" y="100" type="line"/>
      <point x="52" y="215" type="line"/>
      <point x="667" y="215" type="line"/>
      <point x="646" y="100" type="line"/>
    </contour>
    <contour>
      <point x="546" y="700" type="line"/>
      <point x="800" y="700" type="line"/>
      <point x="480" y="271" type="line"/>
      <point x="434" y="0" type="line"/>
      <point x="212" y="0" type="line"/>
      <point x="261" y="279" type="line"/>
      <point x="89" y="700" type="line"/>
      <point x="334" y="700" type="line"/>
      <point x="401" y="478" type="line"/>
    </contour>
  </outline>
</glyph>
<glyph name="brokenbar" format="2">
  <advance width="388"/>
  <unicode hex="00A6"/>
  <outline>
    <contour>
      <point x="188" y="695" type="line"/>
      <point x="385" y="695" type="line"/>
      <point x="336" y="415" type="line"/>
      <point x="138" y="415" type="line"/>
    </contour>
    <contour>
      <point x="315" y="285" type="line"/>
      <point x="266" y="5" type="line"/>
      <point x="68" y="5" type="line"/>
      <point x="118" y="285" type="line"/>
    </contour>
  </outline>
</glyph>
<glyph name="section" format="2">
  <advance width="658"/>
  <unicode hex="00A7"/>
  <outline>
    <contour>
      <point x="510" y="532" type="line"/>
      <point x="482" y="556"/>
      <point x="443" y="577"/>
      <point x="412" y="577" type="curve" smooth="yes"/>
      <point x="391" y="577"/>
      <point x="366" y="567"/>
      <point x="365" y="555" type="curve" smooth="yes"/>
      <point x="364" y="535"/>
      <point x="413" y="536"/>
      <point x="447" y="528" type="curve" smooth="yes"/>
      <point x="523" y="510"/>
      <point x="576" y="456"/>
      <point x="566" y="382" type="curve" smooth="yes"/>
      <point x="549" y="270"/>
      <point x="415" y="226"/>
      <point x="305" y="223" type="curve"/>
      <point x="312" y="268" type="line"/>
      <point x="344" y="280"/>
      <point x="386" y="295"/>
      <point x="392" y="334" type="curve" smooth="yes"/>
      <point x="402" y="390"/>
      <point x="326" y="405"/>
      <point x="282" y="424" type="curve" smooth="yes"/>
      <point x="225" y="449"/>
      <point x="179" y="496"/>
      <point x="188" y="572" type="curve" smooth="yes"/>
      <point x="202" y="678"/>
      <point x="314" y="732"/>
      <point x="413" y="732" type="curve" smooth="yes"/>
      <point x="490" y="732"/>
      <point x="560" y="705"/>
      <point x="602" y="663" type="curve"/>
    </contour>
    <contour>
      <point x="142" y="180" type="line"/>
      <point x="199" y="142"/>
      <point x="256" y="123"/>
      <point x="296" y="125" type="curve" smooth="yes"/>
      <point x="318" y="125"/>
      <point x="341" y="133"/>
      <point x="343" y="146" type="curve" smooth="yes"/>
      <point x="346" y="168"/>
      <point x="297" y="174"/>
      <point x="262" y="182" type="curve" smooth="yes"/>
      <point x="188" y="200"/>
      <point x="114" y="243"/>
      <point x="124" y="320" type="curve" smooth="yes"/>
      <point x="140" y="434"/>
      <point x="283" y="476"/>
      <point x="393" y="479" type="curve"/>
      <point x="386" y="434" type="line"/>
      <point x="355" y="422"/>
      <point x="312" y="407"/>
      <point x="306" y="368" type="curve" smooth="yes"/>
      <point x="296" y="312"/>
      <point x="384" y="304"/>
      <point x="427" y="286" type="curve" smooth="yes"/>
      <point x="491" y="258"/>
      <point x="540" y="207"/>
      <point x="530" y="130" type="curve" smooth="yes"/>
      <point x="515" y="24"/>
      <point x="395" y="-29"/>
      <point x="295" y="-30" type="curve" smooth="yes"/>
      <point x="189" y="-31"/>
      <point x="115" y="0"/>
      <point x="49" y="49" type="curve"/>
    </contour>
  </outline>
</glyph>
<glyph name="dieresis" format="2">
  <advance width="520"/>
  <unicode hex="00A8"/>
  <outline>
    <contour>
      <point x="362" y="616" type="curve" smooth="yes"/>
      <point x="368" y="672"/>
      <point x="423" y="712"/>
      <point x="480" y="712" type="curve" smooth="yes"/>
      <point x="538" y="712"/>
      <point x="581" y="671"/>
      <point x="574" y="614" type="curve" smooth="yes"/>
      <point x="568" y="558"/>
      <point x="515" y="518"/>
      <point x="458" y="518" type="curve" smooth="yes"/>
      <point x="400" y="518"/>
      <point x="355" y="559"/>
    </contour>
    <contour>
      <point x="100" y="616" type="curve" smooth="yes"/>
      <point x="106" y="672"/>
      <point x="161" y="712"/>
      <point x="218" y="712" type="curve" smooth="yes"/>
      <point x="276" y="712"/>
      <point x="319" y="671"/>
      <point x="312" y="614" type="curve" smooth="yes"/>
      <point x="306" y="558"/>
      <point x="253" y="518"/>
      <point x="196" y="518" type="curve" smooth="yes"/>
      <point x="138" y="518"/>
      <point x="93" y="559"/>
    </contour>
  </outline>
</glyph>
<glyph name="copyright" format="2">
  <advance width="776"/>
  <unicode hex="00A9"/>
  <outline>
    <contour>
      <point x="347" y="350" type="curve" smooth="yes"/>
      <point x="338" y="292"/>
      <point x="376" y="255"/>
      <point x="432" y="253" type="curve" smooth="yes"/>
      <point x="486" y="252"/>
      <point x="525" y="280"/>
      <point x="558" y="304" type="curve"/>
      <point x="541" y="168" type="line"/>
      <point x="505" y="146"/>
      <point x="466" y="128"/>
      <point x="412" y="128" type="curve" smooth="yes"/>
      <point x="276" y="128"/>
      <point x="188" y="222"/>
      <point x="204" y="350" type="curve" smooth="yes"/>
      <point x="221" y="481"/>
      <point x="331" y="572"/>
      <point x="470" y="572" type="curve" smooth="yes"/>
      <point x="523" y="572"/>
      <point x="559" y="556"/>
      <point x="594" y="532" type="curve"/>
      <point x="577" y="396" type="line"/>
      <point x="551" y="424"/>
      <point x="521" y="448"/>
      <point x="471" y="448" type="curve" smooth="yes"/>
      <point x="412" y="448"/>
      <point x="357" y="410"/>
    </contour>
    <contour>
      <point x="130" y="350" type="curve" smooth="yes"/>
      <point x="106" y="190"/>
      <point x="200" y="41"/>
      <point x="372" y="40" type="curve" smooth="yes"/>
      <point x="546" y="39"/>
      <point x="693" y="181"/>
      <point x="720" y="350" type="curve" smooth="yes"/>
      <point x="744" y="510"/>
      <point x="650" y="659"/>
      <point x="478" y="660" type="curve" smooth="yes"/>
      <point x="304" y="661"/>
      <point x="157" y="519"/>
    </contour>
    <contour>
      <point x="74" y="350" type="curve" smooth="yes"/>
      <point x="100" y="550"/>
      <point x="270" y="710"/>
      <point x="474" y="710" type="curve" smooth="yes"/>
      <point x="675" y="710"/>
      <point x="800" y="544"/>
      <point x="776" y="350" type="curve" smooth="yes"/>
      <point x="750" y="150"/>
      <point x="579" y="-10"/>
      <point x="375" y="-10" type="curve" smooth="yes"/>
      <point x="174" y="-10"/>
      <point x="50" y="156"/>
    </contour>
  </outline>
</glyph>
<glyph name="ordfeminine" format="2">
  <advance width="281"/>
  <unicode hex="00AA"/>
  <outline>
    <contour>
      <point x="174" y="528" type="curve" smooth="yes"/>
      <point x="173" y="518"/>
      <point x="181" y="513"/>
      <point x="191" y="513" type="curve" smooth="yes"/>
      <point x="214" y="513"/>
      <point x="232" y="529"/>
      <point x="240" y="554" type="curve"/>
      <point x="243" y="524" type="line"/>
      <point x="231" y="484"/>
      <point x="200" y="456"/>
      <point x="153" y="456" type="curve" smooth="yes"/>
      <point x="107" y="456"/>
      <point x="71" y="482"/>
      <point x="77" y="526" type="curve" smooth="yes"/>
      <point x="83" y="571"/>
      <point x="132" y="597"/>
      <point x="184" y="597" type="curve" smooth="yes"/>
      <point x="213" y="597"/>
      <point x="243" y="588"/>
      <point x="261" y="576" type="curve"/>
      <point x="254" y="534" type="line"/>
      <point x="241" y="544"/>
      <point x="228" y="550"/>
      <point x="208" y="550" type="curve" smooth="yes"/>
      <point x="194" y="550"/>
      <point x="176" y="540"/>
    </contour>
    <contour>
      <point x="143" y="612" type="curve"/>
      <point x="124" y="681" type="line"/>
      <point x="158" y="693"/>
      <point x="196" y="705"/>
      <point x="236" y="705" type="curve" smooth="yes"/>
      <point x="294" y="705"/>
      <point x="346" y="682"/>
      <point x="342" y="628" type="curve"/>
      <point x="314" y="460" type="line"/>
      <point x="222" y="460" type="line"/>
      <point x="248" y="596" type="line"/>
      <point x="248" y="613"/>
      <point x="244" y="627"/>
      <point x="222" y="629" type="curve" smooth="yes"/>
      <point x="193" y="632"/>
      <point x="160" y="619"/>
    </contour>
  </outline>
</glyph>
<glyph name="guillemotleft" format="2">
  <advance width="543"/>
  <unicode hex="00AB"/>
  <outline>
    <contour>
      <point x="394" y="255" type="line"/>
      <point x="507" y="61" type="line"/>
      <point x="381" y="-12" type="line"/>
      <point x="259" y="260" type="line"/>
      <point x="465" y="520" type="line"/>
      <point x="574" y="440" type="line"/>
    </contour>
    <contour>
      <point x="171" y="255" type="line"/>
      <point x="284" y="61" type="line"/>
      <point x="158" y="-12" type="line"/>
      <point x="36" y="260" type="line"/>
      <point x="242" y="520" type="line"/>
      <point x="350" y="440" type="line"/>
    </contour>
  </outline>
</glyph>
<glyph name="logicalnot" format="2">
  <advance width="649"/>
  <unicode hex="00AC"/>
  <outline>
    <contour>
      <point x="80" y="256" type="line"/>
      <point x="106" y="420" type="line"/>
      <point x="633" y="420" type="line"/>
      <point x="590" y="175" type="line"/>
      <point x="466" y="175" type="line"/>
      <point x="484" y="256" type="line"/>
    </contour>
  </outline>
</glyph>
<glyph name="registered" format="2">
  <advance width="776"/>
  <unicode hex="00AE"/>
  <outline>
    <contour>
      <point x="414" y="310" type="line"/>
      <point x="523" y="310" type="line"/>
      <point x="596" y="150" type="line"/>
      <point x="449" y="150" type="line"/>
    </contour>
    <contour>
      <point x="304" y="570" type="line"/>
      <point x="434" y="570" type="line"/>
      <point x="369" y="150" type="line"/>
      <point x="238" y="150" type="line"/>
    </contour>
    <contour>
      <point x="370" y="460" type="line"/>
      <point x="386" y="570" type="line"/>
      <point x="472" y="570" type="line"/>
      <point x="573" y="568"/>
      <point x="639" y="518"/>
      <point x="628" y="436" type="curve" smooth="yes"/>
      <point x="617" y="348"/>
      <point x="544" y="294"/>
      <point x="438" y="292" type="curve" smooth="yes"/>
      <point x="342" y="292" type="line"/>
      <point x="358" y="390" type="line"/>
      <point x="434" y="391" type="line"/>
      <point x="461" y="392"/>
      <point x="486" y="403"/>
      <point x="490" y="427" type="curve" smooth="yes"/>
      <point x="493" y="450"/>
      <point x="474" y="459"/>
      <point x="450" y="460" type="curve"/>
    </contour>
    <contour>
      <point x="130" y="350" type="curve" smooth="yes"/>
      <point x="106" y="190"/>
      <point x="200" y="41"/>
      <point x="372" y="40" type="curve" smooth="yes"/>
      <point x="546" y="39"/>
      <point x="693" y="181"/>
      <point x="720" y="350" type="curve" smooth="yes"/>
      <point x="744" y="510"/>
      <point x="650" y="659"/>
      <point x="478" y="660" type="curve" smooth="yes"/>
      <point x="304" y="661"/>
      <point x="157" y="519"/>
    </contour>
    <contour>
      <point x="74" y="350" type="curve" smooth="yes"/>
      <point x="100" y="550"/>
      <point x="270" y="710"/>
      <point x="474" y="710" type="curve" smooth="yes"/>
      <point x="675" y="710"/>
      <point x="800" y="544"/>
      <point x="776" y="350" type="curve" smooth="yes"/>
      <point x="750" y="150"/>
      <point x="579" y="-10"/>
      <point x="375" y="-10" type="curve" smooth="yes"/>
      <point x="174" y="-10"/>
      <point x="50" y="156"/>
    </contour>
  </outline>
</glyph>
<glyph name="degree" format="2">
  <advance width="298"/>
  <unicode hex="00B0"/>
  <outline>
    <contour>
      <point x="88" y="596" type="curve" smooth="yes"/>
      <point x="98" y="668"/>
      <point x="163" y="720"/>
      <point x="239" y="720" type="curve" smooth="yes"/>
      <point x="315" y="720"/>
      <point x="370" y="666"/>
      <point x="360" y="594" type="curve" smooth="yes"/>
      <point x="350" y="522"/>
      <point x="282" y="470"/>
      <point x="206" y="470" type="curve" smooth="yes"/>
      <point x="130" y="470"/>
      <point x="78" y="524"/>
    </contour>
    <contour>
      <point x="181" y="594" type="curve" smooth="yes"/>
      <point x="179" y="572"/>
      <point x="190" y="553"/>
      <point x="212" y="552" type="curve" smooth="yes"/>
      <point x="236" y="551"/>
      <point x="262" y="572"/>
      <point x="266" y="596" type="curve" smooth="yes"/>
      <point x="268" y="618"/>
      <point x="256" y="639"/>
      <point x="234" y="640" type="curve" smooth="yes"/>
      <point x="210" y="641"/>
      <point x="185" y="618"/>
    </contour>
  </outline>
</glyph>
<glyph name="uni00B2" format="2">
  <advance width="432"/>
  <unicode hex="00B2"/>
  <outline>
    <contour>
      <point x="40" y="282" type="line"/>
      <point x="248" y="465" type="line" smooth="yes"/>
      <point x="282" y="497"/>
      <point x="321" y="524"/>
      <point x="327" y="562" type="curve" smooth="yes"/>
      <point x="329" y="580"/>
      <point x="321" y="599"/>
      <point x="296" y="600" type="curve" smooth="yes"/>
      <point x="264" y="602"/>
      <point x="243" y="568"/>
      <point x="236" y="540" type="curve"/>
      <point x="107" y="541" type="line"/>
      <point x="125" y="632"/>
      <point x="195" y="712"/>
      <point x="309" y="712" type="curve" smooth="yes"/>
      <point x="404" y="712"/>
      <point x="474" y="648"/>
      <point x="462" y="570" type="curve" smooth="yes"/>
      <point x="456" y="524"/>
      <point x="424" y="488"/>
      <point x="386" y="460" type="curve" smooth="yes"/>
      <point x="302" y="402" type="line"/>
      <point x="448" y="402" type="line"/>
      <point x="427" y="282" type="line"/>
    </contour>
  </outline>
</glyph>
<glyph name="uni00B3" format="2">
  <advance width="385"/>
  <unicode hex="00B3"/>
  <outline>
    <contour>
      <point x="212" y="482" type="curve"/>
      <point x="220" y="534" type="line"/>
      <point x="255" y="537"/>
      <point x="298" y="552"/>
      <point x="302" y="582" type="curve" smooth="yes"/>
      <point x="304" y="596"/>
      <point x="291" y="606"/>
      <point x="272" y="606" type="curve" smooth="yes"/>
      <point x="246" y="606"/>
      <point x="229" y="587"/>
      <point x="221" y="566" type="curve"/>
      <point x="100" y="568" type="line"/>
      <point x="118" y="648"/>
      <point x="183" y="707"/>
      <point x="280" y="708" type="curve" smooth="yes"/>
      <point x="368" y="708"/>
      <point x="441" y="665"/>
      <point x="429" y="589" type="curve" smooth="yes"/>
      <point x="415" y="501"/>
      <point x="308" y="484"/>
    </contour>
    <contour>
      <point x="210" y="268" type="curve" smooth="yes"/>
      <point x="104" y="269"/>
      <point x="51" y="341"/>
      <point x="56" y="427" type="curve"/>
      <point x="182" y="426" type="line"/>
      <point x="182" y="392"/>
      <point x="194" y="372"/>
      <point x="224" y="370" type="curve" smooth="yes"/>
      <point x="248" y="368"/>
      <point x="277" y="384"/>
      <point x="281" y="410" type="curve" smooth="yes"/>
      <point x="288" y="442"/>
      <point x="252" y="456"/>
      <point x="206" y="458" type="curve"/>
      <point x="216" y="518" type="line"/>
      <point x="318" y="516"/>
      <point x="422" y="491"/>
      <point x="408" y="396" type="curve" smooth="yes"/>
      <point x="396" y="316"/>
      <point x="311" y="267"/>
    </contour>
  </outline>
</glyph>
<glyph name="acute" format="2">
  <advance width="363"/>
  <unicode hex="00B4"/>
  <outline>
    <contour>
      <point x="404" y="647" type="line"/>
      <point x="210" y="500" type="line"/>
      <point x="104" y="554" type="line"/>
      <point x="272" y="710" type="line"/>
    </contour>
  </outline>
</glyph>
<glyph name="mu" format="2">
  <advance width="605"/>
  <unicode hex="00B5"/>
  <outline>
    <contour>
      <point x="300" y="460" type="line"/>
      <point x="255" y="220" type="line" smooth="yes"/>
      <point x="248" y="182"/>
      <point x="258" y="154"/>
      <point x="298" y="154" type="curve" smooth="yes"/>
      <point x="333" y="154"/>
      <point x="352" y="177"/>
      <point x="360" y="220" type="curve" smooth="yes"/>
      <point x="405" y="460" type="line"/>
      <point x="590" y="460" type="line"/>
      <point x="515" y="0" type="line"/>
      <point x="320" y="0" type="line"/>
      <point x="328" y="47" type="line"/>
      <point x="310" y="17"/>
      <point x="285" y="0"/>
      <point x="260" y="0" type="curve" smooth="yes"/>
      <point x="242" y="0"/>
      <point x="227" y="2"/>
      <point x="206" y="20" type="curve"/>
      <point x="150" y="-320" type="line"/>
      <point x="-35" y="-320" type="line"/>
      <point x="100" y="460" type="line"/>
    </contour>
  </outline>
</glyph>
<glyph name="paragraph" format="2">
  <advance width="706"/>
  <unicode hex="00B6"/>
  <outline>
    <contour>
      <point x="297" y="271" type="line"/>
      <point x="178" y="279"/>
      <point x="94" y="358"/>
      <point x="112" y="486" type="curve" smooth="yes"/>
      <point x="132" y="622"/>
      <point x="242" y="700"/>
      <point x="370" y="700" type="curve" smooth="yes"/>
      <point x="742" y="700" type="line"/>
      <point x="585" y="-220" type="line"/>
      <point x="416" y="-220" type="line"/>
      <point x="556" y="590" type="line"/>
      <point x="520" y="590" type="line"/>
      <point x="381" y="-220" type="line"/>
      <point x="213" y="-220" type="line"/>
    </contour>
  </outline>
</glyph>
<glyph name="periodcentered" format="2">
  <advance width="326"/>
  <unicode hex="00B7"/>
  <outline>
    <contour>
      <point x="68" y="286" type="curve" smooth="yes"/>
      <point x="76" y="348"/>
      <point x="134" y="400"/>
      <point x="200" y="400" type="curve" smooth="yes"/>
      <point x="267" y="400"/>
      <point x="308" y="345"/>
      <point x="300" y="284" type="curve" smooth="yes"/>
      <point x="292" y="222"/>
      <point x="236" y="170"/>
      <point x="170" y="170" type="curve" smooth="yes"/>
      <point x="103" y="170"/>
      <point x="60" y="225"/>
    </contour>
  </outline>
</glyph>
<glyph name="cedilla" format="2">
  <advance width="407"/>
  <unicode hex="00B8"/>
  <outline>
    <contour>
      <point x="152" y="78" type="line"/>
      <point x="297" y="72" type="line"/>
      <point x="172" y="-56" type="line"/>
      <point x="187" y="-52"/>
      <point x="203" y="-50"/>
      <point x="220" y="-50" type="curve" smooth="yes"/>
      <point x="272" y="-52"/>
      <point x="316" y="-98"/>
      <point x="308" y="-163" type="curve" smooth="yes"/>
      <point x="298" y="-239"/>
      <point x="219" y="-278"/>
      <point x="150" y="-280" type="curve" smooth="yes"/>
      <point x="87" y="-282"/>
      <point x="34" y="-267"/>
      <point x="-21" y="-238" type="curve"/>
      <point x="41" y="-155" type="line"/>
      <point x="67" y="-171"/>
      <point x="104" y="-180"/>
      <point x="126" y="-180" type="curve" smooth="yes"/>
      <point x="152" y="-180"/>
      <point x="189" y="-170"/>
      <point x="191" y="-146" type="curve" smooth="yes"/>
      <point x="193" y="-122"/>
      <point x="155" y="-118"/>
      <point x="135" y="-118" type="curve" smooth="yes"/>
      <point x="113" y="-117"/>
      <point x="73" y="-122"/>
      <point x="35" y="-132" type="curve"/>
    </contour>
  </outline>
</glyph>
<glyph name="uni00B9" format="2">
  <advance width="475"/>
  <unicode hex="00B9"/>
  <outline>
    <contour>
      <point x="182" y="548" type="line"/>
      <point x="202" y="660" type="line"/>
      <point x="444" y="704" type="line"/>
      <point x="370" y="274" type="line"/>
      <point x="244" y="274" type="line"/>
      <point x="295" y="572" type="line"/>
    </contour>
  </outline>
</glyph>
<glyph name="ordmasculine" format="2">
  <advance width="269"/>
  <unicode hex="00BA"/>
  <outline>
    <contour>
      <point x="88" y="581" type="curve" smooth="yes"/>
      <point x="98" y="653"/>
      <point x="163" y="700"/>
      <point x="238" y="700" type="curve" smooth="yes"/>
      <point x="312" y="700"/>
      <point x="370" y="651"/>
      <point x="360" y="579" type="curve" smooth="yes"/>
      <point x="350" y="507"/>
      <point x="283" y="460"/>
      <point x="208" y="460" type="curve" smooth="yes"/>
      <point x="134" y="460"/>
      <point x="78" y="509"/>
    </contour>
    <contour>
      <point x="186" y="579" type="curve" smooth="yes"/>
      <point x="184" y="559"/>
      <point x="194" y="539"/>
      <point x="213" y="538" type="curve" smooth="yes"/>
      <point x="233" y="537"/>
      <point x="258" y="559"/>
      <point x="261" y="581" type="curve" smooth="yes"/>
      <point x="263" y="601"/>
      <point x="253" y="621"/>
      <point x="234" y="622" type="curve" smooth="yes"/>
      <point x="214" y="623"/>
      <point x="189" y="601"/>
    </contour>
  </outline>
</glyph>
<glyph name="guillemotright" format="2">
  <advance width="543"/>
  <unicode hex="00BB"/>
  <outline>
    <contour>
      <point x="182" y="255" type="line"/>
      <point x="69" y="449" type="line"/>
      <point x="196" y="522" type="line"/>
      <point x="317" y="250" type="line"/>
      <point x="112" y="-10" type="line"/>
      <point x="2" y="70" type="line"/>
    </contour>
    <contour>
      <point x="405" y="255" type="line"/>
      <point x="292" y="449" type="line"/>
      <point x="418" y="522" type="line"/>
      <point x="540" y="250" type="line"/>
      <point x="334" y="-10" type="line"/>
      <point x="226" y="70" type="line"/>
    </contour>
  </outline>
</glyph>
<glyph name="onequarter" format="2">
  <advance width="838"/>
  <unicode hex="00BC"/>
  <outline>
    <contour>
      <point x="707" y="700" type="line"/>
      <point x="828" y="700" type="line"/>
      <point x="204" y="0" type="line"/>
      <point x="82" y="0" type="line"/>
    </contour>
    <contour>
      <point x="84" y="548" type="line"/>
      <point x="104" y="660" type="line"/>
      <point x="345" y="704" type="line"/>
      <point x="270" y="274" type="line"/>
      <point x="144" y="274" type="line"/>
      <point x="196" y="572" type="line"/>
    </contour>
    <contour>
      <point x="378" y="70" type="line"/>
      <point x="500" y="158" type="line"/>
      <point x="681" y="159" type="line"/>
      <point x="695" y="180" type="line"/>
      <point x="818" y="180" type="line"/>
      <point x="798" y="69" type="line"/>
    </contour>
    <contour>
      <point x="524" y="116" type="line"/>
      <point x="374" y="64" type="line"/>
      <point x="684" y="420" type="line"/>
      <point x="795" y="420" type="line"/>
      <point x="722" y="0" type="line"/>
      <point x="584" y="0" type="line"/>
      <point x="600" y="90" type="line"/>
      <point x="618" y="96" type="line"/>
      <point x="644" y="244" type="line"/>
    </contour>
  </outline>
</glyph>
<glyph name="onehalf" format="2">
  <advance width="911"/>
  <unicode hex="00BD"/>
  <outline>
    <contour>
      <point x="707" y="700" type="line"/>
      <point x="828" y="700" type="line"/>
      <point x="204" y="0" type="line"/>
      <point x="82" y="0" type="line"/>
    </contour>
    <contour>
      <point x="84" y="548" type="line"/>
      <point x="104" y="660" type="line"/>
      <point x="345" y="704" type="line"/>
      <point x="270" y="274" type="line"/>
      <point x="144" y="274" type="line"/>
      <point x="196" y="572" type="line"/>
    </contour>
    <contour>
      <point x="466" y="2" type="line"/>
      <point x="674" y="185" type="line" smooth="yes"/>
      <point x="708" y="217"/>
      <point x="747" y="244"/>
      <point x="753" y="282" type="curve" smooth="yes"/>
      <point x="755" y="300"/>
      <point x="746" y="319"/>
      <point x="721" y="320" type="curve" smooth="yes"/>
      <point x="689" y="322"/>
      <point x="669" y="288"/>
      <point x="662" y="260" type="curve"/>
      <point x="532" y="261" type="line"/>
      <point x="550" y="352"/>
      <point x="621" y="432"/>
      <point x="735" y="432" type="curve" smooth="yes"/>
      <point x="830" y="432"/>
      <point x="900" y="368"/>
      <point x="888" y="290" type="curve" smooth="yes"/>
      <point x="882" y="244"/>
      <point x="849" y="208"/>
      <point x="811" y="180" type="curve" smooth="yes"/>
      <point x="728" y="122" type="line"/>
      <point x="874" y="122" type="line"/>
      <point x="853" y="2" type="line"/>
    </contour>
  </outline>
</glyph>
<glyph name="threequarters" format="2">
  <advance width="887"/>
  <unicode hex="00BE"/>
  <outline>
    <contour>
      <point x="767" y="700" type="line"/>
      <point x="888" y="700" type="line"/>
      <point x="264" y="0" type="line"/>
      <point x="142" y="0" type="line"/>
    </contour>
    <contour>
      <point x="222" y="482" type="curve"/>
      <point x="230" y="534" type="line"/>
      <point x="265" y="537"/>
      <point x="307" y="552"/>
      <point x="311" y="582" type="curve" smooth="yes"/>
      <point x="313" y="596"/>
      <point x="301" y="606"/>
      <point x="282" y="606" type="curve" smooth="yes"/>
      <point x="256" y="606"/>
      <point x="238" y="587"/>
      <point x="230" y="566" type="curve"/>
      <point x="109" y="568" type="line"/>
      <point x="127" y="648"/>
      <point x="193" y="707"/>
      <point x="290" y="708" type="curve" smooth="yes"/>
      <point x="378" y="708"/>
      <point x="450" y="665"/>
      <point x="438" y="589" type="curve" smooth="yes"/>
      <point x="424" y="501"/>
      <point x="318" y="484"/>
    </contour>
    <contour>
      <point x="220" y="268" type="curve" smooth="yes"/>
      <point x="114" y="269"/>
      <point x="61" y="341"/>
      <point x="66" y="427" type="curve"/>
      <point x="192" y="426" type="line"/>
      <point x="192" y="392"/>
      <point x="203" y="372"/>
      <point x="233" y="370" type="curve" smooth="yes"/>
      <point x="257" y="368"/>
      <point x="286" y="384"/>
      <point x="290" y="410" type="curve" smooth="yes"/>
      <point x="297" y="442"/>
      <point x="262" y="456"/>
      <point x="216" y="458" type="curve"/>
      <point x="226" y="518" type="line"/>
      <point x="328" y="516"/>
      <point x="432" y="491"/>
      <point x="418" y="396" type="curve" smooth="yes"/>
      <point x="406" y="316"/>
      <point x="321" y="267"/>
    </contour>
    <contour>
      <point x="429" y="70" type="line"/>
      <point x="550" y="158" type="line"/>
      <point x="732" y="159" type="line"/>
      <point x="746" y="180" type="line"/>
      <point x="868" y="180" type="line"/>
      <point x="848" y="69" type="line"/>
    </contour>
    <contour>
      <point x="575" y="116" type="line"/>
      <point x="424" y="64" type="line"/>
      <point x="734" y="420" type="line"/>
      <point x="846" y="420" type="line"/>
      <point x="772" y="0" type="line"/>
      <point x="635" y="0" type="line"/>
      <point x="650" y="90" type="line"/>
      <point x="669" y="96" type="line"/>
      <point x="694" y="244" type="line"/>
    </contour>
  </outline>
</glyph>
<glyph name="questiondown" format="2">
  <advance width="649"/>
  <unicode hex="00BF"/>
  <outline>
    <contour>
      <point x="246" y="200" type="curve" smooth="yes"/>
      <point x="240" y="158"/>
      <point x="270" y="137"/>
      <point x="319" y="136" type="curve" smooth="yes"/>
      <point x="383" y="134"/>
      <point x="450" y="173"/>
      <point x="496" y="224" type="curve"/>
      <point x="604" y="111" type="line"/>
      <point x="515" y="30"/>
      <point x="413" y="-25"/>
      <point x="293" y="-25" type="curve" smooth="yes"/>
      <point x="162" y="-25"/>
      <point x="34" y="58"/>
      <point x="54" y="200" type="curve" smooth="yes"/>
      <point x="72" y="325"/>
      <point x="188" y="389"/>
      <point x="297" y="418" type="curve"/>
      <point x="312" y="480" type="line"/>
      <point x="473" y="480" type="line"/>
      <point x="463" y="300" type="line"/>
      <point x="430" y="300" type="line" smooth="yes"/>
      <point x="338" y="298"/>
      <point x="258" y="254"/>
    </contour>
    <contour>
      <point x="535" y="629" type="curve" smooth="yes"/>
      <point x="527" y="575"/>
      <point x="469" y="530"/>
      <point x="406" y="530" type="curve" smooth="yes"/>
      <point x="343" y="530"/>
      <point x="296" y="575"/>
      <point x="304" y="631" type="curve" smooth="yes"/>
      <point x="312" y="685"/>
      <point x="369" y="730"/>
      <point x="432" y="730" type="curve" smooth="yes"/>
      <point x="495" y="730"/>
      <point x="543" y="685"/>
    </contour>
  </outline>
</glyph>
<glyph name="Aacute" format="2">
  <advance width="756"/>
  <unicode hex="00C1"/>
  <outline>
    <contour>
      <point x="187" y="90" type="line"/>
      <point x="215" y="248" type="line"/>
      <point x="578" y="248" type="line"/>
      <point x="550" y="90" type="line"/>
    </contour>
    <contour>
      <point x="420" y="382" type="line"/>
      <point x="302" y="188" type="line"/>
      <point x="311" y="138" type="line"/>
      <point x="214" y="0" type="line"/>
      <point x="-36" y="0" type="line"/>
      <point x="478" y="752" type="line"/>
      <point x="734" y="0" type="line"/>
      <point x="494" y="0" type="line"/>
      <point x="442" y="132" type="line"/>
      <point x="468" y="189" type="line"/>
    </contour>
    <contour>
      <point x="686" y="956" type="line"/>
      <point x="490" y="810" type="line"/>
      <point x="385" y="864" type="line"/>
      <point x="554" y="1019" type="line"/>
    </contour>
  </outline>
</glyph>
<glyph name="Atilde" format="2">
  <advance width="756"/>
  <unicode hex="00C3"/>
  <outline>
    <contour>
      <point x="187" y="90" type="line"/>
      <point x="215" y="248" type="line"/>
      <point x="578" y="248" type="line"/>
      <point x="550" y="90" type="line"/>
    </contour>
    <contour>
      <point x="420" y="382" type="line"/>
      <point x="302" y="188" type="line"/>
      <point x="311" y="138" type="line"/>
      <point x="214" y="0" type="line"/>
      <point x="-36" y="0" type="line"/>
      <point x="478" y="752" type="line"/>
      <point x="734" y="0" type="line"/>
      <point x="494" y="0" type="line"/>
      <point x="442" y="132" type="line"/>
      <point x="468" y="189" type="line"/>
    </contour>
    <contour>
      <point x="294" y="895" type="line"/>
      <point x="316" y="944"/>
      <point x="362" y="996"/>
      <point x="432" y="994" type="curve" smooth="yes"/>
      <point x="488" y="993"/>
      <point x="510" y="939"/>
      <point x="562" y="941" type="curve" smooth="yes"/>
      <point x="594" y="942"/>
      <point x="620" y="969"/>
      <point x="642" y="996" type="curve"/>
      <point x="716" y="901" type="line"/>
      <point x="688" y="861"/>
      <point x="624" y="808"/>
      <point x="558" y="810" type="curve" smooth="yes"/>
      <point x="508" y="812"/>
      <point x="470" y="870"/>
      <point x="421" y="866" type="curve" smooth="yes"/>
      <point x="389" y="864"/>
      <point x="374" y="834"/>
      <point x="366" y="816" type="curve"/>
    </contour>
  </outline>
</glyph>
<glyph name="Adieresis" format="2">
  <advance width="756"/>
  <unicode hex="00C4"/>
  <outline>
    <contour>
      <point x="187" y="90" type="line"/>
      <point x="215" y="248" type="line"/>
      <point x="578" y="248" type="line"/>
      <point x="550" y="90" type="line"/>
    </contour>
    <contour>
      <point x="420" y="382" type="line"/>
      <point x="302" y="188" type="line"/>
      <point x="311" y="138" type="line"/>
      <point x="214" y="0" type="line"/>
      <point x="-36" y="0" type="line"/>
      <point x="478" y="752" type="line"/>
      <point x="734" y="0" type="line"/>
      <point x="494" y="0" type="line"/>
      <point x="442" y="132" type="line"/>
      <point x="468" y="189" type="line"/>
    </contour>
    <contour>
      <point x="545" y="820" type="curve" smooth="yes"/>
      <point x="553" y="876"/>
      <point x="607" y="916"/>
      <point x="664" y="916" type="curve" smooth="yes"/>
      <point x="722" y="916"/>
      <point x="765" y="873"/>
      <point x="757" y="816" type="curve" smooth="yes"/>
      <point x="749" y="760"/>
      <point x="695" y="720"/>
      <point x="638" y="720" type="curve" smooth="yes"/>
      <point x="580" y="720"/>
      <point x="537" y="763"/>
    </contour>
    <contour>
      <point x="217" y="830" type="curve" smooth="yes"/>
      <point x="225" y="886"/>
      <point x="279" y="926"/>
      <point x="336" y="926" type="curve" smooth="yes"/>
      <point x="394" y="926"/>
      <point x="437" y="883"/>
      <point x="429" y="826" type="curve" smooth="yes"/>
      <point x="421" y="770"/>
      <point x="367" y="730"/>
      <point x="310" y="730" type="curve" smooth="yes"/>
      <point x="252" y="730"/>
      <point x="209" y="773"/>
    </contour>
  </outline>
</glyph>
<glyph name="Aring" format="2">
  <advance width="756"/>
  <unicode hex="00C5"/>
  <outline>
    <contour>
      <point x="187" y="90" type="line"/>
      <point x="215" y="248" type="line"/>
      <point x="578" y="248" type="line"/>
      <point x="550" y="90" type="line"/>
    </contour>
    <contour>
      <point x="420" y="382" type="line"/>
      <point x="302" y="188" type="line"/>
      <point x="311" y="138" type="line"/>
      <point x="214" y="0" type="line"/>
      <point x="-36" y="0" type="line"/>
      <point x="478" y="752" type="line"/>
      <point x="734" y="0" type="line"/>
      <point x="494" y="0" type="line"/>
      <point x="442" y="132" type="line"/>
      <point x="468" y="189" type="line"/>
    </contour>
    <contour>
      <point x="352" y="803" type="curve" smooth="yes"/>
      <point x="362" y="875"/>
      <point x="428" y="926"/>
      <point x="504" y="926" type="curve" smooth="yes"/>
      <point x="580" y="926"/>
      <point x="634" y="873"/>
      <point x="624" y="801" type="curve" smooth="yes"/>
      <point x="614" y="729"/>
      <point x="547" y="678"/>
      <point x="471" y="678" type="curve" smooth="yes"/>
      <point x="395" y="678"/>
      <point x="342" y="731"/>
    </contour>
    <contour>
      <point x="446" y="801" type="curve" smooth="yes"/>
      <point x="444" y="779"/>
      <point x="454" y="759"/>
      <point x="476" y="758" type="curve" smooth="yes"/>
      <point x="500" y="757"/>
      <point x="526" y="779"/>
      <point x="530" y="803" type="curve" smooth="yes"/>
      <point x="532" y="825"/>
      <point x="520" y="845"/>
      <point x="498" y="846" type="curve" smooth="yes"/>
      <point x="474" y="847"/>
      <point x="450" y="825"/>
    </contour>
  </outline>
</glyph>
<glyph name="AE" format="2">
  <advance width="1125"/>
  <unicode hex="00C6"/>
  <outline>
    <contour>
      <point x="283" y="115" type="line"/>
      <point x="328" y="315" type="line"/>
      <point x="622" y="315" type="line"/>
      <point x="588" y="115" type="line"/>
    </contour>
    <contour>
      <point x="524" y="700" type="line"/>
      <point x="728" y="658" type="line"/>
      <point x="273" y="0" type="line"/>
      <point x="-12" y="0" type="line"/>
    </contour>
    <contour>
      <point x="638" y="0" type="line"/>
      <point x="668" y="175" type="line"/>
      <point x="1062" y="175" type="line"/>
      <point x="1032" y="0" type="line"/>
    </contour>
    <contour>
      <point x="742" y="525" type="line"/>
      <point x="524" y="700" type="line"/>
      <point x="1152" y="700" type="line"/>
      <point x="1122" y="525" type="line"/>
    </contour>
    <contour>
      <point x="684" y="275" type="line"/>
      <point x="714" y="445" type="line"/>
      <point x="1090" y="445" type="line"/>
      <point x="1060" y="275" type="line"/>
    </contour>
    <contour>
      <point x="658" y="700" type="line"/>
      <point x="895" y="700" type="line"/>
      <point x="775" y="0" type="line"/>
      <point x="538" y="0" type="line"/>
    </contour>
  </outline>
</glyph>
<glyph name="Ccedilla" format="2">
  <advance width="689"/>
  <unicode hex="00C7"/>
  <outline>
    <contour>
      <point x="298" y="350" type="curve" smooth="yes"/>
      <point x="282" y="254"/>
      <point x="341" y="190"/>
      <point x="437" y="188" type="curve" smooth="yes"/>
      <point x="527" y="187"/>
      <point x="592" y="230"/>
      <point x="648" y="272" type="curve"/>
      <point x="615" y="47" type="line"/>
      <point x="553" y="9"/>
      <point x="488" y="-20"/>
      <point x="398" y="-20" type="curve" smooth="yes"/>
      <point x="170" y="-20"/>
      <point x="28" y="137"/>
      <point x="60" y="350" type="curve" smooth="yes"/>
      <point x="93" y="568"/>
      <point x="278" y="720"/>
      <point x="512" y="720" type="curve" smooth="yes"/>
      <point x="600" y="720"/>
      <point x="658" y="692"/>
      <point x="714" y="652" type="curve"/>
      <point x="680" y="427" type="line"/>
      <point x="639" y="475"/>
      <point x="588" y="512"/>
      <point x="504" y="512" type="curve" smooth="yes"/>
      <point x="405" y="512"/>
      <point x="316" y="450"/>
    </contour>
    <contour>
      <point x="310" y="41" type="line"/>
      <point x="454" y="35" type="line"/>
      <point x="330" y="-92" type="line"/>
      <point x="345" y="-88"/>
      <point x="361" y="-87"/>
      <point x="378" y="-87" type="curve" smooth="yes"/>
      <point x="430" y="-89"/>
      <point x="474" y="-134"/>
      <point x="466" y="-199" type="curve" smooth="yes"/>
      <point x="456" y="-275"/>
      <point x="377" y="-314"/>
      <point x="308" y="-316" type="curve" smooth="yes"/>
      <point x="245" y="-318"/>
      <point x="191" y="-303"/>
      <point x="136" y="-274" type="curve"/>
      <point x="199" y="-191" type="line"/>
      <point x="225" y="-207"/>
      <point x="262" y="-217"/>
      <point x="284" y="-217" type="curve" smooth="yes"/>
      <point x="310" y="-217"/>
      <point x="347" y="-206"/>
      <point x="349" y="-182" type="curve" smooth="yes"/>
      <point x="351" y="-158"/>
      <point x="313" y="-154"/>
      <point x="293" y="-154" type="curve" smooth="yes"/>
      <point x="271" y="-153"/>
      <point x="230" y="-158"/>
      <point x="192" y="-168" type="curve"/>
    </contour>
  </outline>
</glyph>
<glyph name="Egrave" format="2">
  <advance width="616"/>
  <unicode hex="00C8"/>
  <outline>
    <contour>
      <point x="186" y="0" type="line"/>
      <point x="217" y="175" type="line"/>
      <point x="563" y="175" type="line"/>
      <point x="532" y="0" type="line"/>
    </contour>
    <contour>
      <point x="276" y="525" type="line"/>
      <point x="306" y="700" type="line"/>
      <point x="652" y="700" type="line"/>
      <point x="622" y="525" type="line"/>
    </contour>
    <contour>
      <point x="233" y="275" type="line"/>
      <point x="263" y="445" type="line"/>
      <point x="590" y="445" type="line"/>
      <point x="560" y="275" type="line"/>
    </contour>
    <contour>
      <point x="159" y="700" type="line"/>
      <point x="366" y="700" type="line"/>
      <point x="246" y="0" type="line"/>
      <point x="39" y="0" type="line"/>
    </contour>
    <contour>
      <point x="272" y="943" type="line"/>
      <point x="414" y="1000" type="line"/>
      <point x="534" y="836" type="line"/>
      <point x="424" y="790" type="line"/>
    </contour>
  </outline>
</glyph>
<glyph name="Ecircumflex" format="2">
  <advance width="616"/>
  <unicode hex="00CA"/>
  <outline>
    <contour>
      <point x="186" y="0" type="line"/>
      <point x="217" y="175" type="line"/>
      <point x="563" y="175" type="line"/>
      <point x="532" y="0" type="line"/>
    </contour>
    <contour>
      <point x="276" y="525" type="line"/>
      <point x="306" y="700" type="line"/>
      <point x="652" y="700" type="line"/>
      <point x="622" y="525" type="line"/>
    </contour>
    <contour>
      <point x="233" y="275" type="line"/>
      <point x="263" y="445" type="line"/>
      <point x="590" y="445" type="line"/>
      <point x="560" y="275" type="line"/>
    </contour>
    <contour>
      <point x="159" y="700" type="line"/>
      <point x="366" y="700" type="line"/>
      <point x="246" y="0" type="line"/>
      <point x="39" y="0" type="line"/>
    </contour>
    <contour>
      <point x="432.0" y="829.0" type="line"/>
      <point x="342.0" y="750.0" type="line"/>
      <point x="216.0" y="843.0" type="line"/>
      <point x="448" y="980" type="line"/>
      <point x="643.0" y="837.0" type="line"/>
      <point x="496.0" y="749.0" type="line"/>
    </contour>
  </outline>
</glyph>
<glyph name="Edieresis" format="2">
  <advance width="616"/>
  <unicode hex="00CB"/>
  <outline>
    <contour>
      <point x="186" y="0" type="line"/>
      <point x="217" y="175" type="line"/>
      <point x="563" y="175" type="line"/>
      <point x="532" y="0" type="line"/>
    </contour>
    <contour>
      <point x="276" y="525" type="line"/>
      <point x="306" y="700" type="line"/>
      <point x="652" y="700" type="line"/>
      <point x="622" y="525" type="line"/>
    </contour>
    <contour>
      <point x="233" y="275" type="line"/>
      <point x="263" y="445" type="line"/>
      <point x="590" y="445" type="line"/>
      <point x="560" y="275" type="line"/>
    </contour>
    <contour>
      <point x="159" y="700" type="line"/>
      <point x="366" y="700" type="line"/>
      <point x="246" y="0" type="line"/>
      <point x="39" y="0" type="line"/>
    </contour>
    <contour>
      <point x="461" y="880" type="curve" smooth="yes"/>
      <point x="469" y="936"/>
      <point x="523" y="976"/>
      <point x="580" y="976" type="curve" smooth="yes"/>
      <point x="638" y="976"/>
      <point x="681" y="933"/>
      <point x="673" y="876" type="curve" smooth="yes"/>
      <point x="665" y="820"/>
      <point x="611" y="780"/>
      <point x="554" y="780" type="curve" smooth="yes"/>
      <point x="496" y="780"/>
      <point x="453" y="823"/>
    </contour>
    <contour>
      <point x="199" y="880" type="curve" smooth="yes"/>
      <point x="207" y="936"/>
      <point x="261" y="976"/>
      <point x="318" y="976" type="curve" smooth="yes"/>
      <point x="376" y="976"/>
      <point x="419" y="933"/>
      <point x="411" y="876" type="curve" smooth="yes"/>
      <point x="403" y="820"/>
      <point x="349" y="780"/>
      <point x="292" y="780" type="curve" smooth="yes"/>
      <point x="234" y="780"/>
      <point x="191" y="823"/>
    </contour>
  </outline>
</glyph>
<glyph name="Igrave" format="2">
  <advance width="354"/>
  <unicode hex="00CC"/>
  <outline>
    <contour>
      <point x="159" y="700" type="line"/>
      <point x="380" y="700" type="line"/>
      <point x="260" y="0" type="line"/>
      <point x="39" y="0" type="line"/>
    </contour>
    <contour>
      <point x="126" y="943" type="line"/>
      <point x="268" y="1000" type="line"/>
      <point x="389" y="836" type="line"/>
      <point x="279" y="790" type="line"/>
    </contour>
  </outline>
</glyph>
<glyph name="Iacute" format="2">
  <advance width="354"/>
  <unicode hex="00CD"/>
  <outline>
    <contour>
      <point x="159" y="700" type="line"/>
      <point x="380" y="700" type="line"/>
      <point x="260" y="0" type="line"/>
      <point x="39" y="0" type="line"/>
    </contour>
    <contour>
      <point x="472" y="936" type="line"/>
      <point x="276" y="790" type="line"/>
      <point x="171" y="844" type="line"/>
      <point x="340" y="999" type="line"/>
    </contour>
  </outline>
</glyph>
<glyph name="Icircumflex" format="2">
  <advance width="354"/>
  <unicode hex="00CE"/>
  <outline>
    <contour>
      <point x="159" y="700" type="line"/>
      <point x="380" y="700" type="line"/>
      <point x="260" y="0" type="line"/>
      <point x="39" y="0" type="line"/>
    </contour>
    <contour>
      <point x="303" y="876" type="line"/>
      <point x="194" y="790" type="line"/>
      <point x="102" y="858" type="line"/>
      <point x="308" y="996" type="line"/>
      <point x="475" y="852" type="line"/>
      <point x="378" y="790" type="line"/>
    </contour>
  </outline>
</glyph>
<glyph name="Idieresis" format="2">
  <advance width="354"/>
  <unicode hex="00CF"/>
  <outline>
    <contour>
      <point x="159" y="700" type="line"/>
      <point x="380" y="700" type="line"/>
      <point x="260" y="0" type="line"/>
      <point x="39" y="0" type="line"/>
    </contour>
    <contour>
      <point x="326" y="880" type="curve" smooth="yes"/>
      <point x="334" y="936"/>
      <point x="387" y="976"/>
      <point x="444" y="976" type="curve" smooth="yes"/>
      <point x="502" y="976"/>
      <point x="546" y="933"/>
      <point x="538" y="876" type="curve" smooth="yes"/>
      <point x="530" y="820"/>
      <point x="476" y="780"/>
      <point x="419" y="780" type="curve" smooth="yes"/>
      <point x="361" y="780"/>
      <point x="318" y="823"/>
    </contour>
    <contour>
      <point x="64" y="880" type="curve" smooth="yes"/>
      <point x="72" y="936"/>
      <point x="125" y="976"/>
      <point x="182" y="976" type="curve" smooth="yes"/>
      <point x="240" y="976"/>
      <point x="284" y="933"/>
      <point x="276" y="876" type="curve" smooth="yes"/>
      <point x="268" y="820"/>
      <point x="214" y="780"/>
      <point x="157" y="780" type="curve" smooth="yes"/>
      <point x="99" y="780"/>
      <point x="56" y="823"/>
    </contour>
  </outline>
</glyph>
<glyph name="Ntilde" format="2">
  <advance width="781"/>
  <unicode hex="00D1"/>
  <outline>
    <contour>
      <point x="600" y="700" type="line"/>
      <point x="808" y="700" type="line"/>
      <point x="682" y="-33" type="line"/>
      <point x="301" y="318" type="line"/>
      <point x="246" y="0" type="line"/>
      <point x="39" y="0" type="line"/>
      <point x="164" y="733" type="line"/>
      <point x="545" y="382" type="line"/>
    </contour>
    <contour>
      <point x="259" y="860" type="line"/>
      <point x="281" y="909"/>
      <point x="327" y="962"/>
      <point x="397" y="960" type="curve" smooth="yes"/>
      <point x="453" y="959"/>
      <point x="475" y="904"/>
      <point x="527" y="906" type="curve" smooth="yes"/>
      <point x="559" y="907"/>
      <point x="585" y="934"/>
      <point x="607" y="961" type="curve"/>
      <point x="680" y="866" type="line"/>
      <point x="652" y="826"/>
      <point x="588" y="774"/>
      <point x="522" y="776" type="curve" smooth="yes"/>
      <point x="472" y="778"/>
      <point x="435" y="835"/>
      <point x="386" y="831" type="curve" smooth="yes"/>
      <point x="354" y="829"/>
      <point x="340" y="799"/>
      <point x="332" y="781" type="curve"/>
    </contour>
  </outline>
</glyph>
<glyph name="Ocircumflex" format="2">
  <advance width="815"/>
  <unicode hex="00D4"/>
  <outline>
    <contour>
      <point x="289" y="350" type="curve" smooth="yes"/>
      <point x="275" y="262"/>
      <point x="307" y="180"/>
      <point x="405" y="178" type="curve" smooth="yes"/>
      <point x="503" y="176"/>
      <point x="575" y="256"/>
      <point x="592" y="350" type="curve" smooth="yes"/>
      <point x="606" y="438"/>
      <point x="576" y="521"/>
      <point x="476" y="522" type="curve" smooth="yes"/>
      <point x="378" y="523"/>
      <point x="305" y="444"/>
    </contour>
    <contour>
      <point x="60" y="350" type="curve" smooth="yes"/>
      <point x="92" y="564"/>
      <point x="279" y="720"/>
      <point x="497" y="720" type="curve" smooth="yes"/>
      <point x="714" y="720"/>
      <point x="850" y="558"/>
      <point x="820" y="350" type="curve" smooth="yes"/>
      <point x="788" y="134"/>
      <point x="608" y="-30"/>
      <point x="382" y="-30" type="curve" smooth="yes"/>
      <point x="160" y="-30"/>
      <point x="30" y="142"/>
    </contour>
    <contour>
      <point x="549.0" y="850.0" type="line"/>
      <point x="459.0" y="771.0" type="line"/>
      <point x="334.0" y="865.0" type="line"/>
      <point x="566.0" y="1001.0" type="line"/>
      <point x="760.0" y="858.0" type="line"/>
      <point x="613.0" y="771.0" type="line"/>
    </contour>
  </outline>
</glyph>
<glyph name="Otilde" format="2">
  <advance width="815"/>
  <unicode hex="00D5"/>
  <outline>
    <contour>
      <point x="289" y="350" type="curve" smooth="yes"/>
      <point x="275" y="262"/>
      <point x="307" y="180"/>
      <point x="405" y="178" type="curve" smooth="yes"/>
      <point x="503" y="176"/>
      <point x="575" y="256"/>
      <point x="592" y="350" type="curve" smooth="yes"/>
      <point x="606" y="438"/>
      <point x="576" y="521"/>
      <point x="476" y="522" type="curve" smooth="yes"/>
      <point x="378" y="523"/>
      <point x="305" y="444"/>
    </contour>
    <contour>
      <point x="60" y="350" type="curve" smooth="yes"/>
      <point x="92" y="564"/>
      <point x="279" y="720"/>
      <point x="497" y="720" type="curve" smooth="yes"/>
      <point x="714" y="720"/>
      <point x="850" y="558"/>
      <point x="820" y="350" type="curve" smooth="yes"/>
      <point x="788" y="134"/>
      <point x="608" y="-30"/>
      <point x="382" y="-30" type="curve" smooth="yes"/>
      <point x="160" y="-30"/>
      <point x="30" y="142"/>
    </contour>
    <contour>
      <point x="335.0" y="866.0" type="line"/>
      <point x="335.0" y="917.0"/>
      <point x="416.0" y="966.0"/>
      <point x="473.0" y="966.0" type="curve" smooth="yes"/>
      <point x="529.0" y="966.0"/>
      <point x="551.0" y="910.0"/>
      <point x="603.0" y="912.0" type="curve" smooth="yes"/>
      <point x="635.0" y="913.0"/>
      <point x="661.0" y="940.0"/>
      <point x="683.0" y="967.0" type="curve"/>
      <point x="756.0" y="872.0" type="line"/>
      <point x="728.0" y="832.0"/>
      <point x="664.0" y="780.0"/>
      <point x="598.0" y="782.0" type="curve" smooth="yes"/>
      <point x="548.0" y="784.0"/>
      <point x="511.0" y="841.0"/>
      <point x="462.0" y="837.0" type="curve" smooth="yes"/>
      <point x="430.0" y="835.0"/>
      <point x="416.0" y="805.0"/>
      <point x="408.0" y="787.0" type="curve"/>
    </contour>
  </outline>
</glyph>
<glyph name="Odieresis" format="2">
  <advance width="815"/>
  <unicode hex="00D6"/>
  <outline>
    <contour>
      <point x="289" y="350" type="curve" smooth="yes"/>
      <point x="275" y="262"/>
      <point x="307" y="180"/>
      <point x="405" y="178" type="curve" smooth="yes"/>
      <point x="503" y="176"/>
      <point x="575" y="256"/>
      <point x="592" y="350" type="curve" smooth="yes"/>
      <point x="606" y="438"/>
      <point x="576" y="521"/>
      <point x="476" y="522" type="curve" smooth="yes"/>
      <point x="378" y="523"/>
      <point x="305" y="444"/>
    </contour>
    <contour>
      <point x="60" y="350" type="curve" smooth="yes"/>
      <point x="92" y="564"/>
      <point x="279" y="720"/>
      <point x="497" y="720" type="curve" smooth="yes"/>
      <point x="714" y="720"/>
      <point x="850" y="558"/>
      <point x="820" y="350" type="curve" smooth="yes"/>
      <point x="788" y="134"/>
      <point x="608" y="-30"/>
      <point x="382" y="-30" type="curve" smooth="yes"/>
      <point x="160" y="-30"/>
      <point x="30" y="142"/>
    </contour>
    <contour>
      <point x="556" y="880" type="curve" smooth="yes"/>
      <point x="564" y="936"/>
      <point x="617" y="976"/>
      <point x="674" y="976" type="curve" smooth="yes"/>
      <point x="732" y="976"/>
      <point x="776" y="933"/>
      <point x="768" y="876" type="curve" smooth="yes"/>
      <point x="760" y="820"/>
      <point x="706" y="780"/>
      <point x="649" y="780" type="curve" smooth="yes"/>
      <point x="591" y="780"/>
      <point x="548" y="823"/>
    </contour>
    <contour>
      <point x="294" y="880" type="curve" smooth="yes"/>
      <point x="302" y="936"/>
      <point x="355" y="976"/>
      <point x="412" y="976" type="curve" smooth="yes"/>
      <point x="470" y="976"/>
      <point x="514" y="933"/>
      <point x="506" y="876" type="curve" smooth="yes"/>
      <point x="498" y="820"/>
      <point x="444" y="780"/>
      <point x="387" y="780" type="curve" smooth="yes"/>
      <point x="329" y="780"/>
      <point x="286" y="823"/>
    </contour>
  </outline>
</glyph>
<glyph name="multiply" format="2">
  <advance width="578"/>
  <unicode hex="00D7"/>
  <outline>
    <contour>
      <point x="122" y="-8" type="line"/>
      <point x="26" y="113" type="line"/>
      <point x="198" y="259" type="line"/>
      <point x="76" y="406" type="line"/>
      <point x="204" y="519" type="line"/>
      <point x="321" y="368" type="line"/>
      <point x="490" y="518" type="line"/>
      <point x="586" y="397" type="line"/>
      <point x="414" y="251" type="line"/>
      <point x="536" y="104" type="line"/>
      <point x="407" y="-9" type="line"/>
      <point x="290" y="142" type="line"/>
    </contour>
  </outline>
</glyph>
<glyph name="Oslash" format="2">
  <advance width="766"/>
  <unicode hex="00D8"/>
  <outline>
    <contour>
      <point x="289" y="350" type="curve" smooth="yes"/>
      <point x="275" y="259"/>
      <point x="307" y="179"/>
      <point x="405" y="178" type="curve" smooth="yes"/>
      <point x="504" y="176"/>
      <point x="575" y="252"/>
      <point x="592" y="350" type="curve" smooth="yes"/>
      <point x="606" y="441"/>
      <point x="574" y="521"/>
      <point x="476" y="522" type="curve" smooth="yes"/>
      <point x="377" y="524"/>
      <point x="306" y="448"/>
    </contour>
    <contour>
      <point x="60" y="350" type="curve" smooth="yes"/>
      <point x="92" y="565"/>
      <point x="275" y="720"/>
      <point x="497" y="720" type="curve" smooth="yes"/>
      <point x="713" y="720"/>
      <point x="850" y="558"/>
      <point x="820" y="350" type="curve" smooth="yes"/>
      <point x="788" y="135"/>
      <point x="604" y="-30"/>
      <point x="382" y="-30" type="curve" smooth="yes"/>
      <point x="164" y="-30"/>
      <point x="30" y="142"/>
    </contour>
    <contour>
      <point x="780" y="760" type="line"/>
      <point x="852" y="695" type="line"/>
      <point x="95" y="-60" type="line"/>
      <point x="25" y="0" type="line"/>
    </contour>
  </outline>
</glyph>
<glyph name="Ugrave" format="2">
  <advance width="723"/>
  <unicode hex="00D9"/>
  <outline>
    <contour>
      <point x="154" y="700" type="line"/>
      <point x="371" y="700" type="line"/>
      <point x="292" y="250" type="line" smooth="yes"/>
      <point x="286" y="202"/>
      <point x="299" y="158"/>
      <point x="356" y="156" type="curve" smooth="yes"/>
      <point x="414" y="154"/>
      <point x="450" y="198"/>
      <point x="460" y="250" type="curve"/>
      <point x="538" y="700" type="line"/>
      <point x="755" y="700" type="line"/>
      <point x="676" y="230" type="line" smooth="yes"/>
      <point x="647" y="50"/>
      <point x="504" y="-40"/>
      <point x="334" y="-40" type="curve" smooth="yes"/>
      <point x="170" y="-40"/>
      <point x="50" y="50"/>
      <point x="74" y="230" type="curve"/>
    </contour>
    <contour>
      <point x="320" y="933" type="line"/>
      <point x="462" y="990" type="line"/>
      <point x="582" y="826" type="line"/>
      <point x="472" y="780" type="line"/>
    </contour>
  </outline>
</glyph>
<glyph name="Ucircumflex" format="2">
  <advance width="723"/>
  <unicode hex="00DB"/>
  <outline>
    <contour>
      <point x="154" y="700" type="line"/>
      <point x="371" y="700" type="line"/>
      <point x="292" y="250" type="line" smooth="yes"/>
      <point x="286" y="202"/>
      <point x="299" y="158"/>
      <point x="356" y="156" type="curve" smooth="yes"/>
      <point x="414" y="154"/>
      <point x="450" y="198"/>
      <point x="460" y="250" type="curve"/>
      <point x="538" y="700" type="line"/>
      <point x="755" y="700" type="line"/>
      <point x="676" y="230" type="line" smooth="yes"/>
      <point x="647" y="50"/>
      <point x="504" y="-40"/>
      <point x="334" y="-40" type="curve" smooth="yes"/>
      <point x="170" y="-40"/>
      <point x="50" y="50"/>
      <point x="74" y="230" type="curve"/>
    </contour>
    <contour>
      <point x="486" y="858" type="line"/>
      <point x="395" y="780" type="line"/>
      <point x="270" y="874" type="line"/>
      <point x="502" y="1010" type="line"/>
      <point x="696" y="866" type="line"/>
      <point x="550" y="779" type="line"/>
    </contour>
  </outline>
</glyph>
<glyph name="Udieresis" format="2">
  <advance width="723"/>
  <unicode hex="00DC"/>
  <outline>
    <contour>
      <point x="154" y="700" type="line"/>
      <point x="371" y="700" type="line"/>
      <point x="292" y="250" type="line" smooth="yes"/>
      <point x="286" y="202"/>
      <point x="299" y="158"/>
      <point x="356" y="156" type="curve" smooth="yes"/>
      <point x="414" y="154"/>
      <point x="450" y="198"/>
      <point x="460" y="250" type="curve"/>
      <point x="538" y="700" type="line"/>
      <point x="755" y="700" type="line"/>
      <point x="676" y="230" type="line" smooth="yes"/>
      <point x="647" y="50"/>
      <point x="504" y="-40"/>
      <point x="334" y="-40" type="curve" smooth="yes"/>
      <point x="170" y="-40"/>
      <point x="50" y="50"/>
      <point x="74" y="230" type="curve"/>
    </contour>
    <contour>
      <point x="539" y="880" type="curve" smooth="yes"/>
      <point x="547" y="936"/>
      <point x="601" y="976"/>
      <point x="658" y="976" type="curve" smooth="yes"/>
      <point x="716" y="976"/>
      <point x="759" y="933"/>
      <point x="751" y="876" type="curve" smooth="yes"/>
      <point x="743" y="820"/>
      <point x="689" y="780"/>
      <point x="632" y="780" type="curve" smooth="yes"/>
      <point x="574" y="780"/>
      <point x="531" y="823"/>
    </contour>
    <contour>
      <point x="218" y="880" type="curve" smooth="yes"/>
      <point x="226" y="936"/>
      <point x="280" y="976"/>
      <point x="337" y="976" type="curve" smooth="yes"/>
      <point x="395" y="976"/>
      <point x="438" y="933"/>
      <point x="430" y="876" type="curve" smooth="yes"/>
      <point x="422" y="820"/>
      <point x="369" y="780"/>
      <point x="312" y="780" type="curve" smooth="yes"/>
      <point x="254" y="780"/>
      <point x="210" y="823"/>
    </contour>
  </outline>
</glyph>
<glyph name="Yacute" format="2">
  <advance width="698"/>
  <unicode hex="00DD"/>
  <outline>
    <contour>
      <point x="657" y="926" type="line"/>
      <point x="460" y="780" type="line"/>
      <point x="356" y="834" type="line"/>
      <point x="525" y="989" type="line"/>
    </contour>
    <contour>
      <point x="545" y="700" type="line"/>
      <point x="800" y="700" type="line"/>
      <point x="479" y="270" type="line"/>
      <point x="434" y="0" type="line"/>
      <point x="212" y="0" type="line"/>
      <point x="261" y="279" type="line"/>
      <point x="89" y="700" type="line"/>
      <point x="334" y="700" type="line"/>
      <point x="401" y="478" type="line"/>
    </contour>
  </outline>
</glyph>
<glyph name="Thorn" format="2">
  <advance width="630"/>
  <unicode hex="00DE"/>
  <outline>
    <contour>
      <point x="168" y="700" type="line"/>
      <point x="352" y="700" type="line"/>
      <point x="232" y="0" type="line"/>
      <point x="48" y="0" type="line"/>
    </contour>
    <contour>
      <point x="239" y="425" type="line"/>
      <point x="268" y="590" type="line"/>
      <point x="392" y="590" type="line"/>
      <point x="566" y="588"/>
      <point x="668" y="507"/>
      <point x="644" y="354" type="curve" smooth="yes"/>
      <point x="620" y="201"/>
      <point x="504" y="122"/>
      <point x="324" y="120" type="curve"/>
      <point x="187" y="120" type="line"/>
      <point x="216" y="285" type="line"/>
      <point x="341" y="285" type="line" smooth="yes"/>
      <point x="401" y="286"/>
      <point x="448" y="301"/>
      <point x="458" y="356" type="curve" smooth="yes"/>
      <point x="468" y="410"/>
      <point x="432" y="422"/>
      <point x="376" y="424" type="curve" smooth="yes"/>
    </contour>
  </outline>
</glyph>
<glyph name="germandbls" format="2">
  <advance width="626"/>
  <unicode hex="00DF"/>
  <outline>
    <contour>
      <point x="412" y="-12" type="curve" smooth="yes"/>
      <point x="364" y="-12"/>
      <point x="282" y="-2"/>
      <point x="250" y="11" type="curve"/>
      <point x="269" y="160" type="line"/>
      <point x="295" y="147"/>
      <point x="335" y="138"/>
      <point x="363" y="138" type="curve" smooth="yes"/>
      <point x="409" y="138"/>
      <point x="437" y="165"/>
      <point x="437" y="205" type="curve" smooth="yes"/>
      <point x="437" y="293"/>
      <point x="322" y="300"/>
      <point x="322" y="372" type="curve" smooth="yes"/>
      <point x="322" y="447"/>
      <point x="441" y="470"/>
      <point x="441" y="560" type="curve" smooth="yes"/>
      <point x="441" y="604"/>
      <point x="420" y="626"/>
      <point x="382" y="626" type="curve" smooth="yes"/>
      <point x="329" y="626"/>
      <point x="299" y="592"/>
      <point x="289" y="528" type="curve" smooth="yes"/>
      <point x="201" y="-2" type="line"/>
      <point x="6" y="-2" type="line"/>
      <point x="95" y="519" type="line" smooth="yes"/>
      <point x="123" y="694"/>
      <point x="201" y="799"/>
      <point x="402" y="799" type="curve" smooth="yes"/>
      <point x="537" y="799"/>
      <point x="643" y="717"/>
      <point x="643" y="602" type="curve" smooth="yes"/>
      <point x="643" y="486"/>
      <point x="524" y="434"/>
      <point x="524" y="390" type="curve" smooth="yes"/>
      <point x="524" y="330"/>
      <point x="639" y="343"/>
      <point x="639" y="200" type="curve" smooth="yes"/>
      <point x="639" y="82"/>
      <point x="535" y="-12"/>
    </contour>
  </outline>
</glyph>
<glyph name="acircumflex" format="2">
  <advance width="625"/>
  <unicode hex="00E2"/>
  <outline>
    <contour>
      <point x="438" y="460" type="line"/>
      <point x="631" y="460" type="line"/>
      <point x="552" y="0" type="line"/>
      <point x="359" y="0" type="line"/>
    </contour>
    <contour>
      <point x="40" y="230" type="curve" smooth="yes"/>
      <point x="58" y="368"/>
      <point x="165" y="470"/>
      <point x="283" y="470" type="curve" smooth="yes"/>
      <point x="407" y="470"/>
      <point x="461" y="356"/>
      <point x="445" y="230" type="curve" smooth="yes"/>
      <point x="427" y="98"/>
      <point x="335" y="-10"/>
      <point x="213" y="-10" type="curve" smooth="yes"/>
      <point x="95" y="-10"/>
      <point x="24" y="97"/>
    </contour>
    <contour>
      <point x="242" y="230" type="curve" smooth="yes"/>
      <point x="236" y="188"/>
      <point x="256" y="142"/>
      <point x="301" y="140" type="curve" smooth="yes"/>
      <point x="345" y="138"/>
      <point x="390" y="182"/>
      <point x="398" y="230" type="curve" smooth="yes"/>
      <point x="404" y="275"/>
      <point x="382" y="318"/>
      <point x="340" y="320" type="curve" smooth="yes"/>
      <point x="294" y="322"/>
      <point x="250" y="276"/>
    </contour>
    <contour>
      <point x="404" y="610" type="line"/>
      <point x="314" y="531" type="line"/>
      <point x="188" y="624" type="line"/>
      <point x="421" y="761" type="line"/>
      <point x="616" y="618" type="line"/>
      <point x="468" y="530" type="line"/>
    </contour>
  </outline>
</glyph>
<glyph name="adieresis" format="2">
  <advance width="625"/>
  <unicode hex="00E4"/>
  <outline>
    <contour>
      <point x="438" y="460" type="line"/>
      <point x="631" y="460" type="line"/>
      <point x="552" y="0" type="line"/>
      <point x="359" y="0" type="line"/>
    </contour>
    <contour>
      <point x="40" y="230" type="curve" smooth="yes"/>
      <point x="58" y="368"/>
      <point x="165" y="470"/>
      <point x="283" y="470" type="curve" smooth="yes"/>
      <point x="407" y="470"/>
      <point x="461" y="356"/>
      <point x="445" y="230" type="curve" smooth="yes"/>
      <point x="427" y="98"/>
      <point x="335" y="-10"/>
      <point x="213" y="-10" type="curve" smooth="yes"/>
      <point x="95" y="-10"/>
      <point x="24" y="97"/>
    </contour>
    <contour>
      <point x="242" y="230" type="curve" smooth="yes"/>
      <point x="236" y="188"/>
      <point x="256" y="142"/>
      <point x="301" y="140" type="curve" smooth="yes"/>
      <point x="345" y="138"/>
      <point x="390" y="182"/>
      <point x="398" y="230" type="curve" smooth="yes"/>
      <point x="404" y="275"/>
      <point x="382" y="318"/>
      <point x="340" y="320" type="curve" smooth="yes"/>
      <point x="294" y="322"/>
      <point x="250" y="276"/>
    </contour>
    <contour>
      <point x="418" y="630" type="curve" smooth="yes"/>
      <point x="426" y="686"/>
      <point x="480" y="726"/>
      <point x="537" y="726" type="curve" smooth="yes"/>
      <point x="595" y="726"/>
      <point x="638" y="685"/>
      <point x="630" y="628" type="curve" smooth="yes"/>
      <point x="622" y="572"/>
      <point x="569" y="532"/>
      <point x="512" y="532" type="curve" smooth="yes"/>
      <point x="454" y="532"/>
      <point x="410" y="573"/>
    </contour>
    <contour>
      <point x="156" y="630" type="curve" smooth="yes"/>
      <point x="164" y="686"/>
      <point x="218" y="726"/>
      <point x="275" y="726" type="curve" smooth="yes"/>
      <point x="333" y="726"/>
      <point x="376" y="685"/>
      <point x="368" y="628" type="curve" smooth="yes"/>
      <point x="360" y="572"/>
      <point x="307" y="532"/>
      <point x="250" y="532" type="curve" smooth="yes"/>
      <point x="192" y="532"/>
      <point x="148" y="573"/>
    </contour>
  </outline>
</glyph>
<glyph name="aring" format="2">
  <advance width="625"/>
  <unicode hex="00E5"/>
  <outline>
    <contour>
      <point x="438" y="460" type="line"/>
      <point x="631" y="460" type="line"/>
      <point x="552" y="0" type="line"/>
      <point x="359" y="0" type="line"/>
    </contour>
    <contour>
      <point x="40" y="230" type="curve" smooth="yes"/>
      <point x="58" y="368"/>
      <point x="165" y="470"/>
      <point x="283" y="470" type="curve" smooth="yes"/>
      <point x="407" y="470"/>
      <point x="461" y="356"/>
      <point x="445" y="230" type="curve" smooth="yes"/>
      <point x="427" y="98"/>
      <point x="335" y="-10"/>
      <point x="213" y="-10" type="curve" smooth="yes"/>
      <point x="95" y="-10"/>
      <point x="24" y="97"/>
    </contour>
    <contour>
      <point x="242" y="230" type="curve" smooth="yes"/>
      <point x="236" y="188"/>
      <point x="256" y="142"/>
      <point x="301" y="140" type="curve" smooth="yes"/>
      <point x="345" y="138"/>
      <point x="390" y="182"/>
      <point x="398" y="230" type="curve" smooth="yes"/>
      <point x="404" y="275"/>
      <point x="382" y="318"/>
      <point x="340" y="320" type="curve" smooth="yes"/>
      <point x="294" y="322"/>
      <point x="250" y="276"/>
    </contour>
    <contour>
      <point x="262" y="657" type="curve" smooth="yes"/>
      <point x="272" y="729"/>
      <point x="338" y="780"/>
      <point x="414" y="780" type="curve" smooth="yes"/>
      <point x="490" y="780"/>
      <point x="544" y="727"/>
      <point x="534" y="655" type="curve" smooth="yes"/>
      <point x="524" y="583"/>
      <point x="457" y="532"/>
      <point x="381" y="532" type="curve" smooth="yes"/>
      <point x="305" y="532"/>
      <point x="252" y="585"/>
    </contour>
    <contour>
      <point x="356" y="655" type="curve" smooth="yes"/>
      <point x="354" y="633"/>
      <point x="364" y="613"/>
      <point x="386" y="612" type="curve" smooth="yes"/>
      <point x="410" y="611"/>
      <point x="436" y="633"/>
      <point x="440" y="657" type="curve" smooth="yes"/>
      <point x="442" y="679"/>
      <point x="430" y="699"/>
      <point x="408" y="700" type="curve" smooth="yes"/>
      <point x="384" y="701"/>
      <point x="360" y="679"/>
    </contour>
  </outline>
</glyph>
<glyph name="ae" format="2">
  <advance width="939"/>
  <unicode hex="00E6"/>
  <outline>
    <contour>
      <point x="192" y="-10" type="curve" smooth="yes"/>
      <point x="62" y="-10"/>
      <point x="-3" y="40"/>
      <point x="12" y="130" type="curve" smooth="yes"/>
      <point x="26" y="217"/>
      <point x="116" y="275"/>
      <point x="237" y="275" type="curve" smooth="yes"/>
      <point x="297" y="275"/>
      <point x="350" y="261"/>
      <point x="439" y="220" type="curve"/>
      <point x="352" y="220" type="line"/>
      <point x="360" y="272" type="line" smooth="yes"/>
      <point x="366" y="312"/>
      <point x="346" y="333"/>
      <point x="298" y="333" type="curve" smooth="yes"/>
      <point x="254" y="333"/>
      <point x="181" y="316"/>
      <point x="141" y="298" type="curve"/>
      <point x="103" y="424" type="line"/>
      <point x="199" y="459"/>
      <point x="273" y="475"/>
      <point x="342" y="475" type="curve" smooth="yes"/>
      <point x="444" y="475"/>
      <point x="491" y="440"/>
      <point x="488" y="362" type="curve"/>
      <point x="474" y="362" type="line"/>
      <point x="532" y="434"/>
      <point x="613" y="470"/>
      <point x="716" y="470" type="curve" smooth="yes"/>
      <point x="870" y="470"/>
      <point x="940" y="389"/>
      <point x="915" y="239" type="curve" smooth="yes"/>
      <point x="912" y="220"/>
      <point x="907" y="198"/>
      <point x="905" y="190" type="curve"/>
      <point x="540" y="190" type="line"/>
      <point x="562" y="208" type="line"/>
      <point x="558" y="146"/>
      <point x="578" y="120"/>
      <point x="628" y="120" type="curve" smooth="yes"/>
      <point x="670" y="120"/>
      <point x="714" y="138"/>
      <point x="732" y="165" type="curve"/>
      <point x="905" y="137" type="line"/>
      <point x="837" y="37"/>
      <point x="746" y="-10"/>
      <point x="616" y="-10" type="curve" smooth="yes"/>
      <point x="502" y="-10"/>
      <point x="438" y="26"/>
      <point x="418" y="99" type="curve"/>
      <point x="430" y="98" type="line"/>
      <point x="392" y="28"/>
      <point x="308" y="-10"/>
    </contour>
    <contour>
      <point x="250" y="106" type="curve" smooth="yes"/>
      <point x="302" y="106"/>
      <point x="338" y="134"/>
      <point x="346" y="182" type="curve"/>
      <point x="342" y="144" type="line"/>
      <point x="344" y="179" type="line"/>
      <point x="370" y="152" type="line"/>
      <point x="343" y="170"/>
      <point x="309" y="180"/>
      <point x="275" y="180" type="curve" smooth="yes"/>
      <point x="235" y="180"/>
      <point x="214" y="167"/>
      <point x="210" y="139" type="curve" smooth="yes"/>
      <point x="206" y="117"/>
      <point x="218" y="106"/>
    </contour>
    <contour>
      <point x="565" y="234" type="curve"/>
      <point x="556" y="284" type="line"/>
      <point x="738" y="284" type="line"/>
      <point x="709" y="250" type="line"/>
      <point x="713" y="261"/>
      <point x="713" y="260"/>
      <point x="714" y="266" type="curve" smooth="yes"/>
      <point x="724" y="322"/>
      <point x="706" y="350"/>
      <point x="662" y="350" type="curve" smooth="yes"/>
      <point x="610" y="350"/>
      <point x="578" y="312"/>
    </contour>
  </outline>
</glyph>
<glyph name="ccedilla" format="2">
  <advance width="488"/>
  <unicode hex="00E7"/>
  <outline>
    <contour>
      <point x="237" y="230" type="curve" smooth="yes"/>
      <point x="228" y="176"/>
      <point x="262" y="141"/>
      <point x="315" y="139" type="curve" smooth="yes"/>
      <point x="363" y="137"/>
      <point x="408" y="161"/>
      <point x="444" y="196" type="curve"/>
      <point x="420" y="21" type="line"/>
      <point x="382" y="3"/>
      <point x="341" y="-10"/>
      <point x="281" y="-10" type="curve" smooth="yes"/>
      <point x="129" y="-10"/>
      <point x="19" y="84"/>
      <point x="40" y="230" type="curve" smooth="yes"/>
      <point x="62" y="378"/>
      <point x="195" y="470"/>
      <point x="351" y="470" type="curve" smooth="yes"/>
      <point x="411" y="470"/>
      <point x="449" y="456"/>
      <point x="487" y="440" type="curve"/>
      <point x="461" y="264" type="line"/>
      <point x="435" y="302"/>
      <point x="394" y="322"/>
      <point x="356" y="322" type="curve" smooth="yes"/>
      <point x="302" y="322"/>
      <point x="247" y="281"/>
    </contour>
    <contour>
      <point x="198" y="61" type="line"/>
      <point x="342" y="55" type="line"/>
      <point x="217" y="-72" type="line"/>
      <point x="232" y="-68"/>
      <point x="249" y="-67"/>
      <point x="266" y="-67" type="curve" smooth="yes"/>
      <point x="318" y="-69"/>
      <point x="360" y="-114"/>
      <point x="352" y="-179" type="curve" smooth="yes"/>
      <point x="342" y="-254"/>
      <point x="263" y="-294"/>
      <point x="194" y="-296" type="curve" smooth="yes"/>
      <point x="131" y="-298"/>
      <point x="79" y="-283"/>
      <point x="24" y="-254" type="curve"/>
      <point x="86" y="-171" type="line"/>
      <point x="112" y="-187"/>
      <point x="149" y="-197"/>
      <point x="171" y="-197" type="curve" smooth="yes"/>
      <point x="197" y="-197"/>
      <point x="234" y="-186"/>
      <point x="236" y="-162" type="curve" smooth="yes"/>
      <point x="238" y="-138"/>
      <point x="200" y="-134"/>
      <point x="180" y="-134" type="curve" smooth="yes"/>
      <point x="158" y="-133"/>
      <point x="118" y="-138"/>
      <point x="80" y="-148" type="curve"/>
    </contour>
  </outline>
</glyph>
<glyph name="igrave" format="2">
  <advance width="277"/>
  <unicode hex="00EC"/>
  <outline>
    <contour>
      <point x="98" y="460" type="line"/>
      <point x="282" y="460" type="line"/>
      <point x="204" y="0" type="line"/>
      <point x="18" y="0" type="line"/>
    </contour>
    <contour>
      <point x="42" y="684" type="line"/>
      <point x="183" y="742" type="line"/>
      <point x="304" y="578" type="line"/>
      <point x="194" y="531" type="line"/>
    </contour>
  </outline>
</glyph>
<glyph name="iacute" format="2">
  <advance width="277"/>
  <unicode hex="00ED"/>
  <outline>
    <contour>
      <point x="98" y="460" type="line"/>
      <point x="282" y="460" type="line"/>
      <point x="204" y="0" type="line"/>
      <point x="18" y="0" type="line"/>
    </contour>
    <contour>
      <point x="403" y="678" type="line"/>
      <point x="206" y="532" type="line"/>
      <point x="102" y="584" type="line"/>
      <point x="271" y="740" type="line"/>
    </contour>
  </outline>
</glyph>
<glyph name="icircumflex" format="2">
  <advance width="277"/>
  <unicode hex="00EE"/>
  <outline>
    <contour>
      <point x="98" y="460" type="line"/>
      <point x="282" y="460" type="line"/>
      <point x="204" y="0" type="line"/>
      <point x="18" y="0" type="line"/>
    </contour>
    <contour>
      <point x="219" y="610" type="line"/>
      <point x="128" y="531" type="line"/>
      <point x="4" y="624" type="line"/>
      <point x="236" y="761" type="line"/>
      <point x="430" y="618" type="line"/>
      <point x="283" y="530" type="line"/>
    </contour>
  </outline>
</glyph>
<glyph name="idieresis" format="2">
  <advance width="277"/>
  <unicode hex="00EF"/>
  <outline>
    <contour>
      <point x="98" y="460" type="line"/>
      <point x="282" y="460" type="line"/>
      <point x="204" y="0" type="line"/>
      <point x="18" y="0" type="line"/>
    </contour>
    <contour>
      <point x="244" y="630" type="curve" smooth="yes"/>
      <point x="252" y="686"/>
      <point x="305" y="726"/>
      <point x="362" y="726" type="curve" smooth="yes"/>
      <point x="420" y="726"/>
      <point x="464" y="685"/>
      <point x="456" y="628" type="curve" smooth="yes"/>
      <point x="448" y="572"/>
      <point x="395" y="532"/>
      <point x="338" y="532" type="curve" smooth="yes"/>
      <point x="280" y="532"/>
      <point x="236" y="573"/>
    </contour>
    <contour>
      <point x="-18" y="630" type="curve" smooth="yes"/>
      <point x="-10" y="686"/>
      <point x="43" y="726"/>
      <point x="100" y="726" type="curve" smooth="yes"/>
      <point x="158" y="726"/>
      <point x="202" y="685"/>
      <point x="194" y="628" type="curve" smooth="yes"/>
      <point x="186" y="572"/>
      <point x="133" y="532"/>
      <point x="76" y="532" type="curve" smooth="yes"/>
      <point x="18" y="532"/>
      <point x="-26" y="573"/>
    </contour>
  </outline>
</glyph>
<glyph name="ntilde" format="2">
  <advance width="587"/>
  <unicode hex="00F1"/>
  <outline>
    <contour>
      <point x="291" y="460" type="line"/>
      <point x="212" y="0" type="line"/>
      <point x="20" y="0" type="line"/>
      <point x="98" y="460" type="line"/>
    </contour>
    <contour>
      <point x="361" y="280" type="line"/>
      <point x="364" y="312"/>
      <point x="365" y="341"/>
      <point x="329" y="345" type="curve" smooth="yes"/>
      <point x="293" y="349"/>
      <point x="268" y="314"/>
      <point x="260" y="280" type="curve"/>
      <point x="232" y="271" type="line"/>
      <point x="250" y="375"/>
      <point x="303" y="470"/>
      <point x="423" y="471" type="curve" smooth="yes"/>
      <point x="539" y="472"/>
      <point x="577" y="402"/>
      <point x="564" y="300" type="curve"/>
      <point x="513" y="0" type="line"/>
      <point x="310" y="0" type="line"/>
    </contour>
    <contour>
      <point x="162" y="616" type="line"/>
      <point x="184" y="665"/>
      <point x="229" y="718"/>
      <point x="299" y="716" type="curve" smooth="yes"/>
      <point x="355" y="715"/>
      <point x="378" y="660"/>
      <point x="430" y="662" type="curve" smooth="yes"/>
      <point x="462" y="663"/>
      <point x="488" y="690"/>
      <point x="510" y="717" type="curve"/>
      <point x="583" y="622" type="line"/>
      <point x="555" y="582"/>
      <point x="490" y="530"/>
      <point x="424" y="532" type="curve" smooth="yes"/>
      <point x="374" y="534"/>
      <point x="337" y="591"/>
      <point x="288" y="587" type="curve" smooth="yes"/>
      <point x="256" y="585"/>
      <point x="242" y="555"/>
      <point x="234" y="537" type="curve"/>
    </contour>
  </outline>
</glyph>
<glyph name="otilde" format="2">
  <advance width="597"/>
  <unicode hex="00F5"/>
  <outline>
    <contour>
      <point x="40" y="230" type="curve" smooth="yes"/>
      <point x="61" y="376"/>
      <point x="192" y="471"/>
      <point x="346" y="471" type="curve" smooth="yes"/>
      <point x="495" y="471"/>
      <point x="602" y="374"/>
      <point x="582" y="230" type="curve" smooth="yes"/>
      <point x="561" y="84"/>
      <point x="429" y="-10"/>
      <point x="276" y="-10" type="curve" smooth="yes"/>
      <point x="127" y="-10"/>
      <point x="20" y="86"/>
    </contour>
    <contour>
      <point x="236" y="230" type="curve" smooth="yes"/>
      <point x="230" y="186"/>
      <point x="250" y="148"/>
      <point x="292" y="146" type="curve" smooth="yes"/>
      <point x="336" y="144"/>
      <point x="378" y="182"/>
      <point x="386" y="230" type="curve" smooth="yes"/>
      <point x="392" y="274"/>
      <point x="372" y="314"/>
      <point x="330" y="316" type="curve" smooth="yes"/>
      <point x="286" y="318"/>
      <point x="244" y="278"/>
    </contour>
    <contour>
      <point x="167" y="616" type="line"/>
      <point x="167" y="667"/>
      <point x="248" y="716"/>
      <point x="305" y="716" type="curve" smooth="yes"/>
      <point x="361" y="716"/>
      <point x="383" y="660"/>
      <point x="435" y="662" type="curve" smooth="yes"/>
      <point x="467" y="663"/>
      <point x="493" y="690"/>
      <point x="515" y="717" type="curve"/>
      <point x="588" y="622" type="line"/>
      <point x="560" y="582"/>
      <point x="496" y="530"/>
      <point x="430" y="532" type="curve" smooth="yes"/>
      <point x="380" y="534"/>
      <point x="343" y="591"/>
      <point x="294" y="587" type="curve" smooth="yes"/>
      <point x="262" y="585"/>
      <point x="248" y="555"/>
      <point x="240" y="537" type="curve"/>
    </contour>
  </outline>
</glyph>
<glyph name="odieresis" format="2">
  <advance width="597"/>
  <unicode hex="00F6"/>
  <outline>
    <contour>
      <point x="40" y="230" type="curve" smooth="yes"/>
      <point x="61" y="376"/>
      <point x="192" y="471"/>
      <point x="346" y="471" type="curve" smooth="yes"/>
      <point x="495" y="471"/>
      <point x="602" y="374"/>
      <point x="582" y="230" type="curve" smooth="yes"/>
      <point x="561" y="84"/>
      <point x="429" y="-10"/>
      <point x="276" y="-10" type="curve" smooth="yes"/>
      <point x="127" y="-10"/>
      <point x="20" y="86"/>
    </contour>
    <contour>
      <point x="236" y="230" type="curve" smooth="yes"/>
      <point x="230" y="186"/>
      <point x="250" y="148"/>
      <point x="292" y="146" type="curve" smooth="yes"/>
      <point x="336" y="144"/>
      <point x="378" y="182"/>
      <point x="386" y="230" type="curve" smooth="yes"/>
      <point x="392" y="274"/>
      <point x="372" y="314"/>
      <point x="330" y="316" type="curve" smooth="yes"/>
      <point x="286" y="318"/>
      <point x="244" y="278"/>
    </contour>
    <contour>
      <point x="404" y="630" type="curve" smooth="yes"/>
      <point x="412" y="686"/>
      <point x="465" y="726"/>
      <point x="522" y="726" type="curve" smooth="yes"/>
      <point x="580" y="726"/>
      <point x="624" y="685"/>
      <point x="616" y="628" type="curve" smooth="yes"/>
      <point x="608" y="572"/>
      <point x="555" y="532"/>
      <point x="498" y="532" type="curve" smooth="yes"/>
      <point x="440" y="532"/>
      <point x="396" y="573"/>
    </contour>
    <contour>
      <point x="142" y="630" type="curve" smooth="yes"/>
      <point x="150" y="686"/>
      <point x="203" y="726"/>
      <point x="260" y="726" type="curve" smooth="yes"/>
      <point x="318" y="726"/>
      <point x="362" y="685"/>
      <point x="354" y="628" type="curve" smooth="yes"/>
      <point x="346" y="572"/>
      <point x="293" y="532"/>
      <point x="236" y="532" type="curve" smooth="yes"/>
      <point x="178" y="532"/>
      <point x="134" y="573"/>
    </contour>
  </outline>
</glyph>
<glyph name="divide" format="2">
  <advance width="630"/>
  <unicode hex="00F7"/>
  <outline>
    <contour>
      <point x="278" y="616" type="curve" smooth="yes"/>
      <point x="286" y="678"/>
      <point x="342" y="730"/>
      <point x="408" y="730" type="curve" smooth="yes"/>
      <point x="475" y="730"/>
      <point x="517" y="675"/>
      <point x="509" y="614" type="curve" smooth="yes"/>
      <point x="501" y="552"/>
      <point x="444" y="500"/>
      <point x="378" y="500" type="curve" smooth="yes"/>
      <point x="311" y="500"/>
      <point x="270" y="555"/>
    </contour>
    <contour>
      <point x="192" y="116" type="curve" smooth="yes"/>
      <point x="200" y="178"/>
      <point x="257" y="230"/>
      <point x="323" y="230" type="curve" smooth="yes"/>
      <point x="390" y="230"/>
      <point x="432" y="175"/>
      <point x="424" y="114" type="curve" smooth="yes"/>
      <point x="416" y="52"/>
      <point x="359" y="0"/>
      <point x="293" y="0" type="curve" smooth="yes"/>
      <point x="226" y="0"/>
      <point x="184" y="55"/>
    </contour>
    <contour>
      <point x="24" y="280" type="line"/>
      <point x="54" y="450" type="line"/>
      <point x="678" y="450" type="line"/>
      <point x="648" y="280" type="line"/>
    </contour>
  </outline>
</glyph>
<glyph name="oslash" format="2">
  <advance width="529"/>
  <unicode hex="00F8"/>
  <outline>
    <contour>
      <point x="40" y="230" type="curve" smooth="yes"/>
      <point x="62" y="382"/>
      <point x="194" y="470"/>
      <point x="346" y="470" type="curve" smooth="yes"/>
      <point x="494" y="470"/>
      <point x="603" y="380"/>
      <point x="582" y="230" type="curve" smooth="yes"/>
      <point x="560" y="78"/>
      <point x="428" y="-10"/>
      <point x="276" y="-10" type="curve" smooth="yes"/>
      <point x="128" y="-10"/>
      <point x="19" y="80"/>
    </contour>
    <contour>
      <point x="218" y="230" type="curve" smooth="yes"/>
      <point x="210" y="175"/>
      <point x="239" y="137"/>
      <point x="290" y="136" type="curve" smooth="yes"/>
      <point x="342" y="134"/>
      <point x="396" y="172"/>
      <point x="405" y="230" type="curve" smooth="yes"/>
      <point x="413" y="278"/>
      <point x="382" y="322"/>
      <point x="332" y="324" type="curve" smooth="yes"/>
      <point x="280" y="326"/>
      <point x="228" y="282"/>
    </contour>
    <contour>
      <point x="506" y="510" type="line"/>
      <point x="568" y="466" type="line"/>
      <point x="104" y="-54" type="line"/>
      <point x="42" y="-12" type="line"/>
    </contour>
  </outline>
</glyph>
<glyph name="uacute" format="2">
  <advance width="587"/>
  <unicode hex="00FA"/>
  <outline>
    <contour>
      <point x="320" y="0" type="line"/>
      <point x="400" y="460" type="line"/>
      <point x="592" y="460" type="line"/>
      <point x="513" y="0" type="line"/>
    </contour>
    <contour>
      <point x="250" y="180" type="line"/>
      <point x="247" y="148"/>
      <point x="246" y="119"/>
      <point x="282" y="115" type="curve" smooth="yes"/>
      <point x="318" y="111"/>
      <point x="344" y="146"/>
      <point x="352" y="180" type="curve"/>
      <point x="380" y="189" type="line"/>
      <point x="362" y="85"/>
      <point x="308" y="-10"/>
      <point x="188" y="-11" type="curve" smooth="yes"/>
      <point x="72" y="-12"/>
      <point x="35" y="58"/>
      <point x="48" y="160" type="curve"/>
      <point x="98" y="460" type="line"/>
      <point x="301" y="460" type="line"/>
    </contour>
    <contour>
      <point x="538" y="678" type="line"/>
      <point x="342" y="532" type="line"/>
      <point x="238" y="584" type="line"/>
      <point x="407" y="740" type="line"/>
    </contour>
  </outline>
</glyph>
<glyph name="ucircumflex" format="2">
  <advance width="587"/>
  <unicode hex="00FB"/>
  <outline>
    <contour>
      <point x="320" y="0" type="line"/>
      <point x="400" y="460" type="line"/>
      <point x="592" y="460" type="line"/>
      <point x="513" y="0" type="line"/>
    </contour>
    <contour>
      <point x="250" y="180" type="line"/>
      <point x="247" y="148"/>
      <point x="246" y="119"/>
      <point x="282" y="115" type="curve" smooth="yes"/>
      <point x="318" y="111"/>
      <point x="344" y="146"/>
      <point x="352" y="180" type="curve"/>
      <point x="380" y="189" type="line"/>
      <point x="362" y="85"/>
      <point x="308" y="-10"/>
      <point x="188" y="-11" type="curve" smooth="yes"/>
      <point x="72" y="-12"/>
      <point x="35" y="58"/>
      <point x="48" y="160" type="curve"/>
      <point x="98" y="460" type="line"/>
      <point x="301" y="460" type="line"/>
    </contour>
    <contour>
      <point x="374" y="610" type="line"/>
      <point x="284" y="531" type="line"/>
      <point x="158" y="624" type="line"/>
      <point x="391" y="761" type="line"/>
      <point x="586" y="618" type="line"/>
      <point x="438" y="530" type="line"/>
    </contour>
  </outline>
</glyph>
<glyph name="udieresis" format="2">
  <advance width="587"/>
  <unicode hex="00FC"/>
  <outline>
    <contour>
      <point x="320" y="0" type="line"/>
      <point x="400" y="460" type="line"/>
      <point x="592" y="460" type="line"/>
      <point x="513" y="0" type="line"/>
    </contour>
    <contour>
      <point x="250" y="180" type="line"/>
      <point x="247" y="148"/>
      <point x="246" y="119"/>
      <point x="282" y="115" type="curve" smooth="yes"/>
      <point x="318" y="111"/>
      <point x="344" y="146"/>
      <point x="352" y="180" type="curve"/>
      <point x="380" y="189" type="line"/>
      <point x="362" y="85"/>
      <point x="308" y="-10"/>
      <point x="188" y="-11" type="curve" smooth="yes"/>
      <point x="72" y="-12"/>
      <point x="35" y="58"/>
      <point x="48" y="160" type="curve"/>
      <point x="98" y="460" type="line"/>
      <point x="301" y="460" type="line"/>
    </contour>
    <contour>
      <point x="400" y="630" type="curve" smooth="yes"/>
      <point x="408" y="686"/>
      <point x="461" y="726"/>
      <point x="518" y="726" type="curve" smooth="yes"/>
      <point x="576" y="726"/>
      <point x="620" y="685"/>
      <point x="612" y="628" type="curve" smooth="yes"/>
      <point x="604" y="572"/>
      <point x="550" y="532"/>
      <point x="493" y="532" type="curve" smooth="yes"/>
      <point x="435" y="532"/>
      <point x="392" y="573"/>
    </contour>
    <contour>
      <point x="138" y="630" type="curve" smooth="yes"/>
      <point x="146" y="686"/>
      <point x="199" y="726"/>
      <point x="256" y="726" type="curve" smooth="yes"/>
      <point x="314" y="726"/>
      <point x="357" y="685"/>
      <point x="349" y="628" type="curve" smooth="yes"/>
      <point x="341" y="572"/>
      <point x="288" y="532"/>
      <point x="231" y="532" type="curve" smooth="yes"/>
      <point x="173" y="532"/>
      <point x="130" y="573"/>
    </contour>
  </outline>
</glyph>
<glyph name="yacute" format="2">
  <advance width="553"/>
  <unicode hex="00FD"/>
  <outline>
    <contour>
      <point x="624" y="460" type="line"/>
      <point x="216" y="-220" type="line"/>
      <point x="24" y="-220" type="line"/>
      <point x="170" y="26" type="line"/>
      <point x="38" y="460" type="line"/>
      <point x="240" y="460" type="line"/>
      <point x="321" y="85" type="line"/>
      <point x="216" y="86" type="line"/>
      <point x="426" y="460" type="line"/>
    </contour>
    <contour>
      <point x="542" y="678" type="line"/>
      <point x="345" y="532" type="line"/>
      <point x="240" y="584" type="line"/>
      <point x="410" y="740" type="line"/>
    </contour>
  </outline>
</glyph>
<glyph name="ydieresis" format="2">
  <advance width="553"/>
  <unicode hex="00FF"/>
  <outline>
    <contour>
      <point x="624" y="460" type="line"/>
      <point x="216" y="-220" type="line"/>
      <point x="24" y="-220" type="line"/>
      <point x="170" y="26" type="line"/>
      <point x="38" y="460" type="line"/>
      <point x="240" y="460" type="line"/>
      <point x="321" y="85" type="line"/>
      <point x="216" y="86" type="line"/>
      <point x="426" y="460" type="line"/>
    </contour>
    <contour>
      <point x="382" y="630" type="curve" smooth="yes"/>
      <point x="390" y="686"/>
      <point x="443" y="726"/>
      <point x="500" y="726" type="curve" smooth="yes"/>
      <point x="558" y="726"/>
      <point x="602" y="685"/>
      <point x="594" y="628" type="curve" smooth="yes"/>
      <point x="586" y="572"/>
      <point x="533" y="532"/>
      <point x="476" y="532" type="curve" smooth="yes"/>
      <point x="418" y="532"/>
      <point x="374" y="573"/>
    </contour>
    <contour>
      <point x="120" y="630" type="curve" smooth="yes"/>
      <point x="128" y="686"/>
      <point x="181" y="726"/>
      <point x="238" y="726" type="curve" smooth="yes"/>
      <point x="296" y="726"/>
      <point x="340" y="685"/>
      <point x="332" y="628" type="curve" smooth="yes"/>
      <point x="324" y="572"/>
      <point x="271" y="532"/>
      <point x="214" y="532" type="curve" smooth="yes"/>
      <point x="156" y="532"/>
      <point x="112" y="573"/>
    </contour>
  </outline>
</glyph>
<glyph name="Amacron" format="2">
  <advance width="756"/>
  <unicode hex="0100"/>
  <outline>
    <contour>
      <point x="187" y="90" type="line"/>
      <point x="215" y="248" type="line"/>
      <point x="578" y="248" type="line"/>
      <point x="550" y="90" type="line"/>
    </contour>
    <contour>
      <point x="420" y="382" type="line"/>
      <point x="302" y="188" type="line"/>
      <point x="311" y="138" type="line"/>
      <point x="214" y="0" type="line"/>
      <point x="-36" y="0" type="line"/>
      <point x="478" y="752" type="line"/>
      <point x="734" y="0" type="line"/>
      <point x="494" y="0" type="line"/>
      <point x="442" y="132" type="line"/>
      <point x="468" y="189" type="line"/>
    </contour>
    <contour>
      <point x="301" y="810" type="line"/>
      <point x="330" y="975" type="line"/>
      <point x="706" y="975" type="line"/>
      <point x="677" y="810" type="line"/>
    </contour>
  </outline>
</glyph>
<glyph name="Abreve" format="2">
  <advance width="756"/>
  <unicode hex="0102"/>
  <outline>
    <contour>
      <point x="187" y="90" type="line"/>
      <point x="215" y="248" type="line"/>
      <point x="578" y="248" type="line"/>
      <point x="550" y="90" type="line"/>
    </contour>
    <contour>
      <point x="420" y="382" type="line"/>
      <point x="302" y="188" type="line"/>
      <point x="311" y="138" type="line"/>
      <point x="214" y="0" type="line"/>
      <point x="-36" y="0" type="line"/>
      <point x="478" y="752" type="line"/>
      <point x="734" y="0" type="line"/>
      <point x="494" y="0" type="line"/>
      <point x="442" y="132" type="line"/>
      <point x="468" y="189" type="line"/>
    </contour>
    <contour>
      <point x="350" y="960" type="curve"/>
      <point x="462" y="960" type="line"/>
      <point x="463" y="929"/>
      <point x="477" y="912"/>
      <point x="501" y="910" type="curve" smooth="yes"/>
      <point x="525" y="908"/>
      <point x="553" y="930"/>
      <point x="561" y="960" type="curve"/>
      <point x="678" y="958" type="line"/>
      <point x="660" y="872"/>
      <point x="595" y="810"/>
      <point x="495" y="810" type="curve" smooth="yes"/>
      <point x="395" y="810"/>
      <point x="344" y="872"/>
    </contour>
  </outline>
</glyph>
<glyph name="Aogonek" format="2">
  <advance width="756"/>
  <unicode hex="0104"/>
  <outline>
    <contour>
      <point x="187" y="90" type="line"/>
      <point x="215" y="248" type="line"/>
      <point x="578" y="248" type="line"/>
      <point x="550" y="90" type="line"/>
    </contour>
    <contour>
      <point x="420" y="382" type="line"/>
      <point x="302" y="188" type="line"/>
      <point x="311" y="138" type="line"/>
      <point x="214" y="0" type="line"/>
      <point x="-36" y="0" type="line"/>
      <point x="478" y="752" type="line"/>
      <point x="734" y="0" type="line"/>
      <point x="494" y="0" type="line"/>
      <point x="442" y="132" type="line"/>
      <point x="468" y="189" type="line"/>
    </contour>
    <contour>
      <point x="644" y="-100" type="curve"/>
      <point x="664" y="-182" type="line"/>
      <point x="640" y="-203"/>
      <point x="608" y="-220"/>
      <point x="556" y="-220" type="curve" smooth="yes"/>
      <point x="500" y="-219"/>
      <point x="450" y="-183"/>
      <point x="458" y="-119" type="curve" smooth="yes"/>
      <point x="468" y="-46"/>
      <point x="550" y="-8"/>
      <point x="617" y="25" type="curve"/>
      <point x="658" y="0" type="line"/>
      <point x="616" y="-28"/>
      <point x="578" y="-55"/>
      <point x="571" y="-90" type="curve" smooth="yes"/>
      <point x="569" y="-104"/>
      <point x="573" y="-118"/>
      <point x="590" y="-120" type="curve" smooth="yes"/>
      <point x="606" y="-122"/>
      <point x="630" y="-110"/>
    </contour>
  </outline>
</glyph>
<glyph name="aogonek" format="2">
  <advance width="625"/>
  <unicode hex="0105"/>
  <outline>
    <contour>
      <point x="438" y="460" type="line"/>
      <point x="631" y="460" type="line"/>
      <point x="552" y="0" type="line"/>
      <point x="359" y="0" type="line"/>
    </contour>
    <contour>
      <point x="40" y="230" type="curve" smooth="yes"/>
      <point x="58" y="368"/>
      <point x="165" y="470"/>
      <point x="283" y="470" type="curve" smooth="yes"/>
      <point x="407" y="470"/>
      <point x="461" y="356"/>
      <point x="445" y="230" type="curve" smooth="yes"/>
      <point x="427" y="98"/>
      <point x="335" y="-10"/>
      <point x="213" y="-10" type="curve" smooth="yes"/>
      <point x="95" y="-10"/>
      <point x="24" y="97"/>
    </contour>
    <contour>
      <point x="242" y="230" type="curve" smooth="yes"/>
      <point x="236" y="188"/>
      <point x="256" y="142"/>
      <point x="301" y="140" type="curve" smooth="yes"/>
      <point x="345" y="138"/>
      <point x="390" y="182"/>
      <point x="398" y="230" type="curve" smooth="yes"/>
      <point x="404" y="275"/>
      <point x="382" y="318"/>
      <point x="340" y="320" type="curve" smooth="yes"/>
      <point x="294" y="322"/>
      <point x="250" y="276"/>
    </contour>
    <contour>
      <point x="488" y="-100" type="curve"/>
      <point x="509" y="-182" type="line"/>
      <point x="485" y="-203"/>
      <point x="452" y="-220"/>
      <point x="400" y="-220" type="curve" smooth="yes"/>
      <point x="344" y="-219"/>
      <point x="294" y="-183"/>
      <point x="302" y="-119" type="curve" smooth="yes"/>
      <point x="312" y="-46"/>
      <point x="395" y="-8"/>
      <point x="462" y="25" type="curve"/>
      <point x="502" y="0" type="line"/>
      <point x="460" y="-28"/>
      <point x="423" y="-55"/>
      <point x="416" y="-90" type="curve" smooth="yes"/>
      <point x="414" y="-104"/>
      <point x="418" y="-118"/>
      <point x="435" y="-120" type="curve" smooth="yes"/>
      <point x="451" y="-122"/>
      <point x="474" y="-110"/>
    </contour>
  </outline>
</glyph>
<glyph name="Cacute" format="2">
  <advance width="689"/>
  <unicode hex="0106"/>
  <outline>
    <contour>
      <point x="298" y="350" type="curve" smooth="yes"/>
      <point x="282" y="254"/>
      <point x="341" y="190"/>
      <point x="437" y="188" type="curve" smooth="yes"/>
      <point x="527" y="187"/>
      <point x="592" y="230"/>
      <point x="648" y="272" type="curve"/>
      <point x="615" y="47" type="line"/>
      <point x="553" y="9"/>
      <point x="488" y="-20"/>
      <point x="398" y="-20" type="curve" smooth="yes"/>
      <point x="170" y="-20"/>
      <point x="28" y="137"/>
      <point x="60" y="350" type="curve" smooth="yes"/>
      <point x="93" y="568"/>
      <point x="278" y="720"/>
      <point x="512" y="720" type="curve" smooth="yes"/>
      <point x="600" y="720"/>
      <point x="658" y="692"/>
      <point x="714" y="652" type="curve"/>
      <point x="680" y="427" type="line"/>
      <point x="639" y="475"/>
      <point x="588" y="512"/>
      <point x="504" y="512" type="curve" smooth="yes"/>
      <point x="405" y="512"/>
      <point x="316" y="450"/>
    </contour>
    <contour>
      <point x="681" y="926" type="line"/>
      <point x="484" y="780" type="line"/>
      <point x="380" y="834" type="line"/>
      <point x="550" y="989" type="line"/>
    </contour>
  </outline>
</glyph>
<glyph name="cacute" format="2">
  <advance width="488"/>
  <unicode hex="0107"/>
  <outline>
    <contour>
      <point x="237" y="230" type="curve" smooth="yes"/>
      <point x="228" y="176"/>
      <point x="262" y="141"/>
      <point x="315" y="139" type="curve" smooth="yes"/>
      <point x="363" y="137"/>
      <point x="408" y="161"/>
      <point x="444" y="196" type="curve"/>
      <point x="420" y="21" type="line"/>
      <point x="382" y="3"/>
      <point x="341" y="-10"/>
      <point x="281" y="-10" type="curve" smooth="yes"/>
      <point x="129" y="-10"/>
      <point x="19" y="84"/>
      <point x="40" y="230" type="curve" smooth="yes"/>
      <point x="62" y="378"/>
      <point x="195" y="470"/>
      <point x="351" y="470" type="curve" smooth="yes"/>
      <point x="411" y="470"/>
      <point x="449" y="456"/>
      <point x="487" y="440" type="curve"/>
      <point x="461" y="264" type="line"/>
      <point x="435" y="302"/>
      <point x="394" y="322"/>
      <point x="356" y="322" type="curve" smooth="yes"/>
      <point x="302" y="322"/>
      <point x="247" y="281"/>
    </contour>
    <contour>
      <point x="520" y="678" type="line"/>
      <point x="324" y="532" type="line"/>
      <point x="219" y="584" type="line"/>
      <point x="388" y="740" type="line"/>
    </contour>
  </outline>
</glyph>
<glyph name="Ccircumflex" format="2">
  <advance width="689"/>
  <unicode hex="0108"/>
  <outline>
    <contour>
      <point x="298" y="350" type="curve" smooth="yes"/>
      <point x="282" y="254"/>
      <point x="341" y="190"/>
      <point x="437" y="188" type="curve" smooth="yes"/>
      <point x="527" y="187"/>
      <point x="592" y="230"/>
      <point x="648" y="272" type="curve"/>
      <point x="615" y="47" type="line"/>
      <point x="553" y="9"/>
      <point x="488" y="-20"/>
      <point x="398" y="-20" type="curve" smooth="yes"/>
      <point x="170" y="-20"/>
      <point x="28" y="137"/>
      <point x="60" y="350" type="curve" smooth="yes"/>
      <point x="93" y="568"/>
      <point x="278" y="720"/>
      <point x="512" y="720" type="curve" smooth="yes"/>
      <point x="600" y="720"/>
      <point x="658" y="692"/>
      <point x="714" y="652" type="curve"/>
      <point x="680" y="427" type="line"/>
      <point x="639" y="475"/>
      <point x="588" y="512"/>
      <point x="504" y="512" type="curve" smooth="yes"/>
      <point x="405" y="512"/>
      <point x="316" y="450"/>
    </contour>
    <contour>
      <point x="546" y="858" type="line"/>
      <point x="455" y="780" type="line"/>
      <point x="330" y="874" type="line"/>
      <point x="562" y="1010" type="line"/>
      <point x="757" y="866" type="line"/>
      <point x="610" y="779" type="line"/>
    </contour>
  </outline>
</glyph>
<glyph name="Cdotaccent" format="2">
  <advance width="689"/>
  <unicode hex="010A"/>
  <outline>
    <contour>
      <point x="298" y="350" type="curve" smooth="yes"/>
      <point x="282" y="254"/>
      <point x="341" y="190"/>
      <point x="437" y="188" type="curve" smooth="yes"/>
      <point x="527" y="187"/>
      <point x="592" y="230"/>
      <point x="648" y="272" type="curve"/>
      <point x="615" y="47" type="line"/>
      <point x="553" y="9"/>
      <point x="488" y="-20"/>
      <point x="398" y="-20" type="curve" smooth="yes"/>
      <point x="170" y="-20"/>
      <point x="28" y="137"/>
      <point x="60" y="350" type="curve" smooth="yes"/>
      <point x="93" y="568"/>
      <point x="278" y="720"/>
      <point x="512" y="720" type="curve" smooth="yes"/>
      <point x="600" y="720"/>
      <point x="658" y="692"/>
      <point x="714" y="652" type="curve"/>
      <point x="680" y="427" type="line"/>
      <point x="639" y="475"/>
      <point x="588" y="512"/>
      <point x="504" y="512" type="curve" smooth="yes"/>
      <point x="405" y="512"/>
      <point x="316" y="450"/>
    </contour>
    <contour>
      <point x="400" y="880" type="curve" smooth="yes"/>
      <point x="408" y="936"/>
      <point x="461" y="976"/>
      <point x="518" y="976" type="curve" smooth="yes"/>
      <point x="576" y="976"/>
      <point x="620" y="933"/>
      <point x="612" y="876" type="curve" smooth="yes"/>
      <point x="604" y="820"/>
      <point x="551" y="780"/>
      <point x="494" y="780" type="curve" smooth="yes"/>
      <point x="436" y="780"/>
      <point x="392" y="823"/>
    </contour>
  </outline>
</glyph>
<glyph name="cdotaccent" format="2">
  <advance width="488"/>
  <unicode hex="010B"/>
  <outline>
    <contour>
      <point x="237" y="230" type="curve" smooth="yes"/>
      <point x="228" y="176"/>
      <point x="262" y="141"/>
      <point x="315" y="139" type="curve" smooth="yes"/>
      <point x="363" y="137"/>
      <point x="408" y="161"/>
      <point x="444" y="196" type="curve"/>
      <point x="420" y="21" type="line"/>
      <point x="382" y="3"/>
      <point x="341" y="-10"/>
      <point x="281" y="-10" type="curve" smooth="yes"/>
      <point x="129" y="-10"/>
      <point x="19" y="84"/>
      <point x="40" y="230" type="curve" smooth="yes"/>
      <point x="62" y="378"/>
      <point x="195" y="470"/>
      <point x="351" y="470" type="curve" smooth="yes"/>
      <point x="411" y="470"/>
      <point x="449" y="456"/>
      <point x="487" y="440" type="curve"/>
      <point x="461" y="264" type="line"/>
      <point x="435" y="302"/>
      <point x="394" y="322"/>
      <point x="356" y="322" type="curve" smooth="yes"/>
      <point x="302" y="322"/>
      <point x="247" y="281"/>
    </contour>
    <contour>
      <point x="241" y="640" type="curve" smooth="yes"/>
      <point x="249" y="696"/>
      <point x="303" y="736"/>
      <point x="360" y="736" type="curve" smooth="yes"/>
      <point x="418" y="736"/>
      <point x="461" y="695"/>
      <point x="453" y="638" type="curve" smooth="yes"/>
      <point x="445" y="582"/>
      <point x="391" y="542"/>
      <point x="334" y="542" type="curve" smooth="yes"/>
      <point x="276" y="542"/>
      <point x="233" y="583"/>
    </contour>
  </outline>
</glyph>
<glyph name="ccaron" format="2">
  <advance width="488"/>
  <unicode hex="010D"/>
  <outline>
    <contour>
      <point x="237" y="230" type="curve" smooth="yes"/>
      <point x="228" y="176"/>
      <point x="262" y="141"/>
      <point x="315" y="139" type="curve" smooth="yes"/>
      <point x="363" y="137"/>
      <point x="408" y="161"/>
      <point x="444" y="196" type="curve"/>
      <point x="420" y="21" type="line"/>
      <point x="382" y="3"/>
      <point x="341" y="-10"/>
      <point x="281" y="-10" type="curve" smooth="yes"/>
      <point x="129" y="-10"/>
      <point x="19" y="84"/>
      <point x="40" y="230" type="curve" smooth="yes"/>
      <point x="62" y="378"/>
      <point x="195" y="470"/>
      <point x="351" y="470" type="curve" smooth="yes"/>
      <point x="411" y="470"/>
      <point x="449" y="456"/>
      <point x="487" y="440" type="curve"/>
      <point x="461" y="264" type="line"/>
      <point x="435" y="302"/>
      <point x="394" y="322"/>
      <point x="356" y="322" type="curve" smooth="yes"/>
      <point x="302" y="322"/>
      <point x="247" y="281"/>
    </contour>
    <contour>
      <point x="340" y="682" type="line"/>
      <point x="431" y="761" type="line"/>
      <point x="556" y="668" type="line"/>
      <point x="324" y="531" type="line"/>
      <point x="129" y="674" type="line"/>
      <point x="276" y="762" type="line"/>
    </contour>
  </outline>
</glyph>
<glyph name="Dcaron" format="2">
  <advance width="742"/>
  <unicode hex="010E"/>
  <outline>
    <contour>
      <point x="159" y="700" type="line"/>
      <point x="384" y="700" type="line"/>
      <point x="264" y="0" type="line"/>
      <point x="39" y="0" type="line"/>
    </contour>
    <contour>
      <point x="314" y="0" type="curve"/>
      <point x="186" y="0" type="line"/>
      <point x="220" y="190" type="line"/>
      <point x="324" y="190" type="line"/>
      <point x="415" y="192"/>
      <point x="503" y="230"/>
      <point x="522" y="350" type="curve" smooth="yes"/>
      <point x="540" y="466"/>
      <point x="478" y="508"/>
      <point x="390" y="510" type="curve" smooth="yes"/>
      <point x="273" y="510" type="line"/>
      <point x="306" y="700" type="line"/>
      <point x="421" y="700" type="line"/>
      <point x="645" y="698"/>
      <point x="780" y="560"/>
      <point x="748" y="350" type="curve" smooth="yes"/>
      <point x="716" y="135"/>
      <point x="545" y="2"/>
    </contour>
    <contour>
      <point x="518" y="932" type="line"/>
      <point x="609" y="1010" type="line"/>
      <point x="734" y="916" type="line"/>
      <point x="502" y="780" type="line"/>
      <point x="307" y="924" type="line"/>
      <point x="454" y="1011" type="line"/>
    </contour>
  </outline>
</glyph>
<glyph name="dcaron" format="2">
  <advance width="625"/>
  <unicode hex="010F"/>
  <outline>
    <contour>
      <point x="493" y="780" type="line"/>
      <point x="686" y="780" type="line"/>
      <point x="552" y="0" type="line"/>
      <point x="359" y="0" type="line"/>
    </contour>
    <contour>
      <point x="40" y="230" type="curve" smooth="yes"/>
      <point x="58" y="368"/>
      <point x="165" y="470"/>
      <point x="283" y="470" type="curve" smooth="yes"/>
      <point x="407" y="470"/>
      <point x="462" y="356"/>
      <point x="446" y="230" type="curve" smooth="yes"/>
      <point x="428" y="98"/>
      <point x="335" y="-10"/>
      <point x="213" y="-10" type="curve" smooth="yes"/>
      <point x="95" y="-10"/>
      <point x="24" y="97"/>
    </contour>
    <contour>
      <point x="242" y="230" type="curve" smooth="yes"/>
      <point x="236" y="188"/>
      <point x="256" y="142"/>
      <point x="301" y="140" type="curve" smooth="yes"/>
      <point x="345" y="138"/>
      <point x="392" y="182"/>
      <point x="400" y="230" type="curve" smooth="yes"/>
      <point x="406" y="275"/>
      <point x="382" y="318"/>
      <point x="340" y="320" type="curve" smooth="yes"/>
      <point x="294" y="322"/>
      <point x="250" y="276"/>
    </contour>
    <contour>
      <point x="794" y="779" type="line"/>
      <point x="984" y="744" type="line"/>
      <point x="812" y="497" type="line"/>
      <point x="666" y="523" type="line"/>
    </contour>
  </outline>
</glyph>
<glyph name="Dcroat" format="2">
  <advance width="742"/>
  <unicode hex="0110"/>
  <outline>
    <contour>
      <point x="25" y="290" type="line"/>
      <point x="46" y="405" type="line"/>
      <point x="408" y="405" type="line"/>
      <point x="388" y="290" type="line"/>
    </contour>
    <contour>
      <point x="159" y="700" type="line"/>
      <point x="384" y="700" type="line"/>
      <point x="264" y="0" type="line"/>
      <point x="39" y="0" type="line"/>
    </contour>
    <contour>
      <point x="314" y="0" type="curve"/>
      <point x="186" y="0" type="line"/>
      <point x="220" y="190" type="line"/>
      <point x="324" y="190" type="line"/>
      <point x="415" y="192"/>
      <point x="503" y="230"/>
      <point x="522" y="350" type="curve" smooth="yes"/>
      <point x="540" y="466"/>
      <point x="478" y="508"/>
      <point x="390" y="510" type="curve" smooth="yes"/>
      <point x="273" y="510" type="line"/>
      <point x="306" y="700" type="line"/>
      <point x="421" y="700" type="line"/>
      <point x="645" y="698"/>
      <point x="780" y="560"/>
      <point x="748" y="350" type="curve" smooth="yes"/>
      <point x="716" y="135"/>
      <point x="545" y="2"/>
    </contour>
  </outline>
</glyph>
<glyph name="emacron" format="2">
  <advance width="591"/>
  <unicode hex="0113"/>
  <outline>
    <contour>
      <point x="138" y="190" type="line"/>
      <point x="153" y="284" type="line"/>
      <point x="376" y="284" type="line"/>
      <point x="374" y="320"/>
      <point x="368" y="348"/>
      <point x="330" y="350" type="curve" smooth="yes"/>
      <point x="277" y="353"/>
      <point x="248" y="303"/>
      <point x="238" y="250" type="curve"/>
      <point x="232" y="230" type="line"/>
      <point x="224" y="168"/>
      <point x="239" y="125"/>
      <point x="287" y="121" type="curve" smooth="yes"/>
      <point x="330" y="119"/>
      <point x="366" y="138"/>
      <point x="388" y="164" type="curve"/>
      <point x="562" y="135" type="line"/>
      <point x="502" y="47"/>
      <point x="414" y="-10"/>
      <point x="286" y="-10" type="curve" smooth="yes"/>
      <point x="116" y="-10"/>
      <point x="19" y="86"/>
      <point x="40" y="230" type="curve" smooth="yes"/>
      <point x="42" y="247"/>
      <point x="46" y="263"/>
      <point x="51" y="279" type="curve" smooth="yes"/>
      <point x="89" y="397"/>
      <point x="196" y="470"/>
      <point x="346" y="470" type="curve" smooth="yes"/>
      <point x="507" y="470"/>
      <point x="592" y="383"/>
      <point x="574" y="239" type="curve" smooth="yes"/>
      <point x="572" y="227"/>
      <point x="569" y="208"/>
      <point x="565" y="190" type="curve"/>
    </contour>
    <contour>
      <point x="173" y="531" type="line"/>
      <point x="202" y="696" type="line"/>
      <point x="580" y="696" type="line"/>
      <point x="550" y="531" type="line"/>
    </contour>
  </outline>
</glyph>
<glyph name="Ebreve" format="2">
  <advance width="616"/>
  <unicode hex="0114"/>
  <outline>
    <contour>
      <point x="186" y="0" type="line"/>
      <point x="217" y="175" type="line"/>
      <point x="563" y="175" type="line"/>
      <point x="532" y="0" type="line"/>
    </contour>
    <contour>
      <point x="276" y="525" type="line"/>
      <point x="306" y="700" type="line"/>
      <point x="652" y="700" type="line"/>
      <point x="622" y="525" type="line"/>
    </contour>
    <contour>
      <point x="233" y="275" type="line"/>
      <point x="263" y="445" type="line"/>
      <point x="590" y="445" type="line"/>
      <point x="560" y="275" type="line"/>
    </contour>
    <contour>
      <point x="159" y="700" type="line"/>
      <point x="366" y="700" type="line"/>
      <point x="246" y="0" type="line"/>
      <point x="39" y="0" type="line"/>
    </contour>
    <contour>
      <point x="278" y="930" type="curve"/>
      <point x="390" y="930" type="line"/>
      <point x="391" y="899"/>
      <point x="406" y="882"/>
      <point x="430" y="880" type="curve" smooth="yes"/>
      <point x="454" y="878"/>
      <point x="482" y="900"/>
      <point x="490" y="930" type="curve"/>
      <point x="607" y="928" type="line"/>
      <point x="589" y="842"/>
      <point x="524" y="780"/>
      <point x="424" y="780" type="curve" smooth="yes"/>
      <point x="324" y="780"/>
      <point x="272" y="842"/>
    </contour>
  </outline>
</glyph>
<glyph name="ebreve" format="2">
  <advance width="591"/>
  <unicode hex="0115"/>
  <outline>
    <contour>
      <point x="138" y="190" type="line"/>
      <point x="153" y="284" type="line"/>
      <point x="376" y="284" type="line"/>
      <point x="374" y="320"/>
      <point x="368" y="348"/>
      <point x="330" y="350" type="curve" smooth="yes"/>
      <point x="277" y="353"/>
      <point x="248" y="303"/>
      <point x="238" y="250" type="curve"/>
      <point x="232" y="230" type="line"/>
      <point x="224" y="168"/>
      <point x="239" y="125"/>
      <point x="287" y="121" type="curve" smooth="yes"/>
      <point x="330" y="119"/>
      <point x="366" y="138"/>
      <point x="388" y="164" type="curve"/>
      <point x="562" y="135" type="line"/>
      <point x="502" y="47"/>
      <point x="414" y="-10"/>
      <point x="286" y="-10" type="curve" smooth="yes"/>
      <point x="116" y="-10"/>
      <point x="19" y="86"/>
      <point x="40" y="230" type="curve" smooth="yes"/>
      <point x="42" y="247"/>
      <point x="46" y="263"/>
      <point x="51" y="279" type="curve" smooth="yes"/>
      <point x="89" y="397"/>
      <point x="196" y="470"/>
      <point x="346" y="470" type="curve" smooth="yes"/>
      <point x="507" y="470"/>
      <point x="592" y="383"/>
      <point x="574" y="239" type="curve" smooth="yes"/>
      <point x="572" y="227"/>
      <point x="569" y="208"/>
      <point x="565" y="190" type="curve"/>
    </contour>
    <contour>
      <point x="222" y="681" type="curve"/>
      <point x="334" y="681" type="line"/>
      <point x="335" y="650"/>
      <point x="350" y="634"/>
      <point x="374" y="632" type="curve" smooth="yes"/>
      <point x="398" y="630"/>
      <point x="426" y="650"/>
      <point x="434" y="680" type="curve"/>
      <point x="551" y="680" type="line"/>
      <point x="533" y="594"/>
      <point x="468" y="532"/>
      <point x="368" y="532" type="curve" smooth="yes"/>
      <point x="268" y="532"/>
      <point x="216" y="593"/>
    </contour>
  </outline>
</glyph>
